<svg width="240" height="240" viewBox="0 0 240 240" fill="none" xmlns="http://www.w3.org/2000/svg">
<path d="M59.7393 194.617C104.791 196.654 128.487 194.906 173.239 192.617L165.739 199.617C112.739 203.117 109.239 203.117 64.2393 198.617L59.7393 194.617Z" fill="#845837"/>
<path d="M57.7393 191.117C100.239 194.617 172.239 184.117 177.239 187.117L173.239 192.617C128.386 195.007 106.379 197.319 59.7393 194.617L57.7393 191.117Z" fill="#775034"/>
<path d="M56.2393 188.117C81.9858 189.612 101.955 189.125 128.239 186.617C143.239 184.341 164.739 177.841 180.239 182.117L177.239 187.117C172.239 185.617 146.629 188.386 121.239 191.393C98.2393 194.117 76.1034 192.548 57.7393 191.117L56.2393 188.117Z" fill="#835330"/>
<path d="M54.7393 185.117C77.7441 185.652 84.7393 187.92 114.239 184.117C157.239 175.117 168.239 173.617 182.239 176.617L180.239 182.117C168.239 180.117 158.56 181.12 139.239 185.117C110.239 191.117 72.2393 189.315 56.2393 188.117L54.7393 185.117Z" fill="#7A4B2A"/>
<path d="M53.7393 181.617C69.2393 183.117 87.7393 186.473 110.239 180.617C146.739 171.117 166.239 166.117 183.739 172.117L182.239 176.617C167.239 174.117 161.239 174.617 117.739 183.617C91.7393 188.617 85.7393 187.117 54.7393 185.617L53.7393 181.617Z" fill="#965E37"/>
<path d="M51.7393 177.117C68.2393 179.117 80.7393 182.617 97.2393 178.617C161.739 153.617 168.739 157.617 186.239 161.117L183.739 172.117C168.534 166.562 141.739 172.117 109.239 181.117C89.378 186.617 67.7393 183.117 53.7393 181.617L51.7393 177.117Z" fill="#A66C43"/>
<path d="M50.2393 169.617C84.2393 187.117 101.827 164.156 149.739 148.617C168.239 142.617 170.739 143.117 185.739 147.617L186.239 162.617C162.739 154.617 145.739 162.617 118.239 171.117C89.7393 183.117 81.2393 182.617 52.2393 177.617L50.2393 169.617Z" fill="#8C5731"/>
<path d="M49.7393 163.117C50.5204 163.419 50.7393 163.617 51.7393 163.617C51.7393 166.617 51.7393 167.617 52.8721 170.927L50.2393 170.117C49.6064 167.308 49.2393 166.617 49.7393 163.117Z" fill="#DBB495"/>
<path d="M50.2393 169.617C80.7393 184.117 106.739 165.617 140.739 150.117C158.818 143.02 168.739 142.617 182.239 145.117L181.239 146.617C170.772 143.128 153.842 146.474 136.239 153.617C104.239 168.617 79.2393 185.117 50.2393 170.117L50.2393 169.617Z" fill="#6D4C35"/>
<path d="M47.7393 163.617L49.7393 163.117C49.7393 167.617 51.7393 176.117 54.2393 182.617C57.1149 190.094 62.3024 195.91 64.7393 198.617L64.2393 198.617C58.2393 193.617 56.7393 192.117 53.2393 185.117C50.1926 179.024 49.2393 177.117 47.7393 163.617Z" fill="#513928"/>
<path d="M185.239 170.117C180.709 188.625 166.877 199.896 165.739 199.617C164.601 199.339 177.854 191.117 183.239 169.117C187.77 150.61 176.739 131.617 180.739 132.117C182.228 132.303 189.77 151.61 185.239 170.117Z" fill="#DBB495"/>
<path d="M175.739 129.117L179.739 132.117C184.239 149.117 186.239 160.117 183.239 172.117C181.621 178.589 173.987 192.843 165.739 199.617L165.239 199.617C175.739 189.117 181.548 175.745 182.739 165.617C183.739 157.117 181.239 140.117 175.739 129.117Z" fill="#523928"/>
<path d="M187.239 133.117L184.955 130.342C187.477 126.456 176.535 123.373 182.352 134.512L177.739 133.617C161.239 103.617 203.94 117.813 187.239 133.117Z" fill="#523928"/>
<path d="M186.239 132.117L184.739 130.117C186.239 128.617 183.959 126.229 181.739 127.117C180.363 127.668 179.976 129.461 182.373 134.526L180.393 134.526C175.271 123.061 179.204 121.684 182.739 123.117C186.45 124.621 189.824 129.301 186.239 132.117Z" fill="#DBB495"/>
<path d="M97.6865 38.9255C97.6686 36.8983 99.6134 36.9166 100.128 38.5176L119.228 160.543L115.724 162.291L97.6865 38.9255Z" fill="#845C3F"/>
<rect x="50.358" y="77.0494" width="55.129" height="1" transform="rotate(-32.2678 50.358 77.0494)" fill="#523928"/>
<rect x="104.417" y="46.6173" width="54.2545" height="1" transform="rotate(10.2618 104.417 46.6173)" fill="#523928"/>
<path d="M114.683 131.16C103.469 133.914 92.3235 138.651 70.9009 148.009C72.8137 137.577 74.2199 129.323 74.7534 122.499C75.303 115.471 74.9311 109.918 73.211 105.03C69.8317 95.4273 61.2972 88.5436 44.9144 78.0035C49.0503 76.7237 52.9708 75.4952 56.7236 74.3192C92.4011 63.1393 112.93 56.7062 159.431 56.1211C168.693 74.8636 169.674 99.0003 159.386 126.14L159.106 126.159C137.265 127.631 125.944 128.394 114.683 131.16Z" fill="#C5B9A8" stroke="#523928"/>
<path d="M46.2393 78.1173C90.5008 64.4498 107.128 57.2419 159.239 56.6173C167.239 76.1173 168.239 87.6172 157.739 115.117C129.239 111.117 104.739 116.617 80.2393 134.617C89.7393 111.617 80.2393 99.8911 46.2393 78.1173Z" fill="#DCD2C3"/>
<path d="M103.072 50.1255C102.368 50.9963 101.838 51.8983 101.291 53.2406C100.161 52.0902 99.3985 51.4055 98.5239 50.8641C97.6548 50.3261 96.6815 49.9339 95.1423 49.3571C98.2473 46.6689 102.103 45.3514 105.901 47.1722C105.719 47.353 105.545 47.5256 105.378 47.6911C104.408 48.6517 103.676 49.377 103.072 50.1255Z" fill="#996C4B" stroke="#523928" stroke-width="0.4"/>
<path d="M91.9568 47.3355C96.0756 43.5791 103.02 42.6096 108.122 44.8899L105.661 47.3419C103.554 46.8509 101.419 46.7329 99.4709 47.1274C97.5836 47.5095 96.2889 48.1383 94.7396 49.1223L91.9568 47.3355Z" fill="#CEA589" stroke="#523928" stroke-width="0.5"/>
<path d="M173.739 189.117C168.239 190.117 167.239 191.617 161.739 190.617C159.128 190.142 155.239 191.117 151.239 191.617C156.081 190.678 159.239 189.617 161.739 190.117C165.692 190.908 173.739 188.841 173.739 189.117Z" fill="#503827"/>
<path d="M181.739 149.117C176.149 149.109 175.084 149.802 169.666 148.428C164.201 147.042 156.725 150.772 152.701 150.542C157.632 150.492 164.701 145.924 169.756 147.936C173.501 149.427 181.789 148.846 181.739 149.117Z" fill="#6C4223"/>
<path d="M170.684 151.117C166.684 153.117 165.658 153.491 160.239 152.117C154.774 150.731 148.739 156.117 144.184 154.173C149.239 155.117 156.184 149.555 161.239 151.567C164.985 153.058 166.684 152.617 170.684 151.117Z" fill="#6C4223"/>
<path d="M182.771 166.283C178.539 165.609 177.698 167.323 172.239 166.117C169.259 165.459 165.739 167.117 163.239 165.617C166.239 166.14 170.239 164.617 172.739 165.617C176.482 167.114 180.239 164.617 182.771 166.283Z" fill="#7E502F"/>
<path d="M169.739 194.117C166.739 196.117 164.198 197.823 158.739 196.617C155.759 195.959 151.239 198.117 147.286 196.151C151.239 197.617 156.608 195.58 159.239 196.151C163.692 197.117 164.739 196.004 169.739 194.117Z" fill="#5A3C26"/>
<path d="M159.739 189.617C155.239 189.117 153.239 191.143 147.739 190.143C145.128 189.668 143.739 190.617 139.739 191.117C144.581 190.178 145.239 189.143 147.739 189.643C153.239 190.743 157.239 188.117 159.739 189.617Z" fill="#503827"/>
<path d="M69.7393 197.641C74.2393 198.617 74.8242 197.276 80.2512 198.617C82.8279 199.254 84.273 197.89 88.2964 197.641C83.4055 198.276 82.7151 199.772 80.2512 199.117C74.8305 197.676 72.1409 199.294 69.7393 197.641Z" fill="#68452A"/>
<path d="M183.251 163.476C181.739 163.617 181.239 164.117 178.272 163.476C175.772 162.935 173.739 163.117 172.239 163.117C173.739 162.617 175.739 162.617 178.239 163.117C180.308 163.782 181.739 163.117 183.251 163.476Z" fill="#7E502F"/>
<path d="M179.264 179.452C178.739 179.617 177.168 180.404 174.285 179.452C170.239 178.117 167.739 180.117 165.739 178.117C167.903 179.452 171.213 178.117 174.253 179.094C176.322 179.759 177.389 179.452 179.264 179.452Z" fill="#603A1F"/>
<path d="M164.239 77.6173C165.139 84.3682 162.683 103.802 150.239 102.617C139.739 101.617 147.454 89.6173 146.739 83.6173C146.186 78.9685 144.27 75.1233 144.739 70.6172C145.128 66.8842 147.235 62.6172 152.239 62.6172C156.739 62.6172 162.239 62.6173 164.239 77.6173Z" fill="#EADFCE"/>
<path d="M62.1737 176.439C59.7091 175.786 59.1373 175.534 56.6567 175.381C54.3407 175.239 53.6927 174.422 51.8163 173.798C53.2244 173.893 54.2502 174.95 56.2464 175.072C58.727 175.225 59.7398 175.287 62.1737 176.439Z" fill="#714626"/>
<path d="M67.2393 185.617C62.7393 185.617 62.5276 184.075 59.0276 184.575C55.7472 185.044 55.0276 184.351 55.0276 184.075C56.0276 184.575 56.259 184.62 59.5276 184.075C62.5276 183.575 62.7393 185.117 67.2393 185.617Z" fill="#7D4D2A"/>
<path d="M61.2393 183.117C59.7393 182.818 58.7393 183.117 57.7393 183.617C57.2921 183.841 56.2393 183.617 54.7393 183.117C55.7393 183.117 56.7393 183.617 57.7393 183.117C58.9742 182.5 60.2393 182.617 61.2393 183.117Z" fill="#7D4D2A"/>
<path d="M126.571 170.095C123.739 169.617 121.739 171.617 118.129 173.252C115.424 174.477 113.739 176.117 109.239 175.117C112.739 175.617 116.024 173.356 116.739 173.117C118.239 172.617 124.239 169.117 126.571 170.095Z" fill="#7E502F"/>
<path d="M74.7393 197.117C72.5545 196.282 72.053 196.642 68.7393 196.642C65.4256 196.642 64.7393 196.617 62.7393 195.617C64.2393 196.142 64.9256 196.142 68.2393 196.142C71.553 196.142 73.2393 196.117 74.7393 197.117Z" fill="#68452A"/>
</svg>
