<svg width="205" height="207" viewBox="0 0 205 207" fill="none" xmlns="http://www.w3.org/2000/svg">
<path d="M141.276 91.8136C139.853 92.628 137.397 92.9699 135.499 92.0209C133.601 91.0718 131.812 89.3239 130.512 87.1481C129.213 84.9723 128.504 82.5402 128.537 80.3681C128.57 78.196 129.343 76.4551 130.691 75.515C132.038 74.575 133.855 74.5098 135.755 75.3334C137.655 76.1569 139.488 77.8043 140.866 79.9258C142.244 82.0473 143.058 84.4756 143.134 86.6953C143.211 88.9149 142.544 90.751 141.276 91.8136L135.838 83.7755L138.976 88.4141L141.276 91.8136Z" fill="#BB7E52"/>
<path d="M50.5507 96.6788L132.051 74.8929L136.551 83.4288L140.551 92.1788L59.5507 115.179L50.5507 96.6788Z" fill="#BB7E52"/>
<path d="M103.772 89.2494C95 92.5 99.6554 91.898 91.5 94.5C83.3446 97.102 74.5 100 69.5 101C72.7609 99.3281 74.8446 98.602 83 96C91 94 97.5 90.5 103.772 89.2494Z" fill="#553217"/>
<path d="M138.823 78.7786C140.095 85.154 137.533 80.4209 133.301 81.8195C130.006 82.0181 129.49 82.5798 127.301 83.2257C125.483 83.762 123.051 82.6788 120.551 84.1788C115.051 85.1788 113.301 85.7257 104.301 88.2257C114.801 83.2257 115.301 84.7302 121.301 82.7257C123.199 82.0915 122.259 82.1788 125.051 82.1788C126.759 82.585 127.801 81.2257 131.301 80.2257C135.651 79.0827 136.595 76.654 138.823 78.7786Z" fill="#71431E"/>
<path d="M133.624 74.6788C135.83 74.9545 137.051 76.1788 138.124 76.8788C138.162 77.697 136.833 78.7426 132.124 78.1788C123.624 77.1612 118.145 80.8695 115.051 81.6788C107.747 83.5888 97.124 84.6788 92.624 86.6788C85.0195 90.0585 79.1572 90.7754 72.124 92.1788C67.4517 93.1111 60.624 95.6788 55.624 97.6788C49.6327 98.5395 51.6698 97.0635 51.5507 96.6736C51.2548 95.7057 74.3818 90.6724 95.624 84.1788C117.122 78.6788 131.858 74.4581 133.624 74.6788Z" fill="#72421B"/>
<g filter="url(#filter0_d)">
<path d="M98.0506 95.6788C94.3628 98.9317 85.5507 101.845 75.5507 103.663C70.0507 104.663 69.0766 106.144 66.0506 106.856C62.0506 107.797 63.8418 107.624 62.1348 107.964C60.3325 108.322 56.5954 105.837 56.5507 105.679C56.4729 105.404 55.974 102.148 61.0123 103.663C66.0507 105.179 77.9505 100.679 81.0506 100.679C84.0506 100.679 93.3628 96.9317 98.0506 95.6788Z" fill="#7B481F"/>
</g>
<g filter="url(#filter1_d)">
<path d="M76.0507 96.6788C74.9558 96.8978 73.0507 96.6788 71.0507 97.1788C68.5507 98.2655 65.8585 98.6653 64.2517 98.7655C61.358 98.9458 60.3105 100.698 58.7456 100.976C56.6769 101.343 57.6449 101.452 56.7517 101.54C55.8086 101.633 55.3773 100.128 55.3258 99.9455C55.2364 99.6291 55.7165 98.3399 57.4713 98.4715C59.2261 98.6031 62.4495 97.4646 64.2517 97.4646C65.3018 97.4646 68.0507 97.1788 70.0507 96.3814C73.0507 95.6788 74.8626 96.2036 76.0507 96.6788Z" fill="#804D24"/>
</g>
<path d="M141.051 90.1788C142.551 91.8929 140.051 92.1788 135.051 93.6788C131.263 94.6423 126.031 96.0004 122.051 97.4647C113.072 100.767 104.051 102.179 99.0506 103.679C92.0506 106.179 68.0507 112.679 60.5507 114.679C58.5307 114.962 61.3732 111.247 61.5506 110.679C61.4445 110.11 67.0507 111.179 69.0507 110.679C72.5507 109.679 74.2812 109.174 81.0506 107.465C88.7682 105.516 96.7765 101.409 100.551 100.965C102.753 100.78 118.051 97.1158 122.551 95.4647C131.297 92.2558 136.051 92.1788 141.051 90.1788Z" fill="#72421B"/>
<ellipse cx="55.1102" cy="105.892" rx="10.4013" ry="6.55128" transform="rotate(57.5403 55.1102 105.892)" fill="#FAB06C"/>
<path d="M60.6122 114.541C59.1446 115.475 57.1964 115.387 55.2131 114.448C53.2319 113.51 51.2378 111.731 49.709 109.327C48.1803 106.924 47.4139 104.363 47.4041 102.171C47.3944 99.977 48.1407 98.1753 49.6083 97.2418C51.0758 96.3083 53.024 96.3961 55.0074 97.3351C56.9886 98.2731 58.9827 100.053 60.5114 102.456C62.0402 104.859 62.8066 107.42 62.8163 109.612C62.8261 111.806 62.0797 113.608 60.6122 114.541Z" stroke="#E89A5C" stroke-opacity="0.8" stroke-width="0.3"/>
<path d="M59.3856 112.925C56.5507 114.179 52.9448 111.943 50.5507 108.179C48.1565 104.415 48.6965 99.8703 50.7206 98.5827C52.7448 97.2952 56.9915 99.5728 59.3856 103.337C61.7798 107.101 62.2206 111.671 59.3856 112.925Z" fill="#ED8947"/>
<g filter="url(#filter2_d)">
<path d="M58.5506 111.179C57.0231 112.15 53.854 110.982 52.0712 108.179C50.2884 105.376 50.0231 101.65 51.5507 100.679C53.0782 99.7072 56.2678 101.376 58.0506 104.179C59.8334 106.982 60.0782 110.207 58.5506 111.179Z" fill="#C06A32"/>
</g>
<path d="M56.9986 109.244C56.0701 109.835 54.5608 109.279 53.4466 107.527C52.3323 105.776 52.5701 103.769 53.4986 103.179C54.4271 102.588 55.6716 103.338 56.7859 105.09C57.9001 106.841 57.9271 108.653 56.9986 109.244Z" fill="#8E4E24"/>
<g filter="url(#filter3_d)">
<path d="M105.624 85.8539C101.799 86.0153 101.241 85.8599 94.7672 89.042C88.2934 92.2241 85.0087 91.5762 79.3973 93.1592C79.1154 92.5858 87.9532 91.5319 94.4269 88.3498C100.901 85.1677 105.342 85.2805 105.624 85.8539Z" fill="#DCA172"/>
</g>
<g filter="url(#filter4_d)">
<path d="M123.5 90.5C120 91 117.524 90.2537 109.325 92.44C101.125 94.6264 97.7886 95.7555 91.1307 96.936C95.4577 94.8267 105.204 93.5074 108.385 91.9692C115.5 90 120.5 90.5 123.5 90.5Z" fill="#704323"/>
</g>
<path d="M142.551 83.1788C144.551 89.6788 141.551 92.1788 140.051 92.1788C133.551 92.6788 136.551 93.1787 138.051 89.1788C138.551 86.6788 136.051 86.1788 126.051 87.9692C124.213 88.3745 122.051 89.1788 119.051 89.1788C122.551 86.6788 129.551 86.1788 133.051 85.1788C136.551 83.1788 138.278 83.3174 137.551 79.6788C137.051 77.6788 133.175 77.2451 134.551 76.6788C138.196 75.1789 141.551 79.6788 142.551 83.1788Z" fill="#72421B"/>
<g filter="url(#filter5_i)">
<path d="M74.0507 100.679C75.2005 102.979 76.3168 105.302 76.5507 107.179C77.0307 111.031 76.0437 111.47 75.0507 111.679C74.2014 111.858 74.5507 109.679 74.0507 106.179C73.7063 104.662 73.3325 103.029 72.0507 100.679C69.0506 95.1788 61.0506 92.6788 62.5506 93.1788C63.5565 92.8435 66.4623 93.3187 69.5507 95.6788C71.0681 96.8384 73.0507 98.6788 74.0507 100.679Z" fill="#766767"/>
</g>
<path d="M74.1992 106.158L74.1996 106.158L74.1969 106.146C73.8515 104.624 73.4741 102.975 72.1823 100.607C70.6623 97.8202 67.883 95.8031 65.6876 94.5486C64.6041 93.9294 63.6577 93.4932 63.0659 93.2398C63.2283 93.2291 63.4147 93.2302 63.6233 93.2457C64.073 93.2791 64.6162 93.3784 65.2265 93.5617C66.447 93.9283 67.9294 94.6286 69.4596 95.798C70.9715 96.9533 72.932 98.7769 73.9165 100.746C75.0698 103.052 76.1718 105.351 76.4018 107.197C76.6412 109.118 76.5086 110.152 76.2191 110.727C75.9398 111.282 75.5033 111.43 75.0198 111.532C74.9452 111.548 74.9011 111.535 74.8686 111.513C74.8305 111.487 74.7873 111.434 74.7455 111.331C74.6607 111.121 74.61 110.778 74.5692 110.296C74.5471 110.035 74.5281 109.738 74.507 109.407C74.4514 108.535 74.381 107.431 74.1992 106.158Z" stroke="#564747" stroke-width="0.3"/>
<g filter="url(#filter6_i)">
<path d="M128.551 85.2761C129.626 87.539 130.461 89.7679 130.551 91.6788C130.735 95.6009 130.661 96.0224 129.532 96.3284C128.567 96.59 129.156 94.3147 128.917 90.7566C128.67 89.2261 128.402 87.5787 127.184 85.2761C124.334 79.887 115.349 78.8229 117.051 78.1788C118.205 77.7418 120.815 78.0308 124.051 80.1788C125.641 81.2342 127.616 83.3081 128.551 85.2761Z" fill="#766767"/>
</g>
<path d="M117.051 78.1788L117.051 78.1788L117.051 78.1788ZM117.051 78.1788L117.051 78.1789M117.051 78.1788L117.051 78.1789M117.051 78.1789L117.051 78.1789L117.051 78.1789ZM129.067 90.7465L129.067 90.7465L129.065 90.7327C128.818 89.1974 128.546 87.5306 127.317 85.206C125.865 82.4619 122.862 80.8316 120.469 79.8101C119.869 79.5539 119.305 79.3351 118.811 79.1464C118.728 79.1145 118.646 79.0835 118.567 79.0534C118.177 78.9046 117.84 78.7765 117.574 78.6635C117.414 78.5957 117.282 78.5347 117.182 78.4796C117.094 78.4313 117.038 78.3925 117.008 78.3637C117.026 78.3524 117.056 78.337 117.104 78.3191L117.104 78.3191C117.642 78.1153 118.55 78.0728 119.735 78.3553C120.917 78.6368 122.362 79.2381 123.968 80.3038C125.539 81.3465 127.494 83.4007 128.415 85.3405C129.489 87.6011 130.312 89.8068 130.401 91.6859C130.447 92.6666 130.477 93.4252 130.478 94.0173C130.48 94.611 130.452 95.0276 130.387 95.3281C130.323 95.6252 130.226 95.796 130.094 95.9119C129.959 96.0317 129.771 96.1082 129.493 96.1836C129.396 96.2098 129.344 96.1979 129.313 96.18C129.279 96.1605 129.239 96.1162 129.203 96.0173C129.129 95.8136 129.104 95.4687 129.102 94.9744C129.101 94.7083 129.107 94.4041 129.114 94.0659C129.131 93.1725 129.154 92.0413 129.067 90.7465Z" stroke="#564747" stroke-width="0.3"/>
<g filter="url(#filter7_i)">
<path d="M127.051 86.1788C128.126 88.4417 128.715 90.4861 128.805 92.397C128.99 96.3191 129.18 96.3729 128.051 96.6788C127.085 96.9405 127.79 96.7369 127.551 93.1788C127.304 91.6483 126.656 88.2969 125.438 85.9943C122.588 80.6052 113.849 79.3229 115.551 78.6788C116.705 78.2418 119.069 78.749 122.305 80.897C123.895 81.9524 126.116 84.2108 127.051 86.1788Z" fill="#766767"/>
</g>
<path d="M127.7 93.1687L127.701 93.1687L127.699 93.155C127.452 91.6244 126.801 88.2508 125.571 85.9242C124.121 83.1823 121.182 81.4972 118.85 80.421C118.266 80.1511 117.717 79.9187 117.238 79.7173C117.191 79.6976 117.145 79.6782 117.1 79.6592C116.679 79.4824 116.319 79.3316 116.041 79.2001C115.887 79.1273 115.761 79.0621 115.665 79.0034C115.573 78.9468 115.52 78.9031 115.495 78.8726C115.497 78.8709 115.5 78.8691 115.503 78.8672C115.524 78.8533 115.557 78.8369 115.604 78.8191L115.604 78.8191C116.136 78.6175 116.978 78.6255 118.104 78.9622C119.226 79.2976 120.613 79.9538 122.222 81.022C123.005 81.5416 123.949 82.3616 124.813 83.2975C125.678 84.2339 126.457 85.2779 126.915 86.2432C127.985 88.4943 128.566 90.5188 128.655 92.4041C128.678 92.8949 128.701 93.3252 128.722 93.7027C128.725 93.7489 128.727 93.7943 128.73 93.8388C128.747 94.1591 128.762 94.439 128.774 94.6847C128.8 95.2479 128.805 95.6189 128.772 95.8746C128.739 96.125 128.673 96.239 128.578 96.3147C128.468 96.4013 128.301 96.4556 128.011 96.5341C127.888 96.5675 127.802 96.5906 127.737 96.6016C127.71 96.6062 127.692 96.6076 127.681 96.6079C127.68 96.6057 127.68 96.6032 127.679 96.6004C127.672 96.5567 127.672 96.4858 127.678 96.3695C127.682 96.298 127.688 96.2145 127.695 96.1176C127.734 95.5937 127.802 94.68 127.7 93.1687ZM127.686 96.6257C127.686 96.6258 127.685 96.6255 127.685 96.6249L127.686 96.6257Z" stroke="#564747" stroke-width="0.3"/>
<g filter="url(#filter8_i)">
<path d="M76.0507 100.112C77.2006 102.412 78.3168 104.735 78.5507 106.612C79.5507 110.612 78.0437 110.97 77.0507 111.179C76.2014 111.358 76.5507 109.112 76.0507 105.612C75.7063 104.095 75.4655 103.194 74.5507 100.679C72.5507 95.1788 65.5506 93.1788 64.5507 92.6788C65.5565 92.3435 68.4623 92.3187 71.5507 94.6788C73.0507 96.1788 75.0507 98.1119 76.0507 100.112Z" fill="#766767"/>
</g>
<path d="M78.4019 106.63L78.403 106.639L78.4052 106.648C78.903 108.639 78.7631 109.677 78.4201 110.239C78.0814 110.793 77.52 110.927 77.0198 111.032C76.9465 111.047 76.9033 111.035 76.8707 111.012C76.832 110.985 76.7881 110.929 76.746 110.822C76.6608 110.605 76.6101 110.253 76.5692 109.762C76.5473 109.499 76.5285 109.2 76.5076 108.869C76.4519 107.984 76.3817 106.868 76.1992 105.591L76.1997 105.591L76.197 105.579C75.851 104.055 75.6083 103.148 74.6917 100.628C73.6744 97.8301 71.3897 95.9322 69.2517 94.6745C68.1812 94.0448 67.1431 93.573 66.3113 93.2278C65.9218 93.0661 65.577 92.9319 65.296 92.8226C65.277 92.8152 65.2583 92.8079 65.2398 92.8007C65.1659 92.772 65.0972 92.7452 65.034 92.7203C66.2562 92.5302 68.7767 92.7511 71.4517 94.792C71.5352 94.8755 71.6202 94.9603 71.7064 95.0463C73.1737 96.5101 74.9862 98.3182 75.9166 100.179C77.0698 102.485 78.1718 104.784 78.4019 106.63Z" stroke="#564747" stroke-width="0.3"/>
<g filter="url(#filter9_i)">
<path d="M78.0507 99.6119C79.2006 101.912 79.3168 103.703 79.5507 105.58C79.5507 110.08 80.0437 110.47 79.0507 110.679C78.2014 110.858 78.5507 108.612 78.0507 105.112C77.7063 103.595 78.0355 102.406 76.5507 100.179C74.5506 97.1788 71.5439 94.1789 69.5507 93.1788C69.2028 93.0043 65.7872 92.3717 66.0507 92.1789C66.8676 91.5808 69.9623 91.3187 73.0507 93.6788C74.5507 95.1788 77.0507 97.6119 78.0507 99.6119Z" fill="#766767"/>
</g>
<path d="M78.1992 105.091L78.1997 105.091L78.197 105.079C78.1077 104.685 78.0651 104.307 78.0215 103.92C77.9027 102.865 77.7769 101.748 76.6755 100.096C75.6695 98.5867 74.4114 97.0791 73.1541 95.8227C71.899 94.5685 70.6357 93.5554 69.6179 93.0447C69.5586 93.015 69.452 92.9824 69.329 92.9489C69.2004 92.9139 69.0376 92.8737 68.8547 92.8301C68.6678 92.7856 68.4548 92.7366 68.2338 92.6856C68.0267 92.6379 67.8125 92.5885 67.6059 92.5397C67.1734 92.4376 66.7649 92.3361 66.4818 92.2486C66.4194 92.2293 66.365 92.2113 66.3188 92.1947C66.5029 92.1062 66.7587 92.0278 67.0782 91.9772C67.5164 91.9078 68.0623 91.8926 68.6806 91.9684C69.9145 92.1197 71.4318 92.6328 72.9517 93.792C73.0354 93.8756 73.1221 93.9622 73.2114 94.0513C73.9229 94.761 74.7992 95.6351 75.6265 96.558C76.5621 97.6017 77.4259 98.6977 77.9166 99.679C78.9399 101.726 79.1344 103.36 79.3343 105.04C79.356 105.222 79.3778 105.405 79.4007 105.589C79.4008 106.713 79.4316 107.58 79.4623 108.252C79.4712 108.445 79.4799 108.622 79.4879 108.783C79.508 109.187 79.5234 109.496 79.5231 109.738C79.5226 110.083 79.4884 110.248 79.424 110.342C79.3663 110.426 79.2643 110.481 79.0198 110.532C78.9465 110.547 78.9033 110.535 78.8707 110.512C78.832 110.485 78.7881 110.429 78.746 110.322C78.6608 110.105 78.6101 109.753 78.5692 109.262C78.5473 108.999 78.5285 108.7 78.5076 108.369C78.4519 107.484 78.3817 106.368 78.1992 105.091Z" stroke="#564747" stroke-width="0.3"/>
<g filter="url(#filter10_i)">
<path d="M129.801 83.9258C130.951 86.2255 132.067 88.5491 132.301 90.4258C132.781 94.2775 132.943 95.1788 130.943 95.6788C128.943 96.1789 131.443 95.6788 130.943 92.1788C130.599 90.6619 129.477 87.1903 128.551 84.6788C126.8 79.9319 117.551 77.1788 119.051 77.6788C120.056 77.3435 122.213 76.5657 125.301 78.9258C126.819 80.0853 128.801 81.9258 129.801 83.9258Z" fill="#766767"/>
</g>
<path d="M131.092 92.1576L131.092 92.1575L131.09 92.1456C130.743 90.6188 129.618 87.1397 128.691 84.6269C128.241 83.406 127.313 82.3237 126.214 81.3974C125.112 80.47 123.829 79.6907 122.651 79.0782C121.473 78.4653 120.397 78.0175 119.71 77.754C119.644 77.7288 119.582 77.7053 119.523 77.6834C119.999 77.5396 120.621 77.3986 121.387 77.4413C122.404 77.4981 123.687 77.881 125.21 79.0449C126.722 80.2003 128.682 82.0238 129.667 83.9928C130.82 86.2994 131.922 88.5983 132.152 90.4443C132.164 90.5345 132.175 90.6231 132.185 90.71C132.291 91.5526 132.377 92.2423 132.423 92.8133C132.474 93.4446 132.476 93.917 132.405 94.2806C132.336 94.6381 132.198 94.8846 131.971 95.0734C131.738 95.2669 131.399 95.4102 130.907 95.5333C130.836 95.5511 130.771 95.5676 130.711 95.5826C130.589 95.6133 130.491 95.638 130.412 95.6565C130.441 95.6135 130.473 95.564 130.508 95.5084C130.835 94.9853 131.348 93.95 131.092 92.1576Z" stroke="#564747" stroke-width="0.3"/>
<path d="M153.276 105.814C151.853 106.628 149.397 106.97 147.499 106.021C145.601 105.072 143.812 103.324 142.512 101.148C141.213 98.9723 140.504 96.5402 140.537 94.3681C140.57 92.196 141.343 90.4551 142.691 89.515C144.038 88.575 145.855 88.5098 147.755 89.3334C149.655 90.1569 151.488 91.8043 152.866 93.9258C154.244 96.0473 155.058 98.4756 155.134 100.695C155.211 102.915 154.544 104.751 153.276 105.814L147.838 97.7755L150.976 102.414L153.276 105.814Z" fill="#BB7E52"/>
<path d="M62.5507 110.679L144.051 88.8929L148.551 97.4288L152.551 106.179L71.5507 129.179L62.5507 110.679Z" fill="#BB7E52"/>
<path d="M150.823 92.7786C152.095 99.154 149.533 94.4209 145.301 95.8195C142.006 96.0181 141.49 96.5798 139.301 97.2257C137.483 97.762 135.051 96.6788 132.551 98.1788C127.051 99.1788 125.301 99.7257 116.301 102.226C126.801 97.2257 127.301 98.7302 133.301 96.7257C135.199 96.0915 134.259 96.1788 137.051 96.1788C138.759 96.585 139.801 95.2257 143.301 94.2257C147.651 93.0827 148.595 90.654 150.823 92.7786Z" fill="#71431E"/>
<path d="M145.624 88.6788C147.83 88.9545 149.051 90.1788 150.124 90.8788C150.162 91.697 148.833 92.7426 144.124 92.1788C135.624 91.1612 130.145 94.8695 127.051 95.6788C119.747 97.5888 109.124 98.6788 104.624 100.679C97.0195 104.059 91.1572 104.775 84.124 106.179C79.4517 107.111 72.624 109.679 67.624 111.679C61.6327 112.539 63.6698 111.063 63.5507 110.674C63.2548 109.706 86.3818 104.672 107.624 98.1788C129.122 92.6788 143.858 88.4581 145.624 88.6788Z" fill="#72421B"/>
<g filter="url(#filter11_d)">
<path d="M110.051 109.679C106.363 112.932 97.5507 115.845 87.5507 117.663C82.0507 118.663 81.0766 120.144 78.0506 120.856C74.0506 121.797 75.8418 121.624 74.1348 121.964C72.3325 122.322 68.5954 119.837 68.5507 119.679C68.4729 119.404 67.974 116.148 73.0123 117.663C78.0507 119.179 89.9505 114.679 93.0506 114.679C96.0506 114.679 105.363 110.932 110.051 109.679Z" fill="#7B481F"/>
</g>
<g filter="url(#filter12_d)">
<path d="M88.0507 110.679C86.9558 110.898 85.0507 110.679 83.0507 111.179C80.5507 112.265 77.8585 112.665 76.2517 112.765C73.358 112.946 72.3105 114.698 70.7456 114.976C68.6769 115.343 69.6449 115.452 68.7517 115.54C67.8086 115.633 67.3773 114.128 67.3258 113.945C67.2364 113.629 67.7165 112.34 69.4713 112.471C71.2261 112.603 74.4495 111.465 76.2517 111.465C77.3018 111.465 80.0507 111.179 82.0507 110.381C85.0507 109.679 86.8626 110.204 88.0507 110.679Z" fill="#804D24"/>
</g>
<path d="M153.051 104.179C154.551 105.893 152.051 106.179 147.051 107.679C143.263 108.642 138.031 110 134.051 111.465C125.072 114.767 116.051 116.179 111.051 117.679C104.051 120.179 80.0507 126.679 72.5507 128.679C70.5307 128.962 73.3732 125.247 73.5506 124.679C73.4445 124.11 79.0507 125.179 81.0507 124.679C84.5507 123.679 86.2812 123.174 93.0506 121.465C100.768 119.516 108.777 115.409 112.551 114.965C114.753 114.78 130.051 111.116 134.551 109.465C143.297 106.256 148.051 106.179 153.051 104.179Z" fill="#72421B"/>
<ellipse cx="67.1102" cy="119.892" rx="10.4013" ry="6.55128" transform="rotate(57.5403 67.1102 119.892)" fill="#FAB06C"/>
<path d="M72.6122 128.541C71.1446 129.475 69.1964 129.387 67.2131 128.448C65.2319 127.51 63.2378 125.731 61.709 123.327C60.1803 120.924 59.4139 118.363 59.4041 116.171C59.3944 113.977 60.1407 112.175 61.6083 111.242C63.0758 110.308 65.024 110.396 67.0074 111.335C68.9886 112.273 70.9827 114.053 72.5114 116.456C74.0402 118.859 74.8066 121.42 74.8163 123.612C74.8261 125.806 74.0797 127.608 72.6122 128.541Z" stroke="#E89A5C" stroke-opacity="0.8" stroke-width="0.3"/>
<path d="M71.3856 126.925C68.5507 128.179 64.9448 125.943 62.5507 122.179C60.1565 118.415 60.6965 113.87 62.7206 112.583C64.7448 111.295 68.9915 113.573 71.3856 117.337C73.7798 121.101 74.2206 125.671 71.3856 126.925Z" fill="#ED8947"/>
<g filter="url(#filter13_d)">
<path d="M70.5506 125.179C69.0231 126.15 65.854 124.982 64.0712 122.179C62.2884 119.376 62.0231 115.65 63.5507 114.679C65.0782 113.707 68.2678 115.376 70.0506 118.179C71.8334 120.982 72.0782 124.207 70.5506 125.179Z" fill="#C06A32"/>
</g>
<path d="M68.9986 123.244C68.0701 123.835 66.5608 123.279 65.4466 121.527C64.3323 119.776 64.5701 117.769 65.4986 117.179C66.4271 116.588 67.6716 117.338 68.7859 119.09C69.9001 120.841 69.9271 122.653 68.9986 123.244Z" fill="#8E4E24"/>
<g filter="url(#filter14_d)">
<path d="M130.624 101.854C126.799 102.015 126.241 101.86 119.767 105.042C113.293 108.224 110.009 107.576 104.397 109.159C104.115 108.586 112.953 107.532 119.427 104.35C125.901 101.168 130.342 101.28 130.624 101.854Z" fill="#DCA172"/>
</g>
<g filter="url(#filter15_d)">
<path d="M131.351 104.649C128.889 108.203 126.525 110.254 118.325 112.44C110.125 114.626 106.789 115.756 100.131 116.936C104.458 114.827 114.204 113.507 117.385 111.969C124.541 110.724 129.234 106.7 131.351 104.649Z" fill="#704323"/>
</g>
<path d="M110.992 104.221C106.992 106.721 100.571 108.382 94.4916 110.221C87.1946 112.428 77.9916 113.221 81.9916 112.221C84.0496 111.706 90.9841 110.841 97.9916 108.721C104.071 106.882 105.992 105.721 110.992 104.221Z" fill="#703E1A"/>
<path d="M154.551 97.1788C156.551 103.679 153.551 106.179 152.051 106.179C145.551 106.679 148.551 107.179 150.051 103.179C150.551 100.679 148.051 100.179 138.051 101.969C136.213 102.374 134.051 103.179 131.051 103.179C134.551 100.679 141.551 100.179 145.051 99.1788C148.551 97.1788 150.278 97.3174 149.551 93.6788C149.051 91.6788 145.175 91.2451 146.551 90.6788C150.196 89.1789 153.551 93.6788 154.551 97.1788Z" fill="#72421B"/>
<g filter="url(#filter16_d)">
<path d="M106.31 102.435C103.7 103.734 99.5027 105.268 96.9996 105.753C94.4964 105.95 91.0971 107.519 88.5261 108.319C89.0639 107.86 93.8287 105.746 96.0706 105.072C98.1038 104.731 103.739 103.235 106.31 102.435Z" fill="#653D1D"/>
</g>
<g filter="url(#filter17_i)">
<path d="M86.0507 114.679C87.2005 116.979 88.3168 119.302 88.5507 121.179C89.0307 125.031 88.0437 125.47 87.0507 125.679C86.2014 125.858 86.5507 123.679 86.0507 120.179C85.7063 118.662 85.3325 117.029 84.0507 114.679C81.0506 109.179 73.0506 106.679 74.5506 107.179C75.5565 106.844 78.4623 107.319 81.5507 109.679C83.0681 110.838 85.0507 112.679 86.0507 114.679Z" fill="#766767"/>
</g>
<path d="M86.1992 120.158L86.1996 120.158L86.1969 120.146C85.8515 118.624 85.4741 116.975 84.1823 114.607C82.6623 111.82 79.883 109.803 77.6876 108.549C76.6041 107.929 75.6577 107.493 75.0659 107.24C75.2283 107.229 75.4147 107.23 75.6233 107.246C76.073 107.279 76.6162 107.378 77.2265 107.562C78.447 107.928 79.9294 108.629 81.4596 109.798C82.9715 110.953 84.932 112.777 85.9165 114.746C87.0698 117.052 88.1718 119.351 88.4018 121.197C88.6412 123.118 88.5086 124.152 88.2191 124.727C87.9398 125.282 87.5033 125.43 87.0198 125.532C86.9452 125.548 86.9011 125.535 86.8686 125.513C86.8305 125.487 86.7873 125.434 86.7455 125.331C86.6607 125.121 86.61 124.778 86.5692 124.296C86.5471 124.035 86.5281 123.738 86.507 123.407C86.4514 122.535 86.381 121.431 86.1992 120.158Z" stroke="#564747" stroke-width="0.3"/>
<g filter="url(#filter18_i)">
<path d="M140.551 99.2761C141.626 101.539 142.461 103.768 142.551 105.679C142.735 109.601 142.661 110.022 141.532 110.328C140.567 110.59 141.156 108.315 140.917 104.757C140.67 103.226 140.402 101.579 139.184 99.2761C136.334 93.887 127.349 92.8229 129.051 92.1788C130.205 91.7418 132.815 92.0308 136.051 94.1788C137.641 95.2342 139.616 97.3081 140.551 99.2761Z" fill="#766767"/>
</g>
<path d="M129.051 92.1788L129.051 92.1788L129.051 92.1788ZM129.051 92.1788L129.051 92.1789M129.051 92.1788L129.051 92.1789M129.051 92.1789L129.051 92.1789L129.051 92.1789ZM141.067 104.747L141.067 104.746L141.065 104.733C140.818 103.197 140.546 101.531 139.317 99.206C137.865 96.4619 134.862 94.8316 132.469 93.8101C131.869 93.5539 131.305 93.3351 130.811 93.1464C130.728 93.1145 130.646 93.0835 130.567 93.0534C130.177 92.9046 129.84 92.7765 129.574 92.6635C129.414 92.5957 129.282 92.5347 129.182 92.4796C129.094 92.4313 129.038 92.3925 129.008 92.3637C129.026 92.3524 129.056 92.337 129.104 92.3191L129.104 92.3191C129.642 92.1153 130.55 92.0728 131.735 92.3553C132.917 92.6368 134.362 93.2381 135.968 94.3038C137.539 95.3465 139.494 97.4007 140.415 99.3405C141.489 101.601 142.312 103.807 142.401 105.686C142.447 106.667 142.477 107.425 142.478 108.017C142.48 108.611 142.452 109.028 142.387 109.328C142.323 109.625 142.226 109.796 142.094 109.912C141.959 110.032 141.771 110.108 141.493 110.184C141.396 110.21 141.344 110.198 141.313 110.18C141.279 110.16 141.239 110.116 141.203 110.017C141.129 109.814 141.104 109.469 141.102 108.974C141.101 108.708 141.107 108.404 141.114 108.066C141.131 107.172 141.154 106.041 141.067 104.747Z" stroke="#564747" stroke-width="0.3"/>
<g filter="url(#filter19_i)">
<path d="M139.051 100.179C140.126 102.442 140.715 104.486 140.805 106.397C140.99 110.319 141.18 110.373 140.051 110.679C139.085 110.94 139.79 110.737 139.551 107.179C139.304 105.648 138.656 102.297 137.438 99.9943C134.588 94.6052 125.849 93.3229 127.551 92.6788C128.705 92.2418 131.069 92.749 134.305 94.897C135.895 95.9524 138.116 98.2108 139.051 100.179Z" fill="#766767"/>
</g>
<path d="M139.7 107.169L139.701 107.169L139.699 107.155C139.452 105.624 138.801 102.251 137.571 99.9242C136.121 97.1823 133.182 95.4972 130.85 94.421C130.266 94.1511 129.717 93.9187 129.238 93.7173C129.191 93.6976 129.145 93.6782 129.1 93.6592C128.679 93.4824 128.319 93.3316 128.041 93.2001C127.887 93.1273 127.761 93.0621 127.665 93.0034C127.573 92.9468 127.52 92.9031 127.495 92.8726C127.497 92.8709 127.5 92.8691 127.503 92.8672C127.524 92.8533 127.557 92.8369 127.604 92.8191L127.604 92.8191C128.136 92.6175 128.978 92.6255 130.104 92.9622C131.226 93.2976 132.613 93.9538 134.222 95.022C135.005 95.5416 135.949 96.3616 136.813 97.2975C137.678 98.2339 138.457 99.2779 138.915 100.243C139.985 102.494 140.566 104.519 140.655 106.404C140.678 106.895 140.701 107.325 140.722 107.703C140.725 107.749 140.727 107.794 140.73 107.839C140.747 108.159 140.762 108.439 140.774 108.685C140.8 109.248 140.805 109.619 140.772 109.875C140.739 110.125 140.673 110.239 140.578 110.315C140.468 110.401 140.301 110.456 140.011 110.534C139.888 110.567 139.802 110.591 139.737 110.602C139.71 110.606 139.692 110.608 139.681 110.608C139.68 110.606 139.68 110.603 139.679 110.6C139.672 110.557 139.672 110.486 139.678 110.37C139.682 110.298 139.688 110.214 139.695 110.118C139.734 109.594 139.802 108.68 139.7 107.169ZM139.686 110.626C139.686 110.626 139.685 110.625 139.685 110.625L139.686 110.626Z" stroke="#564747" stroke-width="0.3"/>
<g filter="url(#filter20_i)">
<path d="M88.0507 114.112C89.2006 116.412 90.3168 118.735 90.5507 120.612C91.5507 124.612 90.0437 124.97 89.0507 125.179C88.2014 125.358 88.5507 123.112 88.0507 119.612C87.7063 118.095 87.4655 117.194 86.5507 114.679C84.5507 109.179 77.5506 107.179 76.5507 106.679C77.5565 106.344 80.4623 106.319 83.5507 108.679C85.0507 110.179 87.0507 112.112 88.0507 114.112Z" fill="#766767"/>
</g>
<path d="M90.4019 120.63L90.403 120.639L90.4052 120.648C90.903 122.639 90.7631 123.677 90.4201 124.239C90.0814 124.793 89.52 124.927 89.0198 125.032C88.9465 125.047 88.9033 125.035 88.8707 125.012C88.832 124.985 88.7881 124.929 88.746 124.822C88.6608 124.605 88.6101 124.253 88.5692 123.762C88.5473 123.499 88.5285 123.2 88.5076 122.869C88.4519 121.984 88.3817 120.868 88.1992 119.591L88.1997 119.591L88.197 119.579C87.851 118.055 87.6083 117.148 86.6917 114.628C85.6744 111.83 83.3897 109.932 81.2517 108.675C80.1812 108.045 79.1431 107.573 78.3113 107.228C77.9218 107.066 77.577 106.932 77.296 106.823C77.277 106.815 77.2583 106.808 77.2398 106.801C77.1659 106.772 77.0972 106.745 77.034 106.72C78.2562 106.53 80.7767 106.751 83.4517 108.792C83.5352 108.875 83.6202 108.96 83.7064 109.046C85.1737 110.51 86.9862 112.318 87.9166 114.179C89.0698 116.485 90.1718 118.784 90.4019 120.63Z" stroke="#564747" stroke-width="0.3"/>
<g filter="url(#filter21_i)">
<path d="M90.0507 113.612C91.2006 115.912 91.3168 117.703 91.5507 119.58C91.5507 124.08 92.0437 124.47 91.0507 124.679C90.2014 124.858 90.5507 122.612 90.0507 119.112C89.7063 117.595 90.0355 116.406 88.5507 114.179C86.5506 111.179 83.5439 108.179 81.5507 107.179C81.2028 107.004 77.7872 106.372 78.0507 106.179C78.8676 105.581 81.9623 105.319 85.0507 107.679C86.5507 109.179 89.0507 111.612 90.0507 113.612Z" fill="#766767"/>
</g>
<path d="M90.1992 119.091L90.1997 119.091L90.197 119.079C90.1077 118.685 90.0651 118.307 90.0215 117.92C89.9027 116.865 89.7769 115.748 88.6755 114.096C87.6695 112.587 86.4114 111.079 85.1541 109.823C83.899 108.568 82.6357 107.555 81.6179 107.045C81.5586 107.015 81.452 106.982 81.329 106.949C81.2004 106.914 81.0376 106.874 80.8547 106.83C80.6678 106.786 80.4548 106.737 80.2338 106.686C80.0267 106.638 79.8125 106.588 79.6059 106.54C79.1734 106.438 78.7649 106.336 78.4818 106.249C78.4194 106.229 78.365 106.211 78.3188 106.195C78.5029 106.106 78.7587 106.028 79.0782 105.977C79.5164 105.908 80.0623 105.893 80.6806 105.968C81.9145 106.12 83.4318 106.633 84.9517 107.792C85.0354 107.876 85.1221 107.962 85.2114 108.051C85.9229 108.761 86.7992 109.635 87.6265 110.558C88.5621 111.602 89.4259 112.698 89.9166 113.679C90.9399 115.726 91.1344 117.36 91.3343 119.04C91.356 119.222 91.3778 119.405 91.4007 119.589C91.4008 120.713 91.4316 121.58 91.4623 122.252C91.4712 122.445 91.4799 122.622 91.4879 122.783C91.508 123.187 91.5234 123.496 91.5231 123.738C91.5226 124.083 91.4884 124.248 91.424 124.342C91.3663 124.426 91.2643 124.481 91.0198 124.532C90.9465 124.547 90.9033 124.535 90.8707 124.512C90.832 124.485 90.7881 124.429 90.746 124.322C90.6608 124.105 90.6101 123.753 90.5692 123.262C90.5473 122.999 90.5285 122.7 90.5076 122.369C90.4519 121.484 90.3817 120.368 90.1992 119.091Z" stroke="#564747" stroke-width="0.3"/>
<g filter="url(#filter22_i)">
<path d="M141.801 97.9258C142.951 100.225 144.067 102.549 144.301 104.426C144.781 108.277 144.943 109.179 142.943 109.679C140.943 110.179 143.443 109.679 142.943 106.179C142.599 104.662 141.477 101.19 140.551 98.6788C138.8 93.9319 129.551 91.1788 131.051 91.6788C132.056 91.3435 134.213 90.5657 137.301 92.9258C138.819 94.0853 140.801 95.9258 141.801 97.9258Z" fill="#766767"/>
</g>
<path d="M143.092 106.158L143.092 106.158L143.09 106.146C142.743 104.619 141.618 101.14 140.691 98.6269C140.241 97.406 139.313 96.3237 138.214 95.3974C137.112 94.47 135.829 93.6907 134.651 93.0782C133.473 92.4653 132.397 92.0175 131.71 91.754C131.644 91.7288 131.582 91.7053 131.523 91.6834C131.999 91.5396 132.621 91.3986 133.387 91.4413C134.404 91.4981 135.687 91.881 137.21 93.0449C138.722 94.2003 140.682 96.0238 141.667 97.9928C142.82 100.299 143.922 102.598 144.152 104.444C144.164 104.535 144.175 104.623 144.185 104.71C144.291 105.553 144.377 106.242 144.423 106.813C144.474 107.445 144.476 107.917 144.405 108.281C144.336 108.638 144.198 108.885 143.971 109.073C143.738 109.267 143.399 109.41 142.907 109.533C142.836 109.551 142.771 109.568 142.711 109.583C142.589 109.613 142.491 109.638 142.412 109.657C142.441 109.613 142.473 109.564 142.508 109.508C142.835 108.985 143.348 107.95 143.092 106.158Z" stroke="#564747" stroke-width="0.3"/>
<path d="M69.3816 77.806C70.4713 77.5345 107.732 86.8896 107.732 86.8896L157 97.5L156.05 101.512L107.257 88.8955C107.257 88.8955 69.7586 80.5433 68.9065 79.8119C68.0544 79.0804 68.2919 78.0775 69.3816 77.806Z" fill="#734727"/>
<path d="M156.581 98.0143C156.491 100.562 135.917 94.1456 111.961 88.9835C88.0061 83.8213 67.5793 79.6003 69.5 78C71.0749 77.8593 88.2367 82.8482 112.192 88.0104C136.147 93.1726 158.873 97.0159 156.581 98.0143Z" fill="#FFAF7A" fill-opacity="0.8"/>
<path d="M158.147 100.08C157.892 101.154 156.413 102.009 155.607 101.818C154.8 101.627 154.117 100.618 154.5 99C154.755 97.9252 156.259 97.1295 157 97.5C158 98 158.402 99.0048 158.147 100.08Z" fill="#FBEDCB"/>
<path d="M67.55 29.5C68.55 29 107.05 29.5 107.05 29.5L157.55 28.5V32.5L107.05 31.5C107.05 31.5 68.55 32 67.55 31.5C66.55 31 66.55 30 67.55 29.5Z" fill="#734727"/>
<g filter="url(#filter23_d)">
<path d="M158 29C158.5 31.5 137 29.9999 112.5 30.5C88 31 66 31.5 67.5 29.5C69 29 88 29.9999 112.5 29.4999C137 29 160 27.5 158 29Z" fill="#FFAF7A" fill-opacity="0.8"/>
</g>
<rect x="106" y="22.5" width="5" height="101" fill="#734727"/>
<path d="M109 71.5C107.5 98 108.328 121.5 107.5 121.5C106 120 106 99.1142 106 71.5C106 43.8858 105.672 22 106.5 22C113 22.5 105.937 41.5 109 71.5Z" fill="#FFAF7A" fill-opacity="0.8"/>
<path d="M159 30.5C159 31.6046 158.328 32.5 157.5 32.5C156.672 32.5 156 31.6046 156 30.5C156 29.3954 156.672 28.5 157.5 28.5C158.328 28.5 159 29.3954 159 30.5Z" fill="#FBEDCB"/>
<g filter="url(#filter24_d)">
<path d="M111 22.5C111 23.6046 109.881 24 108.5 24C107.119 24 106 23.6046 106 22.5C106 21.5 107.119 21 108.5 21C109.881 21 111 21.5 111 22.5Z" fill="#FBEDCB"/>
</g>
<path d="M165.276 119.814C163.853 120.628 161.397 120.97 159.499 120.021C157.601 119.072 155.812 117.324 154.512 115.148C153.213 112.972 152.504 110.54 152.537 108.368C152.57 106.196 153.343 104.455 154.691 103.515C156.038 102.575 157.855 102.51 159.755 103.333C161.655 104.157 163.488 105.804 164.866 107.926C166.244 110.047 167.058 112.476 167.134 114.695C167.211 116.915 166.544 118.751 165.276 119.814L159.838 111.776L162.976 116.414L165.276 119.814Z" fill="#BB7E52"/>
<path d="M74.5507 124.679L156.051 102.893L160.551 111.429L164.551 120.179L83.5507 143.179L74.5507 124.679Z" fill="#BB7E52"/>
<path d="M162.823 106.779C164.095 113.154 161.533 108.421 157.301 109.819C154.006 110.018 153.49 110.58 151.301 111.226C149.483 111.762 147.051 110.679 144.551 112.179C139.051 113.179 137.301 113.726 128.301 116.226C138.801 111.226 139.301 112.73 145.301 110.726C147.199 110.091 146.259 110.179 149.051 110.179C150.759 110.585 151.801 109.226 155.301 108.226C159.651 107.083 160.595 104.654 162.823 106.779Z" fill="#71431E"/>
<path d="M157.624 102.679C159.83 102.955 161.051 104.179 162.124 104.879C162.162 105.697 160.833 106.743 156.124 106.179C147.624 105.161 142.145 108.869 139.051 109.679C131.747 111.589 121.124 112.679 116.624 114.679C109.02 118.059 103.157 118.775 96.124 120.179C91.4517 121.111 84.624 123.679 79.624 125.679C73.6327 126.539 75.6698 125.063 75.5507 124.674C75.2548 123.706 98.3818 118.672 119.624 112.179C141.122 106.679 155.858 102.458 157.624 102.679Z" fill="#72421B"/>
<g filter="url(#filter25_d)">
<path d="M122.051 122.679C118.363 125.932 109.551 128.845 99.5507 130.663C94.0507 131.663 93.0766 133.144 90.0506 133.856C86.0506 134.797 87.8418 134.624 86.1348 134.964C84.3325 135.322 80.5954 132.837 80.5507 132.679C80.4729 132.404 79.974 129.148 85.0123 130.663C90.0507 132.179 101.951 127.679 105.051 127.679C108.051 127.679 117.363 123.932 122.051 122.679Z" fill="#7B481F"/>
</g>
<g filter="url(#filter26_d)">
<path d="M100.051 124.679C98.9558 124.898 97.0507 124.679 95.0507 125.179C92.5507 126.265 89.8585 126.665 88.2517 126.765C85.358 126.946 84.3105 128.698 82.7456 128.976C80.6769 129.343 81.6449 129.452 80.7517 129.54C79.8086 129.633 79.3773 128.128 79.3258 127.945C79.2364 127.629 79.7165 126.34 81.4713 126.471C83.2261 126.603 86.4495 125.465 88.2517 125.465C89.3018 125.465 92.0507 125.179 94.0507 124.381C97.0507 123.679 98.8626 124.204 100.051 124.679Z" fill="#804D24"/>
</g>
<path d="M165.051 118.179C166.551 119.893 164.051 120.179 159.051 121.679C155.263 122.642 150.031 124 146.051 125.465C137.072 128.767 128.051 130.179 123.051 131.679C116.051 134.179 92.0507 140.679 84.5507 142.679C82.5307 142.962 85.3732 139.247 85.5506 138.679C85.4445 138.11 91.0507 139.179 93.0507 138.679C96.5507 137.679 98.2812 137.174 105.051 135.465C112.768 133.516 120.777 129.409 124.551 128.965C126.753 128.78 142.051 125.116 146.551 123.465C155.297 120.256 160.051 120.179 165.051 118.179Z" fill="#72421B"/>
<ellipse cx="79.1102" cy="133.892" rx="10.4013" ry="6.55128" transform="rotate(57.5403 79.1102 133.892)" fill="#FAB06C"/>
<path d="M84.6122 142.541C83.1446 143.475 81.1964 143.387 79.2131 142.448C77.2319 141.51 75.2378 139.731 73.709 137.327C72.1803 134.924 71.4139 132.363 71.4041 130.171C71.3944 127.977 72.1407 126.175 73.6083 125.242C75.0758 124.308 77.024 124.396 79.0074 125.335C80.9886 126.273 82.9827 128.053 84.5114 130.456C86.0402 132.859 86.8066 135.42 86.8163 137.612C86.8261 139.806 86.0797 141.608 84.6122 142.541Z" stroke="#E89A5C" stroke-opacity="0.8" stroke-width="0.3"/>
<path d="M83.3856 140.925C80.5507 142.179 76.9448 139.943 74.5507 136.179C72.1565 132.415 72.6965 127.87 74.7206 126.583C76.7448 125.295 80.9915 127.573 83.3856 131.337C85.7798 135.101 86.2206 139.671 83.3856 140.925Z" fill="#ED8947"/>
<g filter="url(#filter27_d)">
<path d="M82.5506 139.179C81.0231 140.15 77.854 138.982 76.0712 136.179C74.2884 133.376 74.0231 129.65 75.5507 128.679C77.0782 127.707 80.2678 129.376 82.0506 132.179C83.8334 134.982 84.0782 138.207 82.5506 139.179Z" fill="#C06A32"/>
</g>
<path d="M80.9986 137.244C80.0701 137.835 78.5608 137.279 77.4466 135.527C76.3323 133.776 76.5701 131.769 77.4986 131.179C78.4271 130.588 79.6716 131.338 80.7859 133.09C81.9001 134.841 81.9271 136.653 80.9986 137.244Z" fill="#8E4E24"/>
<g filter="url(#filter28_d)">
<path d="M145.351 116.649C142.889 120.203 140.525 122.254 132.325 124.44C124.125 126.626 120.789 127.756 114.131 128.936C118.458 126.827 128.204 125.507 131.385 123.969C138.541 122.724 143.234 118.7 145.351 116.649Z" fill="#704323"/>
</g>
<path d="M166.551 111.179C168.551 117.679 165.551 120.179 164.051 120.179C157.551 120.679 160.551 121.179 162.051 117.179C162.551 114.679 160.051 114.179 150.051 115.969C148.213 116.374 146.051 117.179 143.051 117.179C146.551 114.679 153.551 114.179 157.051 113.179C160.551 111.179 162.278 111.317 161.551 107.679C161.051 105.679 157.175 105.245 158.551 104.679C162.196 103.179 165.551 107.679 166.551 111.179Z" fill="#72421B"/>
<g filter="url(#filter29_d)">
<path d="M119.31 120.435C116.7 121.734 112.503 123.268 110 123.753C107.496 123.95 104.097 125.519 101.526 126.319C102.064 125.86 106.829 123.746 109.071 123.072C111.104 122.731 116.739 121.235 119.31 120.435Z" fill="#653D1D"/>
</g>
<g filter="url(#filter30_i)">
<path d="M98.0507 128.679C99.2005 130.979 100.317 133.302 100.551 135.179C101.031 139.031 100.044 139.47 99.0507 139.679C98.2014 139.858 98.5507 137.679 98.0507 134.179C97.7063 132.662 97.3325 131.029 96.0507 128.679C93.0506 123.179 85.0506 120.679 86.5506 121.179C87.5565 120.844 90.4623 121.319 93.5507 123.679C95.0681 124.838 97.0507 126.679 98.0507 128.679Z" fill="#766767"/>
</g>
<path d="M98.1992 134.158L98.1996 134.158L98.1969 134.146C97.8515 132.624 97.4741 130.975 96.1823 128.607C94.6623 125.82 91.883 123.803 89.6876 122.549C88.6041 121.929 87.6577 121.493 87.0659 121.24C87.2283 121.229 87.4147 121.23 87.6233 121.246C88.073 121.279 88.6162 121.378 89.2265 121.562C90.447 121.928 91.9294 122.629 93.4596 123.798C94.9715 124.953 96.932 126.777 97.9165 128.746C99.0698 131.052 100.172 133.351 100.402 135.197C100.641 137.118 100.509 138.152 100.219 138.727C99.9398 139.282 99.5033 139.43 99.0198 139.532C98.9452 139.548 98.9011 139.535 98.8686 139.513C98.8305 139.487 98.7873 139.434 98.7455 139.331C98.6607 139.121 98.61 138.778 98.5692 138.296C98.5471 138.035 98.5281 137.738 98.507 137.407C98.4514 136.535 98.381 135.431 98.1992 134.158Z" stroke="#564747" stroke-width="0.3"/>
<g filter="url(#filter31_i)">
<path d="M152.551 113.276C153.626 115.539 154.461 117.768 154.551 119.679C154.735 123.601 154.661 124.022 153.532 124.328C152.567 124.59 153.156 122.315 152.917 118.757C152.67 117.226 152.402 115.579 151.184 113.276C148.334 107.887 139.349 106.823 141.051 106.179C142.205 105.742 144.815 106.031 148.051 108.179C149.641 109.234 151.616 111.308 152.551 113.276Z" fill="#766767"/>
</g>
<path d="M141.051 106.179L141.051 106.179L141.051 106.179ZM141.051 106.179L141.051 106.179M141.051 106.179L141.051 106.179M141.051 106.179L141.051 106.179L141.051 106.179ZM153.067 118.747L153.067 118.746L153.065 118.733C152.818 117.197 152.546 115.531 151.317 113.206C149.865 110.462 146.862 108.832 144.469 107.81C143.869 107.554 143.305 107.335 142.811 107.146C142.728 107.115 142.646 107.084 142.567 107.053C142.177 106.905 141.84 106.777 141.574 106.664C141.414 106.596 141.282 106.535 141.182 106.48C141.094 106.431 141.038 106.392 141.008 106.364C141.026 106.352 141.056 106.337 141.104 106.319L141.104 106.319C141.642 106.115 142.55 106.073 143.735 106.355C144.917 106.637 146.362 107.238 147.968 108.304C149.539 109.347 151.494 111.401 152.415 113.34C153.489 115.601 154.312 117.807 154.401 119.686C154.447 120.667 154.477 121.425 154.478 122.017C154.48 122.611 154.452 123.028 154.387 123.328C154.323 123.625 154.226 123.796 154.094 123.912C153.959 124.032 153.771 124.108 153.493 124.184C153.396 124.21 153.344 124.198 153.313 124.18C153.279 124.16 153.239 124.116 153.203 124.017C153.129 123.814 153.104 123.469 153.102 122.974C153.101 122.708 153.107 122.404 153.114 122.066C153.131 121.172 153.154 120.041 153.067 118.747Z" stroke="#564747" stroke-width="0.3"/>
<g filter="url(#filter32_i)">
<path d="M151.051 114.179C152.126 116.442 152.715 118.486 152.805 120.397C152.99 124.319 153.18 124.373 152.051 124.679C151.085 124.94 151.79 124.737 151.551 121.179C151.304 119.648 150.656 116.297 149.438 113.994C146.588 108.605 137.849 107.323 139.551 106.679C140.705 106.242 143.069 106.749 146.305 108.897C147.895 109.952 150.116 112.211 151.051 114.179Z" fill="#766767"/>
</g>
<path d="M151.7 121.169L151.701 121.169L151.699 121.155C151.452 119.624 150.801 116.251 149.571 113.924C148.121 111.182 145.182 109.497 142.85 108.421C142.266 108.151 141.717 107.919 141.238 107.717C141.191 107.698 141.145 107.678 141.1 107.659C140.679 107.482 140.319 107.332 140.041 107.2C139.887 107.127 139.761 107.062 139.665 107.003C139.573 106.947 139.52 106.903 139.495 106.873C139.497 106.871 139.5 106.869 139.503 106.867C139.524 106.853 139.557 106.837 139.604 106.819L139.604 106.819C140.136 106.618 140.978 106.626 142.104 106.962C143.226 107.298 144.613 107.954 146.222 109.022C147.005 109.542 147.949 110.362 148.813 111.297C149.678 112.234 150.457 113.278 150.915 114.243C151.985 116.494 152.566 118.519 152.655 120.404C152.678 120.895 152.701 121.325 152.722 121.703C152.725 121.749 152.727 121.794 152.73 121.839C152.747 122.159 152.762 122.439 152.774 122.685C152.8 123.248 152.805 123.619 152.772 123.875C152.739 124.125 152.673 124.239 152.578 124.315C152.468 124.401 152.301 124.456 152.011 124.534C151.888 124.567 151.802 124.591 151.737 124.602C151.71 124.606 151.692 124.608 151.681 124.608C151.68 124.606 151.68 124.603 151.679 124.6C151.672 124.557 151.672 124.486 151.678 124.37C151.682 124.298 151.688 124.214 151.695 124.118C151.734 123.594 151.802 122.68 151.7 121.169ZM151.686 124.626C151.686 124.626 151.685 124.625 151.685 124.625L151.686 124.626Z" stroke="#564747" stroke-width="0.3"/>
<g filter="url(#filter33_i)">
<path d="M100.051 128.112C101.201 130.412 102.317 132.735 102.551 134.612C103.551 138.612 102.044 138.97 101.051 139.179C100.201 139.358 100.551 137.112 100.051 133.612C99.7063 132.095 99.4655 131.194 98.5507 128.679C96.5507 123.179 89.5506 121.179 88.5507 120.679C89.5565 120.344 92.4623 120.319 95.5507 122.679C97.0507 124.179 99.0507 126.112 100.051 128.112Z" fill="#766767"/>
</g>
<path d="M102.402 134.63L102.403 134.639L102.405 134.648C102.903 136.639 102.763 137.677 102.42 138.239C102.081 138.793 101.52 138.927 101.02 139.032C100.947 139.047 100.903 139.035 100.871 139.012C100.832 138.985 100.788 138.929 100.746 138.822C100.661 138.605 100.61 138.253 100.569 137.762C100.547 137.499 100.528 137.2 100.508 136.869C100.452 135.984 100.382 134.868 100.199 133.591L100.2 133.591L100.197 133.579C99.851 132.055 99.6083 131.148 98.6917 128.628C97.6744 125.83 95.3897 123.932 93.2517 122.675C92.1812 122.045 91.1431 121.573 90.3113 121.228C89.9218 121.066 89.577 120.932 89.296 120.823C89.277 120.815 89.2583 120.808 89.2398 120.801C89.1659 120.772 89.0972 120.745 89.034 120.72C90.2562 120.53 92.7767 120.751 95.4517 122.792C95.5352 122.875 95.6202 122.96 95.7064 123.046C97.1737 124.51 98.9862 126.318 99.9166 128.179C101.07 130.485 102.172 132.784 102.402 134.63Z" stroke="#564747" stroke-width="0.3"/>
<g filter="url(#filter34_i)">
<path d="M102.051 127.612C103.201 129.912 103.317 131.703 103.551 133.58C103.551 138.08 104.044 138.47 103.051 138.679C102.201 138.858 102.551 136.612 102.051 133.112C101.706 131.595 102.035 130.406 100.551 128.179C98.5506 125.179 95.5439 122.179 93.5507 121.179C93.2028 121.004 89.7872 120.372 90.0507 120.179C90.8676 119.581 93.9623 119.319 97.0507 121.679C98.5507 123.179 101.051 125.612 102.051 127.612Z" fill="#766767"/>
</g>
<path d="M102.199 133.091L102.2 133.091L102.197 133.079C102.108 132.685 102.065 132.307 102.022 131.92C101.903 130.865 101.777 129.748 100.675 128.096C99.6695 126.587 98.4114 125.079 97.1541 123.823C95.899 122.568 94.6357 121.555 93.6179 121.045C93.5586 121.015 93.452 120.982 93.329 120.949C93.2004 120.914 93.0376 120.874 92.8547 120.83C92.6678 120.786 92.4548 120.737 92.2338 120.686C92.0267 120.638 91.8125 120.588 91.6059 120.54C91.1734 120.438 90.7649 120.336 90.4818 120.249C90.4194 120.229 90.365 120.211 90.3188 120.195C90.5029 120.106 90.7587 120.028 91.0782 119.977C91.5164 119.908 92.0623 119.893 92.6806 119.968C93.9145 120.12 95.4318 120.633 96.9517 121.792C97.0354 121.876 97.1221 121.962 97.2114 122.051C97.9229 122.761 98.7992 123.635 99.6265 124.558C100.562 125.602 101.426 126.698 101.917 127.679C102.94 129.726 103.134 131.36 103.334 133.04C103.356 133.222 103.378 133.405 103.401 133.589C103.401 134.713 103.432 135.58 103.462 136.252C103.471 136.445 103.48 136.622 103.488 136.783C103.508 137.187 103.523 137.496 103.523 137.738C103.523 138.083 103.488 138.248 103.424 138.342C103.366 138.426 103.264 138.481 103.02 138.532C102.947 138.547 102.903 138.535 102.871 138.512C102.832 138.485 102.788 138.429 102.746 138.322C102.661 138.105 102.61 137.753 102.569 137.262C102.547 136.999 102.528 136.7 102.508 136.369C102.452 135.484 102.382 134.368 102.199 133.091Z" stroke="#564747" stroke-width="0.3"/>
<g filter="url(#filter35_i)">
<path d="M153.801 111.926C154.951 114.225 156.067 116.549 156.301 118.426C156.781 122.277 156.943 123.179 154.943 123.679C152.943 124.179 155.443 123.679 154.943 120.179C154.599 118.662 153.477 115.19 152.551 112.679C150.8 107.932 141.551 105.179 143.051 105.679C144.056 105.344 146.213 104.566 149.301 106.926C150.819 108.085 152.801 109.926 153.801 111.926Z" fill="#766767"/>
</g>
<path d="M155.092 120.158L155.092 120.158L155.09 120.146C154.743 118.619 153.618 115.14 152.691 112.627C152.241 111.406 151.313 110.324 150.214 109.397C149.112 108.47 147.829 107.691 146.651 107.078C145.473 106.465 144.397 106.017 143.71 105.754C143.644 105.729 143.582 105.705 143.523 105.683C143.999 105.54 144.621 105.399 145.387 105.441C146.404 105.498 147.687 105.881 149.21 107.045C150.722 108.2 152.682 110.024 153.667 111.993C154.82 114.299 155.922 116.598 156.152 118.444C156.164 118.535 156.175 118.623 156.185 118.71C156.291 119.553 156.377 120.242 156.423 120.813C156.474 121.445 156.476 121.917 156.405 122.281C156.336 122.638 156.198 122.885 155.971 123.073C155.738 123.267 155.399 123.41 154.907 123.533C154.836 123.551 154.771 123.568 154.711 123.583C154.589 123.613 154.491 123.638 154.412 123.657C154.441 123.613 154.473 123.564 154.508 123.508C154.835 122.985 155.348 121.95 155.092 120.158Z" stroke="#564747" stroke-width="0.3"/>
<path d="M133.5 111.5C129.5 114 123.079 115.661 117 117.5C109.703 119.707 100.5 120.5 104.5 119.5C106.558 118.986 113.492 118.12 120.5 116C126.579 114.161 128.5 113 133.5 111.5Z" fill="#703E1A"/>
<path d="M178.276 132.814C176.853 133.628 174.397 133.97 172.499 133.021C170.601 132.072 168.812 130.324 167.512 128.148C166.213 125.972 165.504 123.54 165.537 121.368C165.57 119.196 166.343 117.455 167.691 116.515C169.038 115.575 170.855 115.51 172.755 116.333C174.655 117.157 176.488 118.804 177.866 120.926C179.244 123.047 180.058 125.476 180.134 127.695C180.211 129.915 179.544 131.751 178.276 132.814L172.838 124.776L175.976 129.414L178.276 132.814Z" fill="#BB7E52"/>
<path d="M87.5507 137.679L169.051 115.893L173.551 124.429L177.551 133.179L96.5507 156.179L87.5507 137.679Z" fill="#BB7E52"/>
<path d="M175.823 119.779C177.095 126.154 174.533 121.421 170.301 122.819C167.006 123.018 166.49 123.58 164.301 124.226C162.483 124.762 160.051 123.679 157.551 125.179C152.051 126.179 150.301 126.726 141.301 129.226C151.801 124.226 152.301 125.73 158.301 123.726C160.199 123.091 159.259 123.179 162.051 123.179C163.759 123.585 164.801 122.226 168.301 121.226C172.651 120.083 173.595 117.654 175.823 119.779Z" fill="#71431E"/>
<path d="M170.624 115.679C172.83 115.955 174.051 117.179 175.124 117.879C175.162 118.697 173.833 119.743 169.124 119.179C160.624 118.161 155.145 121.869 152.051 122.679C144.747 124.589 134.124 125.679 129.624 127.679C122.02 131.059 116.157 131.775 109.124 133.179C104.452 134.111 97.624 136.679 92.624 138.679C86.6327 139.539 88.6698 138.063 88.5507 137.674C88.2548 136.706 111.382 131.672 132.624 125.179C154.122 119.679 168.858 115.458 170.624 115.679Z" fill="#72421B"/>
<g filter="url(#filter36_d)">
<path d="M135.051 136.679C131.363 139.932 122.551 142.845 112.551 144.663C107.051 145.663 106.077 147.144 103.051 147.856C99.0506 148.797 100.842 148.624 99.1348 148.964C97.3325 149.322 93.5954 146.837 93.5507 146.679C93.4729 146.404 92.974 143.148 98.0123 144.663C103.051 146.179 114.951 141.679 118.051 141.679C121.051 141.679 130.363 137.932 135.051 136.679Z" fill="#7B481F"/>
</g>
<g filter="url(#filter37_d)">
<path d="M113.051 137.679C111.956 137.898 110.051 137.679 108.051 138.179C105.551 139.265 102.858 139.665 101.252 139.765C98.358 139.946 97.3105 141.698 95.7456 141.976C93.6769 142.343 94.6449 142.452 93.7517 142.54C92.8086 142.633 92.3773 141.128 92.3258 140.945C92.2364 140.629 92.7165 139.34 94.4713 139.471C96.2261 139.603 99.4495 138.465 101.252 138.465C102.302 138.465 105.051 138.179 107.051 137.381C110.051 136.679 111.863 137.204 113.051 137.679Z" fill="#804D24"/>
</g>
<path d="M178.051 131.179C179.551 132.893 177.051 133.179 172.051 134.679C168.263 135.642 163.031 137 159.051 138.465C150.072 141.767 141.051 143.179 136.051 144.679C129.051 147.179 105.051 153.679 97.5507 155.679C95.5307 155.962 98.3732 152.247 98.5506 151.679C98.4445 151.11 104.051 152.179 106.051 151.679C109.551 150.679 111.281 150.174 118.051 148.465C125.768 146.516 133.777 142.409 137.551 141.965C139.753 141.78 155.051 138.116 159.551 136.465C168.297 133.256 173.051 133.179 178.051 131.179Z" fill="#72421B"/>
<ellipse cx="92.1102" cy="146.892" rx="10.4013" ry="6.55128" transform="rotate(57.5403 92.1102 146.892)" fill="#FAB06C"/>
<path d="M97.6122 155.541C96.1446 156.475 94.1964 156.387 92.2131 155.448C90.2319 154.51 88.2378 152.731 86.709 150.327C85.1803 147.924 84.4139 145.363 84.4041 143.171C84.3944 140.977 85.1407 139.175 86.6083 138.242C88.0758 137.308 90.024 137.396 92.0074 138.335C93.9886 139.273 95.9827 141.053 97.5114 143.456C99.0402 145.859 99.8066 148.42 99.8163 150.612C99.8261 152.806 99.0797 154.608 97.6122 155.541Z" stroke="#E89A5C" stroke-opacity="0.8" stroke-width="0.3"/>
<path d="M96.3856 153.925C93.5507 155.179 89.9448 152.943 87.5507 149.179C85.1565 145.415 85.6965 140.87 87.7206 139.583C89.7448 138.295 93.9915 140.573 96.3856 144.337C98.7798 148.101 99.2206 152.671 96.3856 153.925Z" fill="#ED8947"/>
<g filter="url(#filter38_d)">
<path d="M95.5506 152.179C94.0231 153.15 90.854 151.982 89.0712 149.179C87.2884 146.376 87.0231 142.65 88.5507 141.679C90.0782 140.707 93.2678 142.376 95.0506 145.179C96.8334 147.982 97.0782 151.207 95.5506 152.179Z" fill="#C06A32"/>
</g>
<path d="M93.9986 150.244C93.0701 150.835 91.5608 150.279 90.4466 148.527C89.3323 146.776 89.5701 144.769 90.4986 144.179C91.4271 143.588 92.6716 144.338 93.7859 146.09C94.9001 147.841 94.9271 149.653 93.9986 150.244Z" fill="#8E4E24"/>
<g filter="url(#filter39_d)">
<path d="M149.624 129.854C145.799 130.015 145.241 129.86 138.767 133.042C132.293 136.224 129.009 135.576 123.397 137.159C123.115 136.586 131.953 135.532 138.427 132.35C144.901 129.168 149.342 129.28 149.624 129.854Z" fill="#DCA172"/>
</g>
<g filter="url(#filter40_d)">
<path d="M156.351 131.649C153.889 135.203 151.525 137.254 143.325 139.44C135.125 141.626 131.789 142.756 125.131 143.936C129.458 141.827 139.204 140.507 142.385 138.969C149.541 137.724 154.234 133.7 156.351 131.649Z" fill="#704323"/>
</g>
<path d="M179.551 124.179C181.551 130.679 178.551 133.179 177.051 133.179C170.551 133.679 173.551 134.179 175.051 130.179C175.551 127.679 173.051 127.179 163.051 128.969C161.213 129.374 159.051 130.179 156.051 130.179C159.551 127.679 166.551 127.179 170.051 126.179C173.551 124.179 175.278 124.317 174.551 120.679C174.051 118.679 170.175 118.245 171.551 117.679C175.196 116.179 178.551 120.679 179.551 124.179Z" fill="#72421B"/>
<g filter="url(#filter41_d)">
<path d="M131.31 129.435C128.7 130.734 124.503 132.268 122 132.753C119.496 132.95 116.097 134.519 113.526 135.319C114.064 134.86 118.829 132.746 121.071 132.072C123.104 131.731 128.739 130.235 131.31 129.435Z" fill="#653D1D"/>
</g>
<g filter="url(#filter42_i)">
<path d="M111.051 141.679C112.201 143.979 113.317 146.302 113.551 148.179C114.031 152.031 113.044 152.47 112.051 152.679C111.201 152.858 111.551 150.679 111.051 147.179C110.706 145.662 110.332 144.029 109.051 141.679C106.051 136.179 98.0506 133.679 99.5506 134.179C100.556 133.844 103.462 134.319 106.551 136.679C108.068 137.838 110.051 139.679 111.051 141.679Z" fill="#766767"/>
</g>
<path d="M111.199 147.158L111.2 147.158L111.197 147.146C110.852 145.624 110.474 143.975 109.182 141.607C107.662 138.82 104.883 136.803 102.688 135.549C101.604 134.929 100.658 134.493 100.066 134.24C100.228 134.229 100.415 134.23 100.623 134.246C101.073 134.279 101.616 134.378 102.227 134.562C103.447 134.928 104.929 135.629 106.46 136.798C107.971 137.953 109.932 139.777 110.916 141.746C112.07 144.052 113.172 146.351 113.402 148.197C113.641 150.118 113.509 151.152 113.219 151.727C112.94 152.282 112.503 152.43 112.02 152.532C111.945 152.548 111.901 152.535 111.869 152.513C111.831 152.487 111.787 152.434 111.746 152.331C111.661 152.121 111.61 151.778 111.569 151.296C111.547 151.035 111.528 150.738 111.507 150.407C111.451 149.535 111.381 148.431 111.199 147.158Z" stroke="#564747" stroke-width="0.3"/>
<g filter="url(#filter43_i)">
<path d="M165.551 126.276C166.626 128.539 167.461 130.768 167.551 132.679C167.735 136.601 167.661 137.022 166.532 137.328C165.567 137.59 166.156 135.315 165.917 131.757C165.67 130.226 165.402 128.579 164.184 126.276C161.334 120.887 152.349 119.823 154.051 119.179C155.205 118.742 157.815 119.031 161.051 121.179C162.641 122.234 164.616 124.308 165.551 126.276Z" fill="#766767"/>
</g>
<path d="M154.051 119.179L154.051 119.179L154.051 119.179ZM154.051 119.179L154.051 119.179M154.051 119.179L154.051 119.179M154.051 119.179L154.051 119.179L154.051 119.179ZM166.067 131.747L166.067 131.746L166.065 131.733C165.818 130.197 165.546 128.531 164.317 126.206C162.865 123.462 159.862 121.832 157.469 120.81C156.869 120.554 156.305 120.335 155.811 120.146C155.728 120.115 155.646 120.084 155.567 120.053C155.177 119.905 154.84 119.777 154.574 119.664C154.414 119.596 154.282 119.535 154.182 119.48C154.094 119.431 154.038 119.392 154.008 119.364C154.026 119.352 154.056 119.337 154.104 119.319L154.104 119.319C154.642 119.115 155.55 119.073 156.735 119.355C157.917 119.637 159.362 120.238 160.968 121.304C162.539 122.347 164.494 124.401 165.415 126.34C166.489 128.601 167.312 130.807 167.401 132.686C167.447 133.667 167.477 134.425 167.478 135.017C167.48 135.611 167.452 136.028 167.387 136.328C167.323 136.625 167.226 136.796 167.094 136.912C166.959 137.032 166.771 137.108 166.493 137.184C166.396 137.21 166.344 137.198 166.313 137.18C166.279 137.16 166.239 137.116 166.203 137.017C166.129 136.814 166.104 136.469 166.102 135.974C166.101 135.708 166.107 135.404 166.114 135.066C166.131 134.172 166.154 133.041 166.067 131.747Z" stroke="#564747" stroke-width="0.3"/>
<g filter="url(#filter44_i)">
<path d="M164.051 127.179C165.126 129.442 165.715 131.486 165.805 133.397C165.99 137.319 166.18 137.373 165.051 137.679C164.085 137.94 164.79 137.737 164.551 134.179C164.304 132.648 163.656 129.297 162.438 126.994C159.588 121.605 150.849 120.323 152.551 119.679C153.705 119.242 156.069 119.749 159.305 121.897C160.895 122.952 163.116 125.211 164.051 127.179Z" fill="#766767"/>
</g>
<path d="M164.7 134.169L164.701 134.169L164.699 134.155C164.452 132.624 163.801 129.251 162.571 126.924C161.121 124.182 158.182 122.497 155.85 121.421C155.266 121.151 154.717 120.919 154.238 120.717C154.191 120.698 154.145 120.678 154.1 120.659C153.679 120.482 153.319 120.332 153.041 120.2C152.887 120.127 152.761 120.062 152.665 120.003C152.573 119.947 152.52 119.903 152.495 119.873C152.497 119.871 152.5 119.869 152.503 119.867C152.524 119.853 152.557 119.837 152.604 119.819L152.604 119.819C153.136 119.618 153.978 119.626 155.104 119.962C156.226 120.298 157.613 120.954 159.222 122.022C160.005 122.542 160.949 123.362 161.813 124.297C162.678 125.234 163.457 126.278 163.915 127.243C164.985 129.494 165.566 131.519 165.655 133.404C165.678 133.895 165.701 134.325 165.722 134.703C165.725 134.749 165.727 134.794 165.73 134.839C165.747 135.159 165.762 135.439 165.774 135.685C165.8 136.248 165.805 136.619 165.772 136.875C165.739 137.125 165.673 137.239 165.578 137.315C165.468 137.401 165.301 137.456 165.011 137.534C164.888 137.567 164.802 137.591 164.737 137.602C164.71 137.606 164.692 137.608 164.681 137.608C164.68 137.606 164.68 137.603 164.679 137.6C164.672 137.557 164.672 137.486 164.678 137.37C164.682 137.298 164.688 137.214 164.695 137.118C164.734 136.594 164.802 135.68 164.7 134.169ZM164.686 137.626C164.686 137.626 164.685 137.625 164.685 137.625L164.686 137.626Z" stroke="#564747" stroke-width="0.3"/>
<g filter="url(#filter45_i)">
<path d="M113.051 141.112C114.201 143.412 115.317 145.735 115.551 147.612C116.551 151.612 115.044 151.97 114.051 152.179C113.201 152.358 113.551 150.112 113.051 146.612C112.706 145.095 112.466 144.194 111.551 141.679C109.551 136.179 102.551 134.179 101.551 133.679C102.556 133.344 105.462 133.319 108.551 135.679C110.051 137.179 112.051 139.112 113.051 141.112Z" fill="#766767"/>
</g>
<path d="M115.402 147.63L115.403 147.639L115.405 147.648C115.903 149.639 115.763 150.677 115.42 151.239C115.081 151.793 114.52 151.927 114.02 152.032C113.947 152.047 113.903 152.035 113.871 152.012C113.832 151.985 113.788 151.929 113.746 151.822C113.661 151.605 113.61 151.253 113.569 150.762C113.547 150.499 113.528 150.2 113.508 149.869C113.452 148.984 113.382 147.868 113.199 146.591L113.2 146.591L113.197 146.579C112.851 145.055 112.608 144.148 111.692 141.628C110.674 138.83 108.39 136.932 106.252 135.675C105.181 135.045 104.143 134.573 103.311 134.228C102.922 134.066 102.577 133.932 102.296 133.823C102.277 133.815 102.258 133.808 102.24 133.801C102.166 133.772 102.097 133.745 102.034 133.72C103.256 133.53 105.777 133.751 108.452 135.792C108.535 135.875 108.62 135.96 108.706 136.046C110.174 137.51 111.986 139.318 112.917 141.179C114.07 143.485 115.172 145.784 115.402 147.63Z" stroke="#564747" stroke-width="0.3"/>
<g filter="url(#filter46_i)">
<path d="M115.051 140.612C116.201 142.912 116.317 144.703 116.551 146.58C116.551 151.08 117.044 151.47 116.051 151.679C115.201 151.858 115.551 149.612 115.051 146.112C114.706 144.595 115.035 143.406 113.551 141.179C111.551 138.179 108.544 135.179 106.551 134.179C106.203 134.004 102.787 133.372 103.051 133.179C103.868 132.581 106.962 132.319 110.051 134.679C111.551 136.179 114.051 138.612 115.051 140.612Z" fill="#766767"/>
</g>
<path d="M115.199 146.091L115.2 146.091L115.197 146.079C115.108 145.685 115.065 145.307 115.022 144.92C114.903 143.865 114.777 142.748 113.675 141.096C112.67 139.587 111.411 138.079 110.154 136.823C108.899 135.568 107.636 134.555 106.618 134.045C106.559 134.015 106.452 133.982 106.329 133.949C106.2 133.914 106.038 133.874 105.855 133.83C105.668 133.786 105.455 133.737 105.234 133.686C105.027 133.638 104.812 133.588 104.606 133.54C104.173 133.438 103.765 133.336 103.482 133.249C103.419 133.229 103.365 133.211 103.319 133.195C103.503 133.106 103.759 133.028 104.078 132.977C104.516 132.908 105.062 132.893 105.681 132.968C106.914 133.12 108.432 133.633 109.952 134.792C110.035 134.876 110.122 134.962 110.211 135.051C110.923 135.761 111.799 136.635 112.627 137.558C113.562 138.602 114.426 139.698 114.917 140.679C115.94 142.726 116.134 144.36 116.334 146.04C116.356 146.222 116.378 146.405 116.401 146.589C116.401 147.713 116.432 148.58 116.462 149.252C116.471 149.445 116.48 149.622 116.488 149.783C116.508 150.187 116.523 150.496 116.523 150.738C116.523 151.083 116.488 151.248 116.424 151.342C116.366 151.426 116.264 151.481 116.02 151.532C115.947 151.547 115.903 151.535 115.871 151.512C115.832 151.485 115.788 151.429 115.746 151.322C115.661 151.105 115.61 150.753 115.569 150.262C115.547 149.999 115.528 149.7 115.508 149.369C115.452 148.484 115.382 147.368 115.199 146.091Z" stroke="#564747" stroke-width="0.3"/>
<g filter="url(#filter47_i)">
<path d="M166.801 124.926C167.951 127.225 169.067 129.549 169.301 131.426C169.781 135.277 169.943 136.179 167.943 136.679C165.943 137.179 168.443 136.679 167.943 133.179C167.599 131.662 166.477 128.19 165.551 125.679C163.8 120.932 154.551 118.179 156.051 118.679C157.056 118.344 159.213 117.566 162.301 119.926C163.819 121.085 165.801 122.926 166.801 124.926Z" fill="#766767"/>
</g>
<path d="M168.092 133.158L168.092 133.158L168.09 133.146C167.743 131.619 166.618 128.14 165.691 125.627C165.241 124.406 164.313 123.324 163.214 122.397C162.112 121.47 160.829 120.691 159.651 120.078C158.473 119.465 157.397 119.017 156.71 118.754C156.644 118.729 156.582 118.705 156.523 118.683C156.999 118.54 157.621 118.399 158.387 118.441C159.404 118.498 160.687 118.881 162.21 120.045C163.722 121.2 165.682 123.024 166.667 124.993C167.82 127.299 168.922 129.598 169.152 131.444C169.164 131.535 169.175 131.623 169.185 131.71C169.291 132.553 169.377 133.242 169.423 133.813C169.474 134.445 169.476 134.917 169.405 135.281C169.336 135.638 169.198 135.885 168.971 136.073C168.738 136.267 168.399 136.41 167.907 136.533C167.836 136.551 167.771 136.568 167.711 136.583C167.589 136.613 167.491 136.638 167.412 136.657C167.441 136.613 167.473 136.564 167.508 136.508C167.835 135.985 168.348 134.95 168.092 133.158Z" stroke="#564747" stroke-width="0.3"/>
<path d="M108 30.3417C110.441 28.8212 111.236 27.2376 112 28C112 29 112 30 109.294 31.8665C107.329 33.5347 105.794 33.5 104.794 32.5C104.294 31.0454 106.035 32.0099 108 30.3417Z" fill="#677B5A" fill-opacity="0.9"/>
<path d="M109.018 30.3203C111.135 31.8779 111.741 31.054 112 33C111.5 34 109.95 33.4888 107.833 31.9312C105.716 30.3736 104.5 28.5 105 28C105.907 27.1945 106.901 28.7627 109.018 30.3203Z" fill="#677B5A" fill-opacity="0.9"/>
<path d="M154.745 30.3055C154.5 32 156.828 33.0151 155.246 33.0151C154.247 33.0151 153.745 31.9624 153.745 30.3055C153.745 28.6487 154.245 28.0151 155.246 28.0151C155.746 28.0151 154.745 28.6487 154.745 30.3055Z" fill="#677B5A" fill-opacity="0.8"/>
<path d="M153.792 30.2734C153.547 31.9678 155.582 33 154 33C153.001 33 152.792 31.9302 152.792 30.2734C152.792 28.6165 152.999 28 154 28C155 28 153.792 28.6165 153.792 30.2734Z" fill="#677B5A" fill-opacity="0.8"/>
<path d="M154.155 98.6227C153.429 100.178 155.3 101.786 153.625 101.307C152.567 101.005 152.64 99.9128 153.096 98.3198C153.551 96.7268 153.94 96.1967 155 96.5C156.059 96.8029 154.61 97.0297 154.155 98.6227Z" fill="#677B5A" fill-opacity="0.8"/>
<path d="M153.059 98.2915C152.334 99.8465 153.559 101.779 152 101C151 100.5 151.5 100 152 98C152.5 96.5 152.5 96 153.5 96C154.601 96 153.514 96.6985 153.059 98.2915Z" fill="#677B5A" fill-opacity="0.8"/>
<path d="M70.0001 30.5C70.0001 31.6046 70 32.5 69 32.5C68.2929 32.5 69 31.6046 69 30.5C69 29.3954 68.5 29 69.0001 29C70 29 70.0001 29.3954 70.0001 30.5Z" fill="#677B5A" fill-opacity="0.8"/>
<path d="M71.0001 30.5C71.0001 31.6046 71 32.5 70 32.5C69.2929 32.5 70 31.6046 70 30.5C70 29.3954 69.5 29 70.0001 29C71 29 71.0001 29.3954 71.0001 30.5Z" fill="#677B5A" fill-opacity="0.8"/>
<path d="M71.3143 79C71.3143 80.1046 70.8944 80.9472 70 80.5C69 80 70.3143 80.1046 70.3143 79C70.3143 77.8954 69.5 77.5 70 77.5C70.9999 77.5 71.3143 77.8954 71.3143 79Z" fill="#677B5A" fill-opacity="0.8"/>
<path d="M72.1879 79.1719C72.1879 80.2765 71.7679 81.1191 70.8735 80.6719C69.8735 80.1719 71.1878 80.2765 71.1878 79.1719C71.1878 78.0673 70.3736 77.6719 70.8735 77.6719C71.8735 77.6719 72.1879 78.0673 72.1879 79.1719Z" fill="#677B5A" fill-opacity="0.8"/>
<path d="M71 31.5C96.076 39.262 114.311 38.9497 153 31.5C139.511 59.7818 139.871 74.5914 152 99.5C110.5 96 86 92 73 80.5C63.0144 65.1942 63.0767 53.661 71 31.5Z" fill="#C5B9A8"/>
<path d="M80 39C95.9999 49.5 134.381 42.3513 136.038 45.352C137.695 48.3528 137.695 52.2925 136.038 55.2925C134.699 57.7155 87.7282 65.7321 74.9999 48.0001C71.7265 43.4398 64.0001 28.5 80 39Z" fill="#DCD2C3"/>
<path d="M83.7904 65.2925C98.4197 70.7925 105.643 72.2076 112.467 74C119.29 75.7925 136.124 86.5 134.467 89.5C133.128 91.9231 83.5187 87.5245 70.7904 69.7924C67.517 65.2322 69.1611 59.7925 83.7904 65.2925Z" fill="#DCD2C3"/>
<path d="M126.934 72.936C125.673 76.2971 113.961 78.1742 100 72.936C82 66.1826 65.5 49.3265 70.5 36C71.761 32.6389 89.9764 52.1275 103.938 57.3657C117.899 62.6039 128.195 69.5749 126.934 72.936Z" fill="#DCD2C3"/>
<path d="M86.3955 45.6393C83.3042 45.2876 83.6261 45.4645 81.5592 44.9566C79.4923 44.4486 78.0975 43.7729 76.7682 42.9118C78.6129 42.8832 78.5992 43.6498 81.5763 44.1161C83.6432 44.6241 84.8541 45.2534 86.3955 45.6393Z" fill="#ABA090"/>
<path d="M91.8525 48.6098C87.8237 48.4709 88.262 48.6514 85.532 48.2357C82.8021 47.8201 80.9155 47.1458 79.0887 46.2462C81.461 46.0468 81.5454 46.9551 85.4422 47.2398C88.1722 47.6554 89.8157 48.2914 91.8525 48.6098Z" fill="#ABA090"/>
<path d="M125.627 83.1775C121.598 83.0387 118.943 82.2232 116.213 81.8075C113.483 81.3919 112.04 80.5288 110.213 79.6292C112.585 79.4299 115.816 81.3446 119.713 81.6292C122.443 82.0449 123.59 82.8591 125.627 83.1775Z" fill="#ABA090"/>
<path d="M130.414 86.3805C128.5 87 126.823 86.4221 124.093 86.0064C121.363 85.5908 119.35 85.1475 117.5 83.8322C119.872 83.6328 120.107 84.7258 124.004 85.0105C126.734 85.4261 126.5 85.5 130.414 86.3805Z" fill="#ABA090"/>
<defs>
<filter id="filter0_d" x="16.5011" y="59.6788" width="121.55" height="92.3201" filterUnits="userSpaceOnUse" color-interpolation-filters="sRGB">
<feFlood flood-opacity="0" result="BackgroundImageFix"/>
<feColorMatrix in="SourceAlpha" type="matrix" values="0 0 0 0 0 0 0 0 0 0 0 0 0 0 0 0 0 0 127 0"/>
<feOffset dy="4"/>
<feGaussianBlur stdDeviation="20"/>
<feColorMatrix type="matrix" values="0 0 0 0 0 0 0 0 0 0 0 0 0 0 0 0 0 0 0.25 0"/>
<feBlend mode="normal" in2="BackgroundImageFix" result="effect1_dropShadow"/>
<feBlend mode="normal" in="SourceGraphic" in2="effect1_dropShadow" result="shape"/>
</filter>
<filter id="filter1_d" x="15.3156" y="60.04" width="100.735" height="85.5041" filterUnits="userSpaceOnUse" color-interpolation-filters="sRGB">
<feFlood flood-opacity="0" result="BackgroundImageFix"/>
<feColorMatrix in="SourceAlpha" type="matrix" values="0 0 0 0 0 0 0 0 0 0 0 0 0 0 0 0 0 0 127 0"/>
<feOffset dy="4"/>
<feGaussianBlur stdDeviation="20"/>
<feColorMatrix type="matrix" values="0 0 0 0 0 0 0 0 0 0 0 0 0 0 0 0 0 0 0.25 0"/>
<feBlend mode="normal" in2="BackgroundImageFix" result="effect1_dropShadow"/>
<feBlend mode="normal" in="SourceGraphic" in2="effect1_dropShadow" result="shape"/>
</filter>
<filter id="filter2_d" x="0.552124" y="54.4004" width="109.006" height="111.115" filterUnits="userSpaceOnUse" color-interpolation-filters="sRGB">
<feFlood flood-opacity="0" result="BackgroundImageFix"/>
<feColorMatrix in="SourceAlpha" type="matrix" values="0 0 0 0 0 0 0 0 0 0 0 0 0 0 0 0 0 0 127 0"/>
<feOffset dy="4"/>
<feGaussianBlur stdDeviation="25"/>
<feColorMatrix type="matrix" values="0 0 0 0 0 0 0 0 0 0 0 0 0 0 0 0 0 0 0.25 0"/>
<feBlend mode="normal" in2="BackgroundImageFix" result="effect1_dropShadow"/>
<feBlend mode="normal" in="SourceGraphic" in2="effect1_dropShadow" result="shape"/>
</filter>
<filter id="filter3_d" x="75.3907" y="85.5377" width="34.2335" height="15.6215" filterUnits="userSpaceOnUse" color-interpolation-filters="sRGB">
<feFlood flood-opacity="0" result="BackgroundImageFix"/>
<feColorMatrix in="SourceAlpha" type="matrix" values="0 0 0 0 0 0 0 0 0 0 0 0 0 0 0 0 0 0 127 0"/>
<feOffset dy="4"/>
<feGaussianBlur stdDeviation="2"/>
<feColorMatrix type="matrix" values="0 0 0 0 0 0 0 0 0 0 0 0 0 0 0 0 0 0 0.25 0"/>
<feBlend mode="normal" in2="BackgroundImageFix" result="effect1_dropShadow"/>
<feBlend mode="normal" in="SourceGraphic" in2="effect1_dropShadow" result="shape"/>
</filter>
<filter id="filter4_d" x="87.1307" y="90.4433" width="40.3693" height="14.4927" filterUnits="userSpaceOnUse" color-interpolation-filters="sRGB">
<feFlood flood-opacity="0" result="BackgroundImageFix"/>
<feColorMatrix in="SourceAlpha" type="matrix" values="0 0 0 0 0 0 0 0 0 0 0 0 0 0 0 0 0 0 127 0"/>
<feOffset dy="4"/>
<feGaussianBlur stdDeviation="2"/>
<feColorMatrix type="matrix" values="0 0 0 0 0 0 0 0 0 0 0 0 0 0 0 0 0 0 0.25 0"/>
<feBlend mode="normal" in2="BackgroundImageFix" result="effect1_dropShadow"/>
<feBlend mode="normal" in="SourceGraphic" in2="effect1_dropShadow" result="shape"/>
</filter>
<filter id="filter5_i" x="62.3651" y="93.0828" width="14.3106" height="22.6063" filterUnits="userSpaceOnUse" color-interpolation-filters="sRGB">
<feFlood flood-opacity="0" result="BackgroundImageFix"/>
<feBlend mode="normal" in="SourceGraphic" in2="BackgroundImageFix" result="shape"/>
<feColorMatrix in="SourceAlpha" type="matrix" values="0 0 0 0 0 0 0 0 0 0 0 0 0 0 0 0 0 0 127 0" result="hardAlpha"/>
<feOffset dy="4"/>
<feGaussianBlur stdDeviation="2"/>
<feComposite in2="hardAlpha" operator="arithmetic" k2="-1" k3="1"/>
<feColorMatrix type="matrix" values="0 0 0 0 0 0 0 0 0 0 0 0 0 0 0 0 0 0 0.25 0"/>
<feBlend mode="normal" in2="shape" result="effect1_innerShadow"/>
</filter>
<filter id="filter6_i" x="116.838" y="78.0049" width="13.7902" height="22.3439" filterUnits="userSpaceOnUse" color-interpolation-filters="sRGB">
<feFlood flood-opacity="0" result="BackgroundImageFix"/>
<feBlend mode="normal" in="SourceGraphic" in2="BackgroundImageFix" result="shape"/>
<feColorMatrix in="SourceAlpha" type="matrix" values="0 0 0 0 0 0 0 0 0 0 0 0 0 0 0 0 0 0 127 0" result="hardAlpha"/>
<feOffset dy="4"/>
<feGaussianBlur stdDeviation="2"/>
<feComposite in2="hardAlpha" operator="arithmetic" k2="-1" k3="1"/>
<feColorMatrix type="matrix" values="0 0 0 0 0 0 0 0 0 0 0 0 0 0 0 0 0 0 0.25 0"/>
<feBlend mode="normal" in2="shape" result="effect1_innerShadow"/>
</filter>
<filter id="filter7_i" x="115.333" y="78.5348" width="13.6123" height="22.2233" filterUnits="userSpaceOnUse" color-interpolation-filters="sRGB">
<feFlood flood-opacity="0" result="BackgroundImageFix"/>
<feBlend mode="normal" in="SourceGraphic" in2="BackgroundImageFix" result="shape"/>
<feColorMatrix in="SourceAlpha" type="matrix" values="0 0 0 0 0 0 0 0 0 0 0 0 0 0 0 0 0 0 127 0" result="hardAlpha"/>
<feOffset dy="4"/>
<feGaussianBlur stdDeviation="2"/>
<feComposite in2="hardAlpha" operator="arithmetic" k2="-1" k3="1"/>
<feColorMatrix type="matrix" values="0 0 0 0 0 0 0 0 0 0 0 0 0 0 0 0 0 0 0.25 0"/>
<feBlend mode="normal" in2="shape" result="effect1_innerShadow"/>
</filter>
<filter id="filter8_i" x="64.5507" y="92.5157" width="14.329" height="22.673" filterUnits="userSpaceOnUse" color-interpolation-filters="sRGB">
<feFlood flood-opacity="0" result="BackgroundImageFix"/>
<feBlend mode="normal" in="SourceGraphic" in2="BackgroundImageFix" result="shape"/>
<feColorMatrix in="SourceAlpha" type="matrix" values="0 0 0 0 0 0 0 0 0 0 0 0 0 0 0 0 0 0 127 0" result="hardAlpha"/>
<feOffset dy="4"/>
<feGaussianBlur stdDeviation="2"/>
<feComposite in2="hardAlpha" operator="arithmetic" k2="-1" k3="1"/>
<feColorMatrix type="matrix" values="0 0 0 0 0 0 0 0 0 0 0 0 0 0 0 0 0 0 0.25 0"/>
<feBlend mode="normal" in2="shape" result="effect1_innerShadow"/>
</filter>
<filter id="filter9_i" x="66.0362" y="91.768" width="13.6369" height="22.9208" filterUnits="userSpaceOnUse" color-interpolation-filters="sRGB">
<feFlood flood-opacity="0" result="BackgroundImageFix"/>
<feBlend mode="normal" in="SourceGraphic" in2="BackgroundImageFix" result="shape"/>
<feColorMatrix in="SourceAlpha" type="matrix" values="0 0 0 0 0 0 0 0 0 0 0 0 0 0 0 0 0 0 127 0" result="hardAlpha"/>
<feOffset dy="4"/>
<feGaussianBlur stdDeviation="2"/>
<feComposite in2="hardAlpha" operator="arithmetic" k2="-1" k3="1"/>
<feColorMatrix type="matrix" values="0 0 0 0 0 0 0 0 0 0 0 0 0 0 0 0 0 0 0.25 0"/>
<feBlend mode="normal" in2="shape" result="effect1_innerShadow"/>
</filter>
<filter id="filter10_i" x="118.887" y="77.2836" width="13.7232" height="22.5595" filterUnits="userSpaceOnUse" color-interpolation-filters="sRGB">
<feFlood flood-opacity="0" result="BackgroundImageFix"/>
<feBlend mode="normal" in="SourceGraphic" in2="BackgroundImageFix" result="shape"/>
<feColorMatrix in="SourceAlpha" type="matrix" values="0 0 0 0 0 0 0 0 0 0 0 0 0 0 0 0 0 0 127 0" result="hardAlpha"/>
<feOffset dy="4"/>
<feGaussianBlur stdDeviation="2"/>
<feComposite in2="hardAlpha" operator="arithmetic" k2="-1" k3="1"/>
<feColorMatrix type="matrix" values="0 0 0 0 0 0 0 0 0 0 0 0 0 0 0 0 0 0 0.25 0"/>
<feBlend mode="normal" in2="shape" result="effect1_innerShadow"/>
</filter>
<filter id="filter11_d" x="28.5011" y="73.6788" width="121.55" height="92.3201" filterUnits="userSpaceOnUse" color-interpolation-filters="sRGB">
<feFlood flood-opacity="0" result="BackgroundImageFix"/>
<feColorMatrix in="SourceAlpha" type="matrix" values="0 0 0 0 0 0 0 0 0 0 0 0 0 0 0 0 0 0 127 0"/>
<feOffset dy="4"/>
<feGaussianBlur stdDeviation="20"/>
<feColorMatrix type="matrix" values="0 0 0 0 0 0 0 0 0 0 0 0 0 0 0 0 0 0 0.25 0"/>
<feBlend mode="normal" in2="BackgroundImageFix" result="effect1_dropShadow"/>
<feBlend mode="normal" in="SourceGraphic" in2="effect1_dropShadow" result="shape"/>
</filter>
<filter id="filter12_d" x="27.3156" y="74.04" width="100.735" height="85.5041" filterUnits="userSpaceOnUse" color-interpolation-filters="sRGB">
<feFlood flood-opacity="0" result="BackgroundImageFix"/>
<feColorMatrix in="SourceAlpha" type="matrix" values="0 0 0 0 0 0 0 0 0 0 0 0 0 0 0 0 0 0 127 0"/>
<feOffset dy="4"/>
<feGaussianBlur stdDeviation="20"/>
<feColorMatrix type="matrix" values="0 0 0 0 0 0 0 0 0 0 0 0 0 0 0 0 0 0 0.25 0"/>
<feBlend mode="normal" in2="BackgroundImageFix" result="effect1_dropShadow"/>
<feBlend mode="normal" in="SourceGraphic" in2="effect1_dropShadow" result="shape"/>
</filter>
<filter id="filter13_d" x="12.5521" y="68.4004" width="109.006" height="111.115" filterUnits="userSpaceOnUse" color-interpolation-filters="sRGB">
<feFlood flood-opacity="0" result="BackgroundImageFix"/>
<feColorMatrix in="SourceAlpha" type="matrix" values="0 0 0 0 0 0 0 0 0 0 0 0 0 0 0 0 0 0 127 0"/>
<feOffset dy="4"/>
<feGaussianBlur stdDeviation="25"/>
<feColorMatrix type="matrix" values="0 0 0 0 0 0 0 0 0 0 0 0 0 0 0 0 0 0 0.25 0"/>
<feBlend mode="normal" in2="BackgroundImageFix" result="effect1_dropShadow"/>
<feBlend mode="normal" in="SourceGraphic" in2="effect1_dropShadow" result="shape"/>
</filter>
<filter id="filter14_d" x="100.391" y="101.538" width="34.2335" height="15.6215" filterUnits="userSpaceOnUse" color-interpolation-filters="sRGB">
<feFlood flood-opacity="0" result="BackgroundImageFix"/>
<feColorMatrix in="SourceAlpha" type="matrix" values="0 0 0 0 0 0 0 0 0 0 0 0 0 0 0 0 0 0 127 0"/>
<feOffset dy="4"/>
<feGaussianBlur stdDeviation="2"/>
<feColorMatrix type="matrix" values="0 0 0 0 0 0 0 0 0 0 0 0 0 0 0 0 0 0 0.25 0"/>
<feBlend mode="normal" in2="BackgroundImageFix" result="effect1_dropShadow"/>
<feBlend mode="normal" in="SourceGraphic" in2="effect1_dropShadow" result="shape"/>
</filter>
<filter id="filter15_d" x="96.1307" y="104.649" width="39.2203" height="20.2875" filterUnits="userSpaceOnUse" color-interpolation-filters="sRGB">
<feFlood flood-opacity="0" result="BackgroundImageFix"/>
<feColorMatrix in="SourceAlpha" type="matrix" values="0 0 0 0 0 0 0 0 0 0 0 0 0 0 0 0 0 0 127 0"/>
<feOffset dy="4"/>
<feGaussianBlur stdDeviation="2"/>
<feColorMatrix type="matrix" values="0 0 0 0 0 0 0 0 0 0 0 0 0 0 0 0 0 0 0.25 0"/>
<feBlend mode="normal" in2="BackgroundImageFix" result="effect1_dropShadow"/>
<feBlend mode="normal" in="SourceGraphic" in2="effect1_dropShadow" result="shape"/>
</filter>
<filter id="filter16_d" x="84.5261" y="102.435" width="25.7843" height="13.8838" filterUnits="userSpaceOnUse" color-interpolation-filters="sRGB">
<feFlood flood-opacity="0" result="BackgroundImageFix"/>
<feColorMatrix in="SourceAlpha" type="matrix" values="0 0 0 0 0 0 0 0 0 0 0 0 0 0 0 0 0 0 127 0"/>
<feOffset dy="4"/>
<feGaussianBlur stdDeviation="2"/>
<feColorMatrix type="matrix" values="0 0 0 0 0 0 0 0 0 0 0 0 0 0 0 0 0 0 0.25 0"/>
<feBlend mode="normal" in2="BackgroundImageFix" result="effect1_dropShadow"/>
<feBlend mode="normal" in="SourceGraphic" in2="effect1_dropShadow" result="shape"/>
</filter>
<filter id="filter17_i" x="74.3651" y="107.083" width="14.3106" height="22.6063" filterUnits="userSpaceOnUse" color-interpolation-filters="sRGB">
<feFlood flood-opacity="0" result="BackgroundImageFix"/>
<feBlend mode="normal" in="SourceGraphic" in2="BackgroundImageFix" result="shape"/>
<feColorMatrix in="SourceAlpha" type="matrix" values="0 0 0 0 0 0 0 0 0 0 0 0 0 0 0 0 0 0 127 0" result="hardAlpha"/>
<feOffset dy="4"/>
<feGaussianBlur stdDeviation="2"/>
<feComposite in2="hardAlpha" operator="arithmetic" k2="-1" k3="1"/>
<feColorMatrix type="matrix" values="0 0 0 0 0 0 0 0 0 0 0 0 0 0 0 0 0 0 0.25 0"/>
<feBlend mode="normal" in2="shape" result="effect1_innerShadow"/>
</filter>
<filter id="filter18_i" x="128.838" y="92.0049" width="13.7902" height="22.3439" filterUnits="userSpaceOnUse" color-interpolation-filters="sRGB">
<feFlood flood-opacity="0" result="BackgroundImageFix"/>
<feBlend mode="normal" in="SourceGraphic" in2="BackgroundImageFix" result="shape"/>
<feColorMatrix in="SourceAlpha" type="matrix" values="0 0 0 0 0 0 0 0 0 0 0 0 0 0 0 0 0 0 127 0" result="hardAlpha"/>
<feOffset dy="4"/>
<feGaussianBlur stdDeviation="2"/>
<feComposite in2="hardAlpha" operator="arithmetic" k2="-1" k3="1"/>
<feColorMatrix type="matrix" values="0 0 0 0 0 0 0 0 0 0 0 0 0 0 0 0 0 0 0.25 0"/>
<feBlend mode="normal" in2="shape" result="effect1_innerShadow"/>
</filter>
<filter id="filter19_i" x="127.333" y="92.5348" width="13.6123" height="22.2233" filterUnits="userSpaceOnUse" color-interpolation-filters="sRGB">
<feFlood flood-opacity="0" result="BackgroundImageFix"/>
<feBlend mode="normal" in="SourceGraphic" in2="BackgroundImageFix" result="shape"/>
<feColorMatrix in="SourceAlpha" type="matrix" values="0 0 0 0 0 0 0 0 0 0 0 0 0 0 0 0 0 0 127 0" result="hardAlpha"/>
<feOffset dy="4"/>
<feGaussianBlur stdDeviation="2"/>
<feComposite in2="hardAlpha" operator="arithmetic" k2="-1" k3="1"/>
<feColorMatrix type="matrix" values="0 0 0 0 0 0 0 0 0 0 0 0 0 0 0 0 0 0 0.25 0"/>
<feBlend mode="normal" in2="shape" result="effect1_innerShadow"/>
</filter>
<filter id="filter20_i" x="76.5507" y="106.516" width="14.329" height="22.673" filterUnits="userSpaceOnUse" color-interpolation-filters="sRGB">
<feFlood flood-opacity="0" result="BackgroundImageFix"/>
<feBlend mode="normal" in="SourceGraphic" in2="BackgroundImageFix" result="shape"/>
<feColorMatrix in="SourceAlpha" type="matrix" values="0 0 0 0 0 0 0 0 0 0 0 0 0 0 0 0 0 0 127 0" result="hardAlpha"/>
<feOffset dy="4"/>
<feGaussianBlur stdDeviation="2"/>
<feComposite in2="hardAlpha" operator="arithmetic" k2="-1" k3="1"/>
<feColorMatrix type="matrix" values="0 0 0 0 0 0 0 0 0 0 0 0 0 0 0 0 0 0 0.25 0"/>
<feBlend mode="normal" in2="shape" result="effect1_innerShadow"/>
</filter>
<filter id="filter21_i" x="78.0362" y="105.768" width="13.6369" height="22.9208" filterUnits="userSpaceOnUse" color-interpolation-filters="sRGB">
<feFlood flood-opacity="0" result="BackgroundImageFix"/>
<feBlend mode="normal" in="SourceGraphic" in2="BackgroundImageFix" result="shape"/>
<feColorMatrix in="SourceAlpha" type="matrix" values="0 0 0 0 0 0 0 0 0 0 0 0 0 0 0 0 0 0 127 0" result="hardAlpha"/>
<feOffset dy="4"/>
<feGaussianBlur stdDeviation="2"/>
<feComposite in2="hardAlpha" operator="arithmetic" k2="-1" k3="1"/>
<feColorMatrix type="matrix" values="0 0 0 0 0 0 0 0 0 0 0 0 0 0 0 0 0 0 0.25 0"/>
<feBlend mode="normal" in2="shape" result="effect1_innerShadow"/>
</filter>
<filter id="filter22_i" x="130.887" y="91.2836" width="13.7232" height="22.5595" filterUnits="userSpaceOnUse" color-interpolation-filters="sRGB">
<feFlood flood-opacity="0" result="BackgroundImageFix"/>
<feBlend mode="normal" in="SourceGraphic" in2="BackgroundImageFix" result="shape"/>
<feColorMatrix in="SourceAlpha" type="matrix" values="0 0 0 0 0 0 0 0 0 0 0 0 0 0 0 0 0 0 127 0" result="hardAlpha"/>
<feOffset dy="4"/>
<feGaussianBlur stdDeviation="2"/>
<feComposite in2="hardAlpha" operator="arithmetic" k2="-1" k3="1"/>
<feColorMatrix type="matrix" values="0 0 0 0 0 0 0 0 0 0 0 0 0 0 0 0 0 0 0.25 0"/>
<feBlend mode="normal" in2="shape" result="effect1_innerShadow"/>
</filter>
<filter id="filter23_d" x="63.4275" y="28.3505" width="98.6941" height="10.5967" filterUnits="userSpaceOnUse" color-interpolation-filters="sRGB">
<feFlood flood-opacity="0" result="BackgroundImageFix"/>
<feColorMatrix in="SourceAlpha" type="matrix" values="0 0 0 0 0 0 0 0 0 0 0 0 0 0 0 0 0 0 127 0"/>
<feOffset dy="4"/>
<feGaussianBlur stdDeviation="2"/>
<feColorMatrix type="matrix" values="0 0 0 0 0 0 0 0 0 0 0 0 0 0 0 0 0 0 0.25 0"/>
<feBlend mode="normal" in2="BackgroundImageFix" result="effect1_dropShadow"/>
<feBlend mode="normal" in="SourceGraphic" in2="effect1_dropShadow" result="shape"/>
</filter>
<filter id="filter24_d" x="102" y="21" width="13" height="11" filterUnits="userSpaceOnUse" color-interpolation-filters="sRGB">
<feFlood flood-opacity="0" result="BackgroundImageFix"/>
<feColorMatrix in="SourceAlpha" type="matrix" values="0 0 0 0 0 0 0 0 0 0 0 0 0 0 0 0 0 0 127 0"/>
<feOffset dy="4"/>
<feGaussianBlur stdDeviation="2"/>
<feColorMatrix type="matrix" values="0 0 0 0 0 0 0 0 0 0 0 0 0 0 0 0 0 0 0.25 0"/>
<feBlend mode="normal" in2="BackgroundImageFix" result="effect1_dropShadow"/>
<feBlend mode="normal" in="SourceGraphic" in2="effect1_dropShadow" result="shape"/>
</filter>
<filter id="filter25_d" x="40.5011" y="86.6788" width="121.55" height="92.3201" filterUnits="userSpaceOnUse" color-interpolation-filters="sRGB">
<feFlood flood-opacity="0" result="BackgroundImageFix"/>
<feColorMatrix in="SourceAlpha" type="matrix" values="0 0 0 0 0 0 0 0 0 0 0 0 0 0 0 0 0 0 127 0"/>
<feOffset dy="4"/>
<feGaussianBlur stdDeviation="20"/>
<feColorMatrix type="matrix" values="0 0 0 0 0 0 0 0 0 0 0 0 0 0 0 0 0 0 0.25 0"/>
<feBlend mode="normal" in2="BackgroundImageFix" result="effect1_dropShadow"/>
<feBlend mode="normal" in="SourceGraphic" in2="effect1_dropShadow" result="shape"/>
</filter>
<filter id="filter26_d" x="39.3156" y="88.04" width="100.735" height="85.5041" filterUnits="userSpaceOnUse" color-interpolation-filters="sRGB">
<feFlood flood-opacity="0" result="BackgroundImageFix"/>
<feColorMatrix in="SourceAlpha" type="matrix" values="0 0 0 0 0 0 0 0 0 0 0 0 0 0 0 0 0 0 127 0"/>
<feOffset dy="4"/>
<feGaussianBlur stdDeviation="20"/>
<feColorMatrix type="matrix" values="0 0 0 0 0 0 0 0 0 0 0 0 0 0 0 0 0 0 0.25 0"/>
<feBlend mode="normal" in2="BackgroundImageFix" result="effect1_dropShadow"/>
<feBlend mode="normal" in="SourceGraphic" in2="effect1_dropShadow" result="shape"/>
</filter>
<filter id="filter27_d" x="24.5521" y="82.4004" width="109.006" height="111.115" filterUnits="userSpaceOnUse" color-interpolation-filters="sRGB">
<feFlood flood-opacity="0" result="BackgroundImageFix"/>
<feColorMatrix in="SourceAlpha" type="matrix" values="0 0 0 0 0 0 0 0 0 0 0 0 0 0 0 0 0 0 127 0"/>
<feOffset dy="4"/>
<feGaussianBlur stdDeviation="25"/>
<feColorMatrix type="matrix" values="0 0 0 0 0 0 0 0 0 0 0 0 0 0 0 0 0 0 0.25 0"/>
<feBlend mode="normal" in2="BackgroundImageFix" result="effect1_dropShadow"/>
<feBlend mode="normal" in="SourceGraphic" in2="effect1_dropShadow" result="shape"/>
</filter>
<filter id="filter28_d" x="110.131" y="116.649" width="39.2203" height="20.2875" filterUnits="userSpaceOnUse" color-interpolation-filters="sRGB">
<feFlood flood-opacity="0" result="BackgroundImageFix"/>
<feColorMatrix in="SourceAlpha" type="matrix" values="0 0 0 0 0 0 0 0 0 0 0 0 0 0 0 0 0 0 127 0"/>
<feOffset dy="4"/>
<feGaussianBlur stdDeviation="2"/>
<feColorMatrix type="matrix" values="0 0 0 0 0 0 0 0 0 0 0 0 0 0 0 0 0 0 0.25 0"/>
<feBlend mode="normal" in2="BackgroundImageFix" result="effect1_dropShadow"/>
<feBlend mode="normal" in="SourceGraphic" in2="effect1_dropShadow" result="shape"/>
</filter>
<filter id="filter29_d" x="97.5261" y="120.435" width="25.7843" height="13.8838" filterUnits="userSpaceOnUse" color-interpolation-filters="sRGB">
<feFlood flood-opacity="0" result="BackgroundImageFix"/>
<feColorMatrix in="SourceAlpha" type="matrix" values="0 0 0 0 0 0 0 0 0 0 0 0 0 0 0 0 0 0 127 0"/>
<feOffset dy="4"/>
<feGaussianBlur stdDeviation="2"/>
<feColorMatrix type="matrix" values="0 0 0 0 0 0 0 0 0 0 0 0 0 0 0 0 0 0 0.25 0"/>
<feBlend mode="normal" in2="BackgroundImageFix" result="effect1_dropShadow"/>
<feBlend mode="normal" in="SourceGraphic" in2="effect1_dropShadow" result="shape"/>
</filter>
<filter id="filter30_i" x="86.3651" y="121.083" width="14.3106" height="22.6063" filterUnits="userSpaceOnUse" color-interpolation-filters="sRGB">
<feFlood flood-opacity="0" result="BackgroundImageFix"/>
<feBlend mode="normal" in="SourceGraphic" in2="BackgroundImageFix" result="shape"/>
<feColorMatrix in="SourceAlpha" type="matrix" values="0 0 0 0 0 0 0 0 0 0 0 0 0 0 0 0 0 0 127 0" result="hardAlpha"/>
<feOffset dy="4"/>
<feGaussianBlur stdDeviation="2"/>
<feComposite in2="hardAlpha" operator="arithmetic" k2="-1" k3="1"/>
<feColorMatrix type="matrix" values="0 0 0 0 0 0 0 0 0 0 0 0 0 0 0 0 0 0 0.25 0"/>
<feBlend mode="normal" in2="shape" result="effect1_innerShadow"/>
</filter>
<filter id="filter31_i" x="140.838" y="106.005" width="13.7902" height="22.3439" filterUnits="userSpaceOnUse" color-interpolation-filters="sRGB">
<feFlood flood-opacity="0" result="BackgroundImageFix"/>
<feBlend mode="normal" in="SourceGraphic" in2="BackgroundImageFix" result="shape"/>
<feColorMatrix in="SourceAlpha" type="matrix" values="0 0 0 0 0 0 0 0 0 0 0 0 0 0 0 0 0 0 127 0" result="hardAlpha"/>
<feOffset dy="4"/>
<feGaussianBlur stdDeviation="2"/>
<feComposite in2="hardAlpha" operator="arithmetic" k2="-1" k3="1"/>
<feColorMatrix type="matrix" values="0 0 0 0 0 0 0 0 0 0 0 0 0 0 0 0 0 0 0.25 0"/>
<feBlend mode="normal" in2="shape" result="effect1_innerShadow"/>
</filter>
<filter id="filter32_i" x="139.333" y="106.535" width="13.6123" height="22.2233" filterUnits="userSpaceOnUse" color-interpolation-filters="sRGB">
<feFlood flood-opacity="0" result="BackgroundImageFix"/>
<feBlend mode="normal" in="SourceGraphic" in2="BackgroundImageFix" result="shape"/>
<feColorMatrix in="SourceAlpha" type="matrix" values="0 0 0 0 0 0 0 0 0 0 0 0 0 0 0 0 0 0 127 0" result="hardAlpha"/>
<feOffset dy="4"/>
<feGaussianBlur stdDeviation="2"/>
<feComposite in2="hardAlpha" operator="arithmetic" k2="-1" k3="1"/>
<feColorMatrix type="matrix" values="0 0 0 0 0 0 0 0 0 0 0 0 0 0 0 0 0 0 0.25 0"/>
<feBlend mode="normal" in2="shape" result="effect1_innerShadow"/>
</filter>
<filter id="filter33_i" x="88.5507" y="120.516" width="14.329" height="22.673" filterUnits="userSpaceOnUse" color-interpolation-filters="sRGB">
<feFlood flood-opacity="0" result="BackgroundImageFix"/>
<feBlend mode="normal" in="SourceGraphic" in2="BackgroundImageFix" result="shape"/>
<feColorMatrix in="SourceAlpha" type="matrix" values="0 0 0 0 0 0 0 0 0 0 0 0 0 0 0 0 0 0 127 0" result="hardAlpha"/>
<feOffset dy="4"/>
<feGaussianBlur stdDeviation="2"/>
<feComposite in2="hardAlpha" operator="arithmetic" k2="-1" k3="1"/>
<feColorMatrix type="matrix" values="0 0 0 0 0 0 0 0 0 0 0 0 0 0 0 0 0 0 0.25 0"/>
<feBlend mode="normal" in2="shape" result="effect1_innerShadow"/>
</filter>
<filter id="filter34_i" x="90.0362" y="119.768" width="13.6369" height="22.9208" filterUnits="userSpaceOnUse" color-interpolation-filters="sRGB">
<feFlood flood-opacity="0" result="BackgroundImageFix"/>
<feBlend mode="normal" in="SourceGraphic" in2="BackgroundImageFix" result="shape"/>
<feColorMatrix in="SourceAlpha" type="matrix" values="0 0 0 0 0 0 0 0 0 0 0 0 0 0 0 0 0 0 127 0" result="hardAlpha"/>
<feOffset dy="4"/>
<feGaussianBlur stdDeviation="2"/>
<feComposite in2="hardAlpha" operator="arithmetic" k2="-1" k3="1"/>
<feColorMatrix type="matrix" values="0 0 0 0 0 0 0 0 0 0 0 0 0 0 0 0 0 0 0.25 0"/>
<feBlend mode="normal" in2="shape" result="effect1_innerShadow"/>
</filter>
<filter id="filter35_i" x="142.887" y="105.284" width="13.7232" height="22.5595" filterUnits="userSpaceOnUse" color-interpolation-filters="sRGB">
<feFlood flood-opacity="0" result="BackgroundImageFix"/>
<feBlend mode="normal" in="SourceGraphic" in2="BackgroundImageFix" result="shape"/>
<feColorMatrix in="SourceAlpha" type="matrix" values="0 0 0 0 0 0 0 0 0 0 0 0 0 0 0 0 0 0 127 0" result="hardAlpha"/>
<feOffset dy="4"/>
<feGaussianBlur stdDeviation="2"/>
<feComposite in2="hardAlpha" operator="arithmetic" k2="-1" k3="1"/>
<feColorMatrix type="matrix" values="0 0 0 0 0 0 0 0 0 0 0 0 0 0 0 0 0 0 0.25 0"/>
<feBlend mode="normal" in2="shape" result="effect1_innerShadow"/>
</filter>
<filter id="filter36_d" x="53.5011" y="100.679" width="121.55" height="92.3201" filterUnits="userSpaceOnUse" color-interpolation-filters="sRGB">
<feFlood flood-opacity="0" result="BackgroundImageFix"/>
<feColorMatrix in="SourceAlpha" type="matrix" values="0 0 0 0 0 0 0 0 0 0 0 0 0 0 0 0 0 0 127 0"/>
<feOffset dy="4"/>
<feGaussianBlur stdDeviation="20"/>
<feColorMatrix type="matrix" values="0 0 0 0 0 0 0 0 0 0 0 0 0 0 0 0 0 0 0.25 0"/>
<feBlend mode="normal" in2="BackgroundImageFix" result="effect1_dropShadow"/>
<feBlend mode="normal" in="SourceGraphic" in2="effect1_dropShadow" result="shape"/>
</filter>
<filter id="filter37_d" x="52.3156" y="101.04" width="100.735" height="85.5041" filterUnits="userSpaceOnUse" color-interpolation-filters="sRGB">
<feFlood flood-opacity="0" result="BackgroundImageFix"/>
<feColorMatrix in="SourceAlpha" type="matrix" values="0 0 0 0 0 0 0 0 0 0 0 0 0 0 0 0 0 0 127 0"/>
<feOffset dy="4"/>
<feGaussianBlur stdDeviation="20"/>
<feColorMatrix type="matrix" values="0 0 0 0 0 0 0 0 0 0 0 0 0 0 0 0 0 0 0.25 0"/>
<feBlend mode="normal" in2="BackgroundImageFix" result="effect1_dropShadow"/>
<feBlend mode="normal" in="SourceGraphic" in2="effect1_dropShadow" result="shape"/>
</filter>
<filter id="filter38_d" x="37.5521" y="95.4004" width="109.006" height="111.115" filterUnits="userSpaceOnUse" color-interpolation-filters="sRGB">
<feFlood flood-opacity="0" result="BackgroundImageFix"/>
<feColorMatrix in="SourceAlpha" type="matrix" values="0 0 0 0 0 0 0 0 0 0 0 0 0 0 0 0 0 0 127 0"/>
<feOffset dy="4"/>
<feGaussianBlur stdDeviation="25"/>
<feColorMatrix type="matrix" values="0 0 0 0 0 0 0 0 0 0 0 0 0 0 0 0 0 0 0.25 0"/>
<feBlend mode="normal" in2="BackgroundImageFix" result="effect1_dropShadow"/>
<feBlend mode="normal" in="SourceGraphic" in2="effect1_dropShadow" result="shape"/>
</filter>
<filter id="filter39_d" x="119.391" y="129.538" width="34.2335" height="15.6215" filterUnits="userSpaceOnUse" color-interpolation-filters="sRGB">
<feFlood flood-opacity="0" result="BackgroundImageFix"/>
<feColorMatrix in="SourceAlpha" type="matrix" values="0 0 0 0 0 0 0 0 0 0 0 0 0 0 0 0 0 0 127 0"/>
<feOffset dy="4"/>
<feGaussianBlur stdDeviation="2"/>
<feColorMatrix type="matrix" values="0 0 0 0 0 0 0 0 0 0 0 0 0 0 0 0 0 0 0.25 0"/>
<feBlend mode="normal" in2="BackgroundImageFix" result="effect1_dropShadow"/>
<feBlend mode="normal" in="SourceGraphic" in2="effect1_dropShadow" result="shape"/>
</filter>
<filter id="filter40_d" x="121.131" y="131.649" width="39.2203" height="20.2875" filterUnits="userSpaceOnUse" color-interpolation-filters="sRGB">
<feFlood flood-opacity="0" result="BackgroundImageFix"/>
<feColorMatrix in="SourceAlpha" type="matrix" values="0 0 0 0 0 0 0 0 0 0 0 0 0 0 0 0 0 0 127 0"/>
<feOffset dy="4"/>
<feGaussianBlur stdDeviation="2"/>
<feColorMatrix type="matrix" values="0 0 0 0 0 0 0 0 0 0 0 0 0 0 0 0 0 0 0.25 0"/>
<feBlend mode="normal" in2="BackgroundImageFix" result="effect1_dropShadow"/>
<feBlend mode="normal" in="SourceGraphic" in2="effect1_dropShadow" result="shape"/>
</filter>
<filter id="filter41_d" x="109.526" y="129.435" width="25.7843" height="13.8838" filterUnits="userSpaceOnUse" color-interpolation-filters="sRGB">
<feFlood flood-opacity="0" result="BackgroundImageFix"/>
<feColorMatrix in="SourceAlpha" type="matrix" values="0 0 0 0 0 0 0 0 0 0 0 0 0 0 0 0 0 0 127 0"/>
<feOffset dy="4"/>
<feGaussianBlur stdDeviation="2"/>
<feColorMatrix type="matrix" values="0 0 0 0 0 0 0 0 0 0 0 0 0 0 0 0 0 0 0.25 0"/>
<feBlend mode="normal" in2="BackgroundImageFix" result="effect1_dropShadow"/>
<feBlend mode="normal" in="SourceGraphic" in2="effect1_dropShadow" result="shape"/>
</filter>
<filter id="filter42_i" x="99.3651" y="134.083" width="14.3106" height="22.6063" filterUnits="userSpaceOnUse" color-interpolation-filters="sRGB">
<feFlood flood-opacity="0" result="BackgroundImageFix"/>
<feBlend mode="normal" in="SourceGraphic" in2="BackgroundImageFix" result="shape"/>
<feColorMatrix in="SourceAlpha" type="matrix" values="0 0 0 0 0 0 0 0 0 0 0 0 0 0 0 0 0 0 127 0" result="hardAlpha"/>
<feOffset dy="4"/>
<feGaussianBlur stdDeviation="2"/>
<feComposite in2="hardAlpha" operator="arithmetic" k2="-1" k3="1"/>
<feColorMatrix type="matrix" values="0 0 0 0 0 0 0 0 0 0 0 0 0 0 0 0 0 0 0.25 0"/>
<feBlend mode="normal" in2="shape" result="effect1_innerShadow"/>
</filter>
<filter id="filter43_i" x="153.838" y="119.005" width="13.7902" height="22.3439" filterUnits="userSpaceOnUse" color-interpolation-filters="sRGB">
<feFlood flood-opacity="0" result="BackgroundImageFix"/>
<feBlend mode="normal" in="SourceGraphic" in2="BackgroundImageFix" result="shape"/>
<feColorMatrix in="SourceAlpha" type="matrix" values="0 0 0 0 0 0 0 0 0 0 0 0 0 0 0 0 0 0 127 0" result="hardAlpha"/>
<feOffset dy="4"/>
<feGaussianBlur stdDeviation="2"/>
<feComposite in2="hardAlpha" operator="arithmetic" k2="-1" k3="1"/>
<feColorMatrix type="matrix" values="0 0 0 0 0 0 0 0 0 0 0 0 0 0 0 0 0 0 0.25 0"/>
<feBlend mode="normal" in2="shape" result="effect1_innerShadow"/>
</filter>
<filter id="filter44_i" x="152.333" y="119.535" width="13.6123" height="22.2233" filterUnits="userSpaceOnUse" color-interpolation-filters="sRGB">
<feFlood flood-opacity="0" result="BackgroundImageFix"/>
<feBlend mode="normal" in="SourceGraphic" in2="BackgroundImageFix" result="shape"/>
<feColorMatrix in="SourceAlpha" type="matrix" values="0 0 0 0 0 0 0 0 0 0 0 0 0 0 0 0 0 0 127 0" result="hardAlpha"/>
<feOffset dy="4"/>
<feGaussianBlur stdDeviation="2"/>
<feComposite in2="hardAlpha" operator="arithmetic" k2="-1" k3="1"/>
<feColorMatrix type="matrix" values="0 0 0 0 0 0 0 0 0 0 0 0 0 0 0 0 0 0 0.25 0"/>
<feBlend mode="normal" in2="shape" result="effect1_innerShadow"/>
</filter>
<filter id="filter45_i" x="101.551" y="133.516" width="14.329" height="22.673" filterUnits="userSpaceOnUse" color-interpolation-filters="sRGB">
<feFlood flood-opacity="0" result="BackgroundImageFix"/>
<feBlend mode="normal" in="SourceGraphic" in2="BackgroundImageFix" result="shape"/>
<feColorMatrix in="SourceAlpha" type="matrix" values="0 0 0 0 0 0 0 0 0 0 0 0 0 0 0 0 0 0 127 0" result="hardAlpha"/>
<feOffset dy="4"/>
<feGaussianBlur stdDeviation="2"/>
<feComposite in2="hardAlpha" operator="arithmetic" k2="-1" k3="1"/>
<feColorMatrix type="matrix" values="0 0 0 0 0 0 0 0 0 0 0 0 0 0 0 0 0 0 0.25 0"/>
<feBlend mode="normal" in2="shape" result="effect1_innerShadow"/>
</filter>
<filter id="filter46_i" x="103.036" y="132.768" width="13.6369" height="22.9208" filterUnits="userSpaceOnUse" color-interpolation-filters="sRGB">
<feFlood flood-opacity="0" result="BackgroundImageFix"/>
<feBlend mode="normal" in="SourceGraphic" in2="BackgroundImageFix" result="shape"/>
<feColorMatrix in="SourceAlpha" type="matrix" values="0 0 0 0 0 0 0 0 0 0 0 0 0 0 0 0 0 0 127 0" result="hardAlpha"/>
<feOffset dy="4"/>
<feGaussianBlur stdDeviation="2"/>
<feComposite in2="hardAlpha" operator="arithmetic" k2="-1" k3="1"/>
<feColorMatrix type="matrix" values="0 0 0 0 0 0 0 0 0 0 0 0 0 0 0 0 0 0 0.25 0"/>
<feBlend mode="normal" in2="shape" result="effect1_innerShadow"/>
</filter>
<filter id="filter47_i" x="155.887" y="118.284" width="13.7232" height="22.5595" filterUnits="userSpaceOnUse" color-interpolation-filters="sRGB">
<feFlood flood-opacity="0" result="BackgroundImageFix"/>
<feBlend mode="normal" in="SourceGraphic" in2="BackgroundImageFix" result="shape"/>
<feColorMatrix in="SourceAlpha" type="matrix" values="0 0 0 0 0 0 0 0 0 0 0 0 0 0 0 0 0 0 127 0" result="hardAlpha"/>
<feOffset dy="4"/>
<feGaussianBlur stdDeviation="2"/>
<feComposite in2="hardAlpha" operator="arithmetic" k2="-1" k3="1"/>
<feColorMatrix type="matrix" values="0 0 0 0 0 0 0 0 0 0 0 0 0 0 0 0 0 0 0.25 0"/>
<feBlend mode="normal" in2="shape" result="effect1_innerShadow"/>
</filter>
</defs>
</svg>
