<svg width="162" height="162" viewBox="0 0 162 162" fill="none" xmlns="http://www.w3.org/2000/svg">
<g clip-path="url(#clip0)">
<path d="M108.276 58.3136C106.853 59.128 104.397 59.4699 102.499 58.5209C100.601 57.5718 98.8124 55.8239 97.5125 53.6481C96.2125 51.4723 95.5039 49.0402 95.5372 46.8681C95.5704 44.696 96.3429 42.9551 97.6906 42.015C99.0383 41.075 100.855 41.0098 102.755 41.8334C104.655 42.6569 106.488 44.3043 107.866 46.4258C109.244 48.5473 110.058 50.9756 110.134 53.1953C110.211 55.4149 109.544 57.251 108.276 58.3136L102.838 50.2755L105.976 54.9141L108.276 58.3136Z" fill="#BB7E52"/>
<path d="M17.5507 63.1788L99.0507 41.3929L103.551 49.9288L107.551 58.6788L26.5507 81.6788L17.5507 63.1788Z" fill="#BB7E52"/>
<path d="M105.823 45.2786C107.095 51.654 104.533 46.9209 100.301 48.3195C97.0065 48.5181 96.4898 49.0798 94.3006 49.7257C92.4828 50.262 90.0507 49.1788 87.5507 50.6788C82.0507 51.6788 80.3007 52.2257 71.3006 54.7257C81.8007 49.7257 82.3007 51.2302 88.3006 49.2257C90.199 48.5915 89.2595 48.6788 92.0507 48.6788C93.7595 49.085 94.8006 47.7257 98.3006 46.7257C102.651 45.5827 103.595 43.154 105.823 45.2786Z" fill="#71431E"/>
<path d="M100.624 41.1788C102.83 41.4545 104.051 42.6788 105.124 43.3788C105.162 44.197 103.833 45.2426 99.124 44.6788C90.624 43.6612 85.1452 47.3695 82.0507 48.1788C74.7473 50.0888 64.124 51.1788 59.624 53.1788C52.0195 56.5585 46.1572 57.2754 39.124 58.6788C34.4517 59.6111 27.624 62.1788 22.624 64.1788C16.6327 65.0395 18.6698 63.5635 18.5507 63.1736C18.2548 62.2057 41.3818 57.1724 62.624 50.6788C84.1221 45.1788 98.8585 40.9581 100.624 41.1788Z" fill="#72421B"/>
<g filter="url(#filter0_d)">
<path d="M65.0506 62.1788C61.3628 65.4317 52.5507 68.3452 42.5507 70.1634C37.0507 71.1634 36.0766 72.6444 33.0506 73.3563C29.0506 74.2974 30.8418 74.1242 29.1348 74.4635C27.3325 74.8219 23.5954 72.3372 23.5506 72.1788C23.4729 71.9037 22.974 68.6481 28.0123 70.1634C33.0507 71.6788 44.9505 67.1788 48.0506 67.1788C51.0506 67.1788 60.3628 63.4317 65.0506 62.1788Z" fill="#7B481F"/>
</g>
<g filter="url(#filter1_d)">
<path d="M43.0507 63.1788C41.9558 63.3978 40.0507 63.1788 38.0507 63.6788C35.5507 64.7655 32.8585 65.1653 31.2517 65.2655C28.358 65.4458 27.3105 67.1982 25.7456 67.4758C23.6769 67.8426 24.6449 67.952 23.7517 68.0399C22.8086 68.1328 22.3773 66.6276 22.3258 66.4455C22.2364 66.1291 22.7165 64.8399 24.4713 64.9715C26.2261 65.1031 29.4495 63.9646 31.2517 63.9646C32.3018 63.9646 35.0507 63.6788 37.0507 62.8814C40.0507 62.1788 41.8626 62.7036 43.0507 63.1788Z" fill="#804D24"/>
</g>
<path d="M108.051 56.6788C109.551 58.3929 107.051 58.6788 102.051 60.1788C98.2626 61.1423 93.0313 62.5004 89.0506 63.9647C80.0719 67.2674 71.0506 68.6787 66.0506 70.1787C59.0506 72.6787 35.0507 79.1788 27.5507 81.1788C25.5307 81.4622 28.3732 77.747 28.5506 77.1788C28.4445 76.6103 34.0507 77.6788 36.0507 77.1788C39.5507 76.1788 41.2812 75.674 48.0506 73.9646C55.7682 72.0159 63.7765 67.9087 67.5506 67.4647C69.7533 67.2796 85.0506 63.6158 89.5506 61.9647C98.2965 58.7558 103.051 58.6788 108.051 56.6788Z" fill="#72421B"/>
<ellipse cx="22.1102" cy="72.3916" rx="10.4013" ry="6.55128" transform="rotate(57.5403 22.1102 72.3916)" fill="#FAB06C"/>
<path d="M26.3856 79.4248C23.5507 80.6788 19.9448 78.4427 17.5507 74.6788C15.1565 70.9149 15.6965 66.3703 17.7206 65.0827C19.7448 63.7952 23.9915 66.0728 26.3856 69.8367C28.7798 73.6006 29.2206 78.1709 26.3856 79.4248Z" fill="#ED8947"/>
<g filter="url(#filter2_d)">
<path d="M25.5506 77.6788C24.0231 78.6504 20.854 77.4816 19.0712 74.6788C17.2884 71.876 17.0231 68.1505 18.5507 67.1788C20.0782 66.2072 23.2679 67.876 25.0507 70.6788C26.8335 73.4815 27.0782 76.7071 25.5506 77.6788Z" fill="#C06A32"/>
</g>
<path d="M23.9986 75.7441C23.0701 76.3347 21.5608 75.779 20.4466 74.0273C19.3323 72.2756 19.5701 70.2694 20.4986 69.6788C21.4271 69.0882 22.6716 69.8381 23.7859 71.5898C24.9001 73.3415 24.9272 75.1534 23.9986 75.7441Z" fill="#8E4E24"/>
<g filter="url(#filter3_d)">
<path d="M70.6242 52.3539C66.7988 52.5153 66.2409 52.3599 59.7672 55.542C53.2934 58.7241 50.0087 58.0762 44.3973 59.6592C44.1154 59.0858 52.9532 58.0319 59.4269 54.8498C65.9007 51.6677 70.3423 51.7805 70.6242 52.3539Z" fill="#DCA172"/>
</g>
<g filter="url(#filter4_d)">
<path d="M79.5 58C76 58.5 73.5245 57.7537 65.3247 59.94C57.1248 62.1264 53.7886 63.2555 47.1307 64.436C51.4577 62.3267 61.2043 61.0074 64.3852 59.4692C71.5 57.5 76.5 58 79.5 58Z" fill="#704323"/>
</g>
<path d="M109.551 49.6788C111.551 56.1788 108.551 58.6788 107.051 58.6788C100.551 59.1788 103.551 59.6787 105.051 55.6788C105.551 53.1788 103.051 52.6788 93.0507 54.4692C91.2125 54.8745 89.0507 55.6788 86.0507 55.6788C89.5507 53.1788 96.5507 52.6788 100.051 51.6788C103.551 49.6788 105.278 49.8174 104.551 46.1788C104.051 44.1788 100.175 43.7451 101.551 43.1788C105.196 41.6789 108.551 46.1788 109.551 49.6788Z" fill="#72421B"/>
<g filter="url(#filter5_i)">
<path d="M41.0507 67.1788C42.2005 69.4785 43.3168 71.8021 43.5507 73.6788C44.0307 77.5305 43.0437 77.9697 42.0507 78.1788C41.2014 78.3576 41.5507 76.1788 41.0507 72.6788C40.7062 71.1619 40.3325 69.5288 39.0507 67.1788C36.0506 61.6788 28.0506 59.1788 29.5506 59.6788C30.5565 59.3435 33.4623 59.8187 36.5507 62.1788C38.0681 63.3384 40.0507 65.1788 41.0507 67.1788Z" fill="#766767"/>
</g>
<path d="M41.1991 72.6576L41.1996 72.6575L41.1969 72.6456C40.8515 71.1242 40.4741 69.4751 39.1823 67.107C37.6623 64.3202 34.883 62.3031 32.6876 61.0486C31.604 60.4294 30.6577 59.9932 30.0659 59.7398C30.2283 59.7291 30.4147 59.7302 30.6233 59.7457C31.073 59.7791 31.6162 59.8784 32.2265 60.0617C33.447 60.4283 34.9294 61.1286 36.4596 62.298C37.9715 63.4533 39.932 65.2769 40.9165 67.2459C42.0698 69.5524 43.1718 71.8514 43.4018 73.6974C43.6412 75.6184 43.5086 76.6523 43.2191 77.2273C42.9398 77.7819 42.5033 77.9302 42.0198 78.032C41.9451 78.0477 41.9011 78.0353 41.8686 78.0132C41.8305 77.9874 41.7873 77.9341 41.7455 77.8308C41.6607 77.6211 41.61 77.2782 41.5692 76.7957C41.5471 76.5349 41.5281 76.2376 41.507 75.9071C41.4514 75.0345 41.381 73.9306 41.1991 72.6576Z" stroke="#5B4F4F" stroke-width="0.3"/>
<g filter="url(#filter6_i)">
<path d="M95.5507 51.7761C96.6257 54.039 97.4607 56.2679 97.5507 58.1788C97.7354 62.1009 97.6611 62.5224 96.5322 62.8284C95.5668 63.09 96.1561 60.8147 95.9169 57.2566C95.6705 55.7261 95.4019 54.0787 94.184 51.7761C91.3336 46.387 82.3491 45.3229 84.0507 44.6788C85.2053 44.2418 87.8148 44.5308 91.0507 46.6788C92.6405 47.7342 94.6158 49.8081 95.5507 51.7761Z" fill="#766767"/>
</g>
<path d="M84.0507 44.6788L84.0507 44.6788L84.0507 44.6788ZM84.0507 44.6788L84.0507 44.6789M84.0507 44.6788L84.0507 44.6789M84.0507 44.6789L84.0507 44.6789L84.0507 44.6789ZM96.0665 57.2465L96.0672 57.2465L96.065 57.2327C95.8178 55.6974 95.5461 54.0306 94.3166 51.706C92.8652 48.9619 89.8621 47.3316 87.4692 46.3101C86.8691 46.0539 86.305 45.8351 85.8111 45.6464C85.7277 45.6145 85.6464 45.5835 85.5673 45.5534C85.1766 45.4046 84.8404 45.2765 84.5738 45.1635C84.4138 45.0957 84.2825 45.0347 84.1817 44.9796C84.0936 44.9313 84.0385 44.8925 84.0079 44.8637C84.0264 44.8524 84.0564 44.837 84.1038 44.8191L84.1038 44.8191C84.6421 44.6153 85.5495 44.5728 86.7355 44.8553C87.9171 45.1368 89.3624 45.7381 90.9677 46.8038C92.5385 47.8465 94.4937 49.9007 95.4152 51.8405C96.4891 54.1011 97.3123 56.3068 97.4008 58.1859C97.447 59.1666 97.4769 59.9252 97.4782 60.5173C97.4796 61.111 97.4522 61.5276 97.3874 61.8281C97.3234 62.1252 97.2255 62.296 97.0943 62.4119C96.9587 62.5317 96.771 62.6082 96.493 62.6836C96.3964 62.7098 96.3443 62.6979 96.3132 62.68C96.2793 62.6605 96.2393 62.6162 96.2034 62.5173C96.1295 62.3136 96.1039 61.9687 96.1022 61.4744C96.1013 61.2083 96.1073 60.9041 96.1139 60.5659C96.1314 59.6725 96.1536 58.5413 96.0665 57.2465Z" stroke="#5B4F4F" stroke-width="0.3"/>
<g filter="url(#filter7_i)">
<path d="M94.0507 52.6788C95.1257 54.9417 95.715 56.9861 95.805 58.897C95.9897 62.8191 96.1796 62.8729 95.0507 63.1788C94.0853 63.4405 94.7899 63.2369 94.5507 59.6788C94.3043 58.1483 93.6562 54.7969 92.4383 52.4943C89.5879 47.1052 80.8491 45.8229 82.5507 45.1788C83.7053 44.7418 86.0691 45.249 89.305 47.397C90.8948 48.4524 93.1158 50.7108 94.0507 52.6788Z" fill="#766767"/>
</g>
<path d="M94.7003 59.6687L94.701 59.6687L94.6988 59.655C94.4524 58.1244 93.8015 54.7508 92.5709 52.4242C91.1207 49.6823 88.1818 47.9972 85.8503 46.921C85.2657 46.6511 84.7172 46.4187 84.2379 46.2173C84.1911 46.1976 84.145 46.1782 84.0996 46.1592C83.6786 45.9824 83.3194 45.8316 83.041 45.7001C82.8869 45.6273 82.7611 45.5621 82.6654 45.5034C82.5732 45.4468 82.5202 45.4031 82.4946 45.3726C82.4969 45.3709 82.4996 45.3691 82.5026 45.3672C82.5241 45.3533 82.5567 45.3369 82.6038 45.3191L82.6038 45.3191C83.1363 45.1175 83.9779 45.1255 85.1044 45.4622C86.2263 45.7976 87.6128 46.4538 89.222 47.522C90.0048 48.0416 90.9485 48.8616 91.8132 49.7975C92.6784 50.7339 93.4566 51.7779 93.9152 52.7432C94.9846 54.9943 95.5663 57.0188 95.6551 58.9041C95.6782 59.3949 95.7014 59.8252 95.7221 60.2027C95.7246 60.2489 95.7271 60.2943 95.7296 60.3388C95.7471 60.6591 95.7625 60.939 95.7739 61.1847C95.8002 61.7479 95.805 62.1189 95.7717 62.3746C95.7391 62.625 95.6732 62.739 95.5776 62.8147C95.4683 62.9013 95.3011 62.9556 95.0114 63.0341C94.8881 63.0675 94.8015 63.0906 94.7367 63.1016C94.7099 63.1062 94.692 63.1076 94.6807 63.1079C94.6802 63.1057 94.6798 63.1032 94.6793 63.1004C94.6722 63.0567 94.6717 62.9858 94.6781 62.8695C94.6821 62.798 94.6883 62.7145 94.6954 62.6176C94.7342 62.0937 94.8019 61.18 94.7003 59.6687ZM94.6856 63.1257C94.6856 63.1258 94.6854 63.1255 94.6852 63.1249L94.6856 63.1257Z" stroke="#5B4F4F" stroke-width="0.3"/>
<g filter="url(#filter8_i)">
<path d="M43.0507 66.6119C44.2006 68.9116 45.3168 71.2352 45.5507 73.1119C46.5507 77.1119 45.0437 77.4697 44.0507 77.6788C43.2014 77.8576 43.5507 75.6119 43.0507 72.1119C42.7063 70.5949 42.4655 69.6944 41.5507 67.1788C39.5507 61.6788 32.5506 59.6788 31.5507 59.1788C32.5565 58.8435 35.4623 58.8187 38.5507 61.1788C40.0507 62.6788 42.0507 64.6119 43.0507 66.6119Z" fill="#766767"/>
</g>
<path d="M45.4019 73.1304L45.403 73.1394L45.4052 73.1482C45.903 75.1393 45.7631 76.177 45.4201 76.7388C45.0814 77.2935 44.52 77.4267 44.0198 77.532C43.9465 77.5474 43.9033 77.5348 43.8707 77.5118C43.832 77.4846 43.7881 77.4286 43.746 77.3216C43.6608 77.1051 43.6101 76.7533 43.5692 76.2624C43.5473 75.9993 43.5285 75.7003 43.5076 75.3689C43.4519 74.4837 43.3817 73.368 43.1992 72.0907L43.1997 72.0906L43.197 72.0787C42.851 70.5548 42.6083 69.6483 41.6917 67.1275C40.6744 64.3301 38.3897 62.4322 36.2517 61.1745C35.1812 60.5448 34.1431 60.073 33.3113 59.7278C32.9218 59.5661 32.577 59.4319 32.296 59.3226C32.277 59.3152 32.2583 59.3079 32.2398 59.3007C32.1659 59.272 32.0972 59.2452 32.034 59.2203C33.2562 59.0302 35.7767 59.2511 38.4517 61.292C38.5352 61.3755 38.6202 61.4603 38.7064 61.5463C40.1737 63.0101 41.9862 64.8182 42.9166 66.6789C44.0698 68.9855 45.1718 71.2844 45.4019 73.1304Z" stroke="#5B4F4F" stroke-width="0.3"/>
<g filter="url(#filter9_i)">
<path d="M45.0507 66.1119C46.2006 68.4117 46.3168 70.2032 46.5507 72.0799C46.5507 76.5799 47.0437 76.9697 46.0507 77.1788C45.2014 77.3576 45.5507 75.1119 45.0507 71.6119C44.7063 70.095 45.0355 68.906 43.5507 66.6788C41.5506 63.6788 38.5439 60.6789 36.5507 59.6788C36.2028 59.5043 32.7872 58.8717 33.0507 58.6789C33.8676 58.0808 36.9623 57.8187 40.0507 60.1788C41.5507 61.6788 44.0507 64.1119 45.0507 66.1119Z" fill="#766767"/>
</g>
<path d="M45.1992 71.5907L45.1997 71.5907L45.197 71.5787C45.1077 71.1854 45.0651 70.807 45.0215 70.4203C44.9027 69.3649 44.7769 68.2477 43.6755 66.5956C42.6695 65.0867 41.4114 63.5791 40.1541 62.3227C38.899 61.0685 37.6357 60.0554 36.6179 59.5447C36.5586 59.515 36.452 59.4824 36.329 59.4489C36.2004 59.4139 36.0376 59.3737 35.8547 59.3301C35.6678 59.2856 35.4548 59.2366 35.2338 59.1856C35.0267 59.1379 34.8125 59.0885 34.6059 59.0397C34.1734 58.9376 33.7649 58.8361 33.4818 58.7486C33.4194 58.7293 33.365 58.7113 33.3188 58.6947C33.5029 58.6062 33.7587 58.5278 34.0782 58.4772C34.5164 58.4078 35.0623 58.3926 35.6806 58.4684C36.9145 58.6197 38.4318 59.1328 39.9517 60.292C40.0354 60.3756 40.1221 60.4622 40.2114 60.5513C40.9229 61.261 41.7992 62.1351 42.6265 63.058C43.5621 64.1017 44.4259 65.1977 44.9166 66.179C45.9399 68.2256 46.1344 69.8603 46.3343 71.5398C46.356 71.7222 46.3778 71.9051 46.4007 72.0892C46.4008 73.2126 46.4316 74.0801 46.4623 74.7525C46.4712 74.9455 46.4799 75.1216 46.4879 75.2827C46.508 75.687 46.5234 75.9963 46.5231 76.2382C46.5226 76.5834 46.4884 76.748 46.424 76.8419C46.3663 76.9261 46.2643 76.9805 46.0198 77.032C45.9465 77.0474 45.9033 77.0348 45.8707 77.0118C45.832 76.9846 45.7881 76.9286 45.746 76.8217C45.6608 76.6051 45.6101 76.2533 45.5692 75.7625C45.5473 75.4993 45.5285 75.2003 45.5076 74.869C45.4519 73.9838 45.3817 72.8681 45.1992 71.5907Z" stroke="#5B4F4F" stroke-width="0.3"/>
<g filter="url(#filter10_i)">
<path d="M96.8011 50.4258C97.951 52.7255 99.0673 55.0491 99.3011 56.9258C99.7811 60.7775 99.9433 61.6788 97.9433 62.1788C95.9433 62.6789 98.4433 62.1788 97.9433 58.6788C97.5989 57.1619 96.4768 53.6903 95.5507 51.1788C93.8002 46.4319 84.5507 43.6788 86.0507 44.1788C87.0565 43.8435 89.2127 43.0657 92.3011 45.4258C93.8185 46.5853 95.8011 48.4258 96.8011 50.4258Z" fill="#766767"/>
</g>
<path d="M98.0918 58.6576L98.0923 58.6575L98.0896 58.6456C97.7429 57.1188 96.618 53.6397 95.6914 51.1269C95.2412 49.906 94.3134 48.8237 93.2135 47.8974C92.1123 46.97 90.8285 46.1907 89.651 45.5782C88.4729 44.9653 87.3972 44.5175 86.7098 44.254C86.644 44.2288 86.5817 44.2053 86.5232 44.1834C86.9987 44.0396 87.6213 43.8986 88.3866 43.9413C89.404 43.9981 90.6869 44.381 92.21 45.5449C93.7219 46.7003 95.6825 48.5238 96.667 50.4928C97.8202 52.7994 98.9222 55.0983 99.1523 56.9443C99.1635 57.0345 99.1746 57.1231 99.1854 57.21C99.2907 58.0526 99.3769 58.7423 99.4232 59.3133C99.4744 59.9446 99.4756 60.417 99.405 60.7806C99.3355 61.1381 99.1978 61.3846 98.9708 61.5734C98.7382 61.7669 98.3994 61.9102 97.9069 62.0333C97.8357 62.0511 97.7706 62.0676 97.7111 62.0826C97.5895 62.1133 97.4914 62.138 97.4123 62.1565C97.4408 62.1135 97.4732 62.064 97.508 62.0084C97.8349 61.4853 98.3479 60.45 98.0918 58.6576Z" stroke="#5B4F4F" stroke-width="0.3"/>
<path d="M120.276 70.3136C118.853 71.128 116.397 71.4699 114.499 70.5209C112.601 69.5718 110.812 67.8239 109.512 65.6481C108.213 63.4723 107.504 61.0402 107.537 58.8681C107.57 56.696 108.343 54.9551 109.691 54.015C111.038 53.075 112.855 53.0098 114.755 53.8334C116.655 54.6569 118.488 56.3043 119.866 58.4258C121.244 60.5473 122.058 62.9756 122.134 65.1953C122.211 67.4149 121.544 69.251 120.276 70.3136L114.838 62.2755L117.976 66.9141L120.276 70.3136Z" fill="#BB7E52"/>
<path d="M29.5507 75.1788L111.051 53.3929L115.551 61.9288L119.551 70.6788L38.5507 93.6788L29.5507 75.1788Z" fill="#BB7E52"/>
<path d="M117.823 57.2786C119.095 63.654 116.533 58.9209 112.301 60.3195C109.007 60.5181 108.49 61.0798 106.301 61.7257C104.483 62.262 102.051 61.1788 99.5507 62.6788C94.0507 63.6788 92.3007 64.2257 83.3006 66.7257C93.8007 61.7257 94.3007 63.2302 100.301 61.2257C102.199 60.5915 101.259 60.6788 104.051 60.6788C105.759 61.085 106.801 59.7257 110.301 58.7257C114.651 57.5827 115.595 55.154 117.823 57.2786Z" fill="#71431E"/>
<path d="M112.624 53.1788C114.83 53.4545 116.051 54.6788 117.124 55.3788C117.162 56.197 115.833 57.2426 111.124 56.6788C102.624 55.6612 97.1452 59.3695 94.0507 60.1788C86.7473 62.0888 76.124 63.1788 71.624 65.1788C64.0195 68.5585 58.1572 69.2754 51.124 70.6788C46.4517 71.6111 39.624 74.1788 34.624 76.1788C28.6327 77.0395 30.6698 75.5635 30.5507 75.1736C30.2548 74.2057 53.3818 69.1724 74.624 62.6788C96.1221 57.1788 110.858 52.9581 112.624 53.1788Z" fill="#72421B"/>
<g filter="url(#filter11_d)">
<path d="M77.0506 74.1788C73.3628 77.4317 64.5507 80.3452 54.5507 82.1634C49.0507 83.1634 48.0766 84.6444 45.0506 85.3563C41.0506 86.2974 42.8418 86.1242 41.1348 86.4635C39.3325 86.8219 35.5954 84.3372 35.5506 84.1788C35.4729 83.9037 34.974 80.6481 40.0123 82.1634C45.0507 83.6788 56.9505 79.1788 60.0506 79.1788C63.0506 79.1788 72.3628 75.4317 77.0506 74.1788Z" fill="#7B481F"/>
</g>
<g filter="url(#filter12_d)">
<path d="M55.0507 75.1788C53.9558 75.3978 52.0507 75.1788 50.0507 75.6788C47.5507 76.7655 44.8585 77.1653 43.2517 77.2655C40.358 77.4458 39.3105 79.1982 37.7456 79.4758C35.6769 79.8426 36.6449 79.952 35.7517 80.0399C34.8086 80.1328 34.3773 78.6276 34.3258 78.4455C34.2364 78.1291 34.7165 76.8399 36.4713 76.9715C38.2261 77.1031 41.4495 75.9646 43.2517 75.9646C44.3018 75.9646 47.0507 75.6788 49.0507 74.8814C52.0507 74.1788 53.8626 74.7036 55.0507 75.1788Z" fill="#804D24"/>
</g>
<path d="M120.051 68.6788C121.551 70.3929 119.051 70.6788 114.051 72.1788C110.263 73.1423 105.031 74.5004 101.051 75.9647C92.0719 79.2674 83.0506 80.6787 78.0506 82.1787C71.0506 84.6787 47.0507 91.1788 39.5507 93.1788C37.5307 93.4622 40.3732 89.747 40.5506 89.1788C40.4445 88.6103 46.0507 89.6788 48.0507 89.1788C51.5507 88.1788 53.2812 87.674 60.0506 85.9646C67.7682 84.0159 75.7765 79.9087 79.5506 79.4647C81.7533 79.2796 97.0506 75.6158 101.551 73.9647C110.297 70.7558 115.051 70.6788 120.051 68.6788Z" fill="#72421B"/>
<ellipse cx="34.1102" cy="84.3916" rx="10.4013" ry="6.55128" transform="rotate(57.5403 34.1102 84.3916)" fill="#FAB06C"/>
<path d="M38.3856 91.4248C35.5507 92.6788 31.9448 90.4427 29.5507 86.6788C27.1565 82.9149 27.6965 78.3703 29.7206 77.0827C31.7448 75.7952 35.9915 78.0728 38.3856 81.8367C40.7798 85.6006 41.2206 90.1709 38.3856 91.4248Z" fill="#ED8947"/>
<g filter="url(#filter13_d)">
<path d="M37.5506 89.6788C36.0231 90.6504 32.854 89.4816 31.0712 86.6788C29.2884 83.876 29.0231 80.1505 30.5507 79.1788C32.0782 78.2072 35.2679 79.876 37.0507 82.6788C38.8335 85.4815 39.0782 88.7071 37.5506 89.6788Z" fill="#C06A32"/>
</g>
<path d="M35.9986 87.7441C35.0701 88.3347 33.5608 87.779 32.4466 86.0273C31.3323 84.2756 31.5701 82.2694 32.4986 81.6788C33.4271 81.0882 34.6716 81.8381 35.7859 83.5898C36.9001 85.3415 36.9272 87.1534 35.9986 87.7441Z" fill="#8E4E24"/>
<g filter="url(#filter14_d)">
<path d="M91.6242 67.3539C87.7988 67.5153 87.2409 67.3598 80.7672 70.542C74.2934 73.7241 71.0087 73.0761 65.3973 74.6592C65.1154 74.0858 73.9532 73.0319 80.4269 69.8498C86.9007 66.6676 91.3423 66.7804 91.6242 67.3539Z" fill="#DCA172"/>
</g>
<g filter="url(#filter15_d)">
<path d="M98.351 69.1486C95.8889 72.7027 93.5245 74.7538 85.3247 76.9401C77.1248 79.1264 73.7886 80.2555 67.1307 81.4361C71.4577 79.3267 81.2043 78.0075 84.3852 76.4692C91.5414 75.2239 96.2339 71.1998 98.351 69.1486Z" fill="#704323"/>
</g>
<path d="M121.551 61.6788C123.551 68.1788 120.551 70.6788 119.051 70.6788C112.551 71.1788 115.551 71.6787 117.051 67.6788C117.551 65.1788 115.051 64.6788 105.051 66.4692C103.213 66.8745 101.051 67.6788 98.0507 67.6788C101.551 65.1788 108.551 64.6788 112.051 63.6788C115.551 61.6788 117.278 61.8174 116.551 58.1788C116.051 56.1788 112.175 55.7451 113.551 55.1788C117.196 53.6789 120.551 58.1788 121.551 61.6788Z" fill="#72421B"/>
<g filter="url(#filter16_d)">
<path d="M73.3103 66.9353C70.6998 68.2335 66.5027 69.7682 63.9996 70.2528C61.4964 70.4502 58.0971 72.0194 55.5261 72.8191C56.0639 72.3601 60.8287 70.2456 63.0706 69.5716C65.1038 69.2309 70.7393 67.7351 73.3103 66.9353Z" fill="#653D1D"/>
</g>
<g filter="url(#filter17_i)">
<path d="M53.0507 79.1788C54.2005 81.4785 55.3168 83.8021 55.5507 85.6788C56.0307 89.5305 55.0437 89.9697 54.0507 90.1788C53.2014 90.3576 53.5507 88.1788 53.0507 84.6788C52.7062 83.1619 52.3325 81.5288 51.0507 79.1788C48.0506 73.6788 40.0506 71.1788 41.5506 71.6788C42.5565 71.3435 45.4623 71.8187 48.5507 74.1788C50.0681 75.3384 52.0507 77.1788 53.0507 79.1788Z" fill="#766767"/>
</g>
<path d="M53.1991 84.6576L53.1996 84.6575L53.1969 84.6456C52.8515 83.1242 52.4741 81.4751 51.1823 79.107C49.6623 76.3202 46.883 74.3031 44.6876 73.0486C43.604 72.4294 42.6577 71.9932 42.0659 71.7398C42.2283 71.7291 42.4147 71.7302 42.6233 71.7457C43.073 71.7791 43.6162 71.8784 44.2265 72.0617C45.447 72.4283 46.9294 73.1286 48.4596 74.298C49.9715 75.4533 51.932 77.2769 52.9165 79.2459C54.0698 81.5524 55.1718 83.8514 55.4018 85.6974C55.6412 87.6184 55.5086 88.6523 55.2191 89.2273C54.9398 89.7819 54.5033 89.9302 54.0198 90.032C53.9451 90.0477 53.9011 90.0353 53.8686 90.0132C53.8305 89.9874 53.7873 89.9341 53.7455 89.8308C53.6607 89.6211 53.61 89.2782 53.5692 88.7957C53.5471 88.5349 53.5281 88.2376 53.507 87.9071C53.4514 87.0345 53.381 85.9306 53.1991 84.6576Z" stroke="#5B4F4F" stroke-width="0.3"/>
<g filter="url(#filter18_i)">
<path d="M107.551 63.7761C108.626 66.039 109.461 68.2679 109.551 70.1788C109.735 74.1009 109.661 74.5224 108.532 74.8284C107.567 75.09 108.156 72.8147 107.917 69.2566C107.67 67.7261 107.402 66.0787 106.184 63.7761C103.334 58.387 94.3491 57.3229 96.0507 56.6788C97.2053 56.2418 99.8148 56.5308 103.051 58.6788C104.641 59.7342 106.616 61.8081 107.551 63.7761Z" fill="#766767"/>
</g>
<path d="M96.0507 56.6788L96.0507 56.6788L96.0507 56.6788ZM96.0507 56.6788L96.0507 56.6789M96.0507 56.6788L96.0507 56.6789M96.0507 56.6789L96.0507 56.6789L96.0507 56.6789ZM108.067 69.2465L108.067 69.2465L108.065 69.2327C107.818 67.6974 107.546 66.0306 106.317 63.706C104.865 60.9619 101.862 59.3316 99.4692 58.3101C98.8691 58.0539 98.305 57.8351 97.8111 57.6464C97.7277 57.6145 97.6464 57.5835 97.5673 57.5534C97.1766 57.4046 96.8404 57.2765 96.5738 57.1635C96.4138 57.0957 96.2825 57.0347 96.1817 56.9796C96.0936 56.9313 96.0385 56.8925 96.0079 56.8637C96.0264 56.8524 96.0564 56.837 96.1038 56.8191L96.1038 56.8191C96.6421 56.6153 97.5495 56.5728 98.7355 56.8553C99.9171 57.1368 101.362 57.7381 102.968 58.8038C104.539 59.8465 106.494 61.9007 107.415 63.8405C108.489 66.1011 109.312 68.3068 109.401 70.1859C109.447 71.1666 109.477 71.9252 109.478 72.5173C109.48 73.111 109.452 73.5276 109.387 73.8281C109.323 74.1252 109.226 74.296 109.094 74.4119C108.959 74.5317 108.771 74.6082 108.493 74.6836C108.396 74.7098 108.344 74.6979 108.313 74.68C108.279 74.6605 108.239 74.6162 108.203 74.5173C108.129 74.3136 108.104 73.9687 108.102 73.4744C108.101 73.2083 108.107 72.9041 108.114 72.5659C108.131 71.6725 108.154 70.5413 108.067 69.2465Z" stroke="#5B4F4F" stroke-width="0.3"/>
<g filter="url(#filter19_i)">
<path d="M106.051 64.6788C107.126 66.9417 107.715 68.9861 107.805 70.897C107.99 74.8191 108.18 74.8729 107.051 75.1788C106.085 75.4405 106.79 75.2369 106.551 71.6788C106.304 70.1483 105.656 66.7969 104.438 64.4943C101.588 59.1052 92.8491 57.8229 94.5507 57.1788C95.7053 56.7418 98.0691 57.249 101.305 59.397C102.895 60.4524 105.116 62.7108 106.051 64.6788Z" fill="#766767"/>
</g>
<path d="M106.7 71.6687L106.701 71.6687L106.699 71.655C106.452 70.1244 105.801 66.7508 104.571 64.4242C103.121 61.6823 100.182 59.9972 97.8503 58.921C97.2657 58.6511 96.7172 58.4187 96.2379 58.2173C96.1911 58.1976 96.145 58.1782 96.0996 58.1592C95.6786 57.9824 95.3194 57.8316 95.041 57.7001C94.8869 57.6273 94.7611 57.5621 94.6654 57.5034C94.5732 57.4468 94.5202 57.4031 94.4946 57.3726C94.4969 57.3709 94.4996 57.3691 94.5026 57.3672C94.5241 57.3533 94.5567 57.3369 94.6038 57.3191L94.6038 57.3191C95.1363 57.1175 95.9779 57.1255 97.1044 57.4622C98.2263 57.7976 99.6128 58.4538 101.222 59.522C102.005 60.0416 102.949 60.8616 103.813 61.7975C104.678 62.7339 105.457 63.7779 105.915 64.7432C106.985 66.9943 107.566 69.0188 107.655 70.9041C107.678 71.3949 107.701 71.8252 107.722 72.2027C107.725 72.2489 107.727 72.2943 107.73 72.3388C107.747 72.6591 107.763 72.939 107.774 73.1847C107.8 73.7479 107.805 74.1189 107.772 74.3746C107.739 74.625 107.673 74.739 107.578 74.8147C107.468 74.9013 107.301 74.9556 107.011 75.0341C106.888 75.0675 106.802 75.0906 106.737 75.1016C106.71 75.1062 106.692 75.1076 106.681 75.1079C106.68 75.1057 106.68 75.1032 106.679 75.1004C106.672 75.0567 106.672 74.9858 106.678 74.8695C106.682 74.798 106.688 74.7145 106.695 74.6176C106.734 74.0937 106.802 73.18 106.7 71.6687ZM106.686 75.1257C106.686 75.1258 106.685 75.1255 106.685 75.1249L106.686 75.1257Z" stroke="#5B4F4F" stroke-width="0.3"/>
<g filter="url(#filter20_i)">
<path d="M55.0507 78.6119C56.2006 80.9116 57.3168 83.2352 57.5507 85.1119C58.5507 89.1119 57.0437 89.4697 56.0507 89.6788C55.2014 89.8576 55.5507 87.6119 55.0507 84.1119C54.7063 82.5949 54.4655 81.6944 53.5507 79.1788C51.5507 73.6788 44.5506 71.6788 43.5507 71.1788C44.5565 70.8435 47.4623 70.8187 50.5507 73.1788C52.0507 74.6788 54.0507 76.6119 55.0507 78.6119Z" fill="#766767"/>
</g>
<path d="M57.4019 85.1304L57.403 85.1394L57.4052 85.1482C57.903 87.1393 57.7631 88.177 57.4201 88.7388C57.0814 89.2935 56.52 89.4267 56.0198 89.532C55.9465 89.5474 55.9033 89.5348 55.8707 89.5118C55.832 89.4846 55.7881 89.4286 55.746 89.3216C55.6608 89.1051 55.6101 88.7533 55.5692 88.2624C55.5473 87.9993 55.5285 87.7003 55.5076 87.3689C55.4519 86.4837 55.3817 85.368 55.1992 84.0907L55.1997 84.0906L55.197 84.0787C54.851 82.5548 54.6083 81.6483 53.6917 79.1275C52.6744 76.3301 50.3897 74.4322 48.2517 73.1745C47.1812 72.5448 46.1431 72.073 45.3113 71.7278C44.9218 71.5661 44.577 71.4319 44.296 71.3226C44.277 71.3152 44.2583 71.3079 44.2398 71.3007C44.1659 71.272 44.0972 71.2452 44.034 71.2203C45.2562 71.0302 47.7767 71.2511 50.4517 73.292C50.5352 73.3755 50.6202 73.4603 50.7064 73.5463C52.1737 75.0101 53.9862 76.8182 54.9166 78.6789C56.0698 80.9855 57.1718 83.2844 57.4019 85.1304Z" stroke="#5B4F4F" stroke-width="0.3"/>
<g filter="url(#filter21_i)">
<path d="M57.0507 78.1119C58.2006 80.4117 58.3168 82.2032 58.5507 84.0799C58.5507 88.5799 59.0437 88.9697 58.0507 89.1788C57.2014 89.3576 57.5507 87.1119 57.0507 83.6119C56.7063 82.095 57.0355 80.906 55.5507 78.6788C53.5506 75.6788 50.5439 72.6789 48.5507 71.6788C48.2028 71.5043 44.7872 70.8717 45.0507 70.6789C45.8676 70.0808 48.9623 69.8187 52.0507 72.1788C53.5507 73.6788 56.0507 76.1119 57.0507 78.1119Z" fill="#766767"/>
</g>
<path d="M57.1992 83.5907L57.1997 83.5907L57.197 83.5787C57.1077 83.1854 57.0651 82.807 57.0215 82.4203C56.9027 81.3649 56.7769 80.2477 55.6755 78.5956C54.6695 77.0867 53.4114 75.5791 52.1541 74.3227C50.899 73.0685 49.6357 72.0554 48.6179 71.5447C48.5586 71.515 48.452 71.4824 48.329 71.4489C48.2004 71.4139 48.0376 71.3737 47.8547 71.3301C47.6678 71.2856 47.4548 71.2366 47.2338 71.1856C47.0267 71.1379 46.8125 71.0885 46.6059 71.0397C46.1734 70.9376 45.7649 70.8361 45.4818 70.7486C45.4194 70.7293 45.365 70.7113 45.3188 70.6947C45.5029 70.6062 45.7587 70.5278 46.0782 70.4772C46.5164 70.4078 47.0623 70.3926 47.6806 70.4684C48.9145 70.6197 50.4318 71.1328 51.9517 72.292C52.0354 72.3756 52.1221 72.4622 52.2114 72.5513C52.9229 73.261 53.7992 74.1351 54.6265 75.058C55.5621 76.1017 56.4259 77.1977 56.9166 78.179C57.9399 80.2256 58.1344 81.8603 58.3343 83.5398C58.356 83.7222 58.3778 83.9051 58.4007 84.0892C58.4008 85.2126 58.4316 86.0801 58.4623 86.7525C58.4712 86.9455 58.4799 87.1216 58.4879 87.2827C58.508 87.687 58.5234 87.9963 58.5231 88.2382C58.5226 88.5834 58.4884 88.748 58.424 88.8419C58.3663 88.9261 58.2643 88.9805 58.0198 89.032C57.9465 89.0474 57.9033 89.0348 57.8707 89.0118C57.832 88.9846 57.7881 88.9286 57.746 88.8217C57.6608 88.6051 57.6101 88.2533 57.5692 87.7625C57.5473 87.4993 57.5285 87.2003 57.5076 86.869C57.4519 85.9838 57.3817 84.8681 57.1992 83.5907Z" stroke="#5B4F4F" stroke-width="0.3"/>
<g filter="url(#filter22_i)">
<path d="M108.801 62.4258C109.951 64.7255 111.067 67.0491 111.301 68.9258C111.781 72.7775 111.943 73.6788 109.943 74.1788C107.943 74.6789 110.443 74.1788 109.943 70.6788C109.599 69.1619 108.477 65.6903 107.551 63.1788C105.8 58.4319 96.5507 55.6788 98.0507 56.1788C99.0565 55.8435 101.213 55.0657 104.301 57.4258C105.819 58.5853 107.801 60.4258 108.801 62.4258Z" fill="#766767"/>
</g>
<path d="M110.092 70.6576L110.092 70.6575L110.09 70.6456C109.743 69.1188 108.618 65.6397 107.691 63.1269C107.241 61.906 106.313 60.8237 105.214 59.8974C104.112 58.97 102.829 58.1907 101.651 57.5782C100.473 56.9653 99.3972 56.5175 98.7098 56.254C98.644 56.2288 98.5817 56.2053 98.5232 56.1834C98.9987 56.0396 99.6213 55.8986 100.387 55.9413C101.404 55.9981 102.687 56.381 104.21 57.5449C105.722 58.7003 107.682 60.5238 108.667 62.4928C109.82 64.7994 110.922 67.0983 111.152 68.9443C111.164 69.0345 111.175 69.1231 111.185 69.21C111.291 70.0526 111.377 70.7423 111.423 71.3133C111.474 71.9446 111.476 72.417 111.405 72.7806C111.336 73.1381 111.198 73.3846 110.971 73.5734C110.738 73.7669 110.399 73.9102 109.907 74.0333C109.836 74.0511 109.771 74.0676 109.711 74.0826C109.589 74.1133 109.491 74.138 109.412 74.1565C109.441 74.1135 109.473 74.064 109.508 74.0084C109.835 73.4853 110.348 72.45 110.092 70.6576Z" stroke="#5B4F4F" stroke-width="0.3"/>
<path d="M132.276 83.3136C130.853 84.128 128.397 84.4699 126.499 83.5209C124.601 82.5718 122.812 80.8239 121.512 78.6481C120.213 76.4723 119.504 74.0402 119.537 71.8681C119.57 69.696 120.343 67.9551 121.691 67.015C123.038 66.075 124.855 66.0098 126.755 66.8334C128.655 67.6569 130.488 69.3043 131.866 71.4258C133.244 73.5473 134.058 75.9756 134.134 78.1953C134.211 80.4149 133.544 82.251 132.276 83.3136L126.838 75.2755L129.976 79.9141L132.276 83.3136Z" fill="#BB7E52"/>
<path d="M41.5507 88.1788L123.051 66.3929L127.551 74.9288L131.551 83.6788L50.5507 106.679L41.5507 88.1788Z" fill="#BB7E52"/>
<path d="M129.823 70.2786C131.095 76.654 128.533 71.9209 124.301 73.3195C121.007 73.5181 120.49 74.0798 118.301 74.7257C116.483 75.262 114.051 74.1788 111.551 75.6788C106.051 76.6788 104.301 77.2257 95.3006 79.7257C105.801 74.7257 106.301 76.2302 112.301 74.2257C114.199 73.5915 113.259 73.6788 116.051 73.6788C117.759 74.085 118.801 72.7257 122.301 71.7257C126.651 70.5827 127.595 68.154 129.823 70.2786Z" fill="#71431E"/>
<path d="M124.624 66.1788C126.83 66.4545 128.051 67.6788 129.124 68.3788C129.162 69.197 127.833 70.2426 123.124 69.6788C114.624 68.6612 109.145 72.3695 106.051 73.1788C98.7473 75.0888 88.124 76.1788 83.624 78.1788C76.0195 81.5585 70.1572 82.2754 63.124 83.6788C58.4517 84.6111 51.624 87.1788 46.624 89.1788C40.6327 90.0395 42.6698 88.5635 42.5507 88.1736C42.2548 87.2057 65.3818 82.1724 86.624 75.6788C108.122 70.1788 122.858 65.9581 124.624 66.1788Z" fill="#72421B"/>
<g filter="url(#filter23_d)">
<path d="M89.0506 87.1788C85.3628 90.4317 76.5507 93.3452 66.5507 95.1634C61.0507 96.1634 60.0766 97.6444 57.0506 98.3563C53.0506 99.2974 54.8418 99.1242 53.1348 99.4635C51.3325 99.8219 47.5954 97.3372 47.5506 97.1788C47.4729 96.9037 46.974 93.6481 52.0123 95.1634C57.0507 96.6788 68.9505 92.1788 72.0506 92.1788C75.0506 92.1788 84.3628 88.4317 89.0506 87.1788Z" fill="#7B481F"/>
</g>
<g filter="url(#filter24_d)">
<path d="M67.0507 88.1788C65.9558 88.3978 64.0507 88.1788 62.0507 88.6788C59.5507 89.7655 56.8585 90.1653 55.2517 90.2655C52.358 90.4458 51.3105 92.1982 49.7456 92.4758C47.6769 92.8426 48.6449 92.952 47.7517 93.0399C46.8086 93.1328 46.3773 91.6276 46.3258 91.4455C46.2364 91.1291 46.7165 89.8399 48.4713 89.9715C50.2261 90.1031 53.4495 88.9646 55.2517 88.9646C56.3018 88.9646 59.0507 88.6788 61.0507 87.8814C64.0507 87.1788 65.8626 87.7036 67.0507 88.1788Z" fill="#804D24"/>
</g>
<path d="M132.051 81.6788C133.551 83.3929 131.051 83.6788 126.051 85.1788C122.263 86.1423 117.031 87.5004 113.051 88.9647C104.072 92.2674 95.0506 93.6787 90.0506 95.1787C83.0506 97.6787 59.0507 104.179 51.5507 106.179C49.5307 106.462 52.3732 102.747 52.5506 102.179C52.4445 101.61 58.0507 102.679 60.0507 102.179C63.5507 101.179 65.2812 100.674 72.0506 98.9646C79.7682 97.0159 87.7765 92.9087 91.5506 92.4647C93.7533 92.2796 109.051 88.6158 113.551 86.9647C122.297 83.7558 127.051 83.6788 132.051 81.6788Z" fill="#72421B"/>
<ellipse cx="46.1102" cy="97.3916" rx="10.4013" ry="6.55128" transform="rotate(57.5403 46.1102 97.3916)" fill="#FAB06C"/>
<path d="M50.3856 104.425C47.5507 105.679 43.9448 103.443 41.5507 99.6788C39.1565 95.9149 39.6965 91.3703 41.7206 90.0827C43.7448 88.7952 47.9915 91.0728 50.3856 94.8367C52.7798 98.6006 53.2206 103.171 50.3856 104.425Z" fill="#ED8947"/>
<g filter="url(#filter25_d)">
<path d="M49.5506 102.679C48.0231 103.65 44.854 102.482 43.0712 99.6788C41.2884 96.876 41.0231 93.1505 42.5507 92.1788C44.0782 91.2072 47.2679 92.876 49.0507 95.6788C50.8335 98.4815 51.0782 101.707 49.5506 102.679Z" fill="#C06A32"/>
</g>
<path d="M47.9986 100.744C47.0701 101.335 45.5608 100.779 44.4466 99.0273C43.3323 97.2756 43.5701 95.2694 44.4986 94.6788C45.4271 94.0882 46.6716 94.8381 47.7859 96.5898C48.9001 98.3415 48.9272 100.153 47.9986 100.744Z" fill="#8E4E24"/>
<g filter="url(#filter26_d)">
<path d="M112.351 80.1486C109.889 83.7027 107.525 85.7538 99.3247 87.9401C91.1248 90.1264 87.7886 91.2555 81.1307 92.4361C85.4577 90.3267 95.2043 89.0075 98.3852 87.4692C105.541 86.2239 110.234 82.1998 112.351 80.1486Z" fill="#704323"/>
</g>
<path d="M133.551 74.6788C135.551 81.1788 132.551 83.6788 131.051 83.6788C124.551 84.1788 127.551 84.6787 129.051 80.6788C129.551 78.1788 127.051 77.6788 117.051 79.4692C115.213 79.8745 113.051 80.6788 110.051 80.6788C113.551 78.1788 120.551 77.6788 124.051 76.6788C127.551 74.6788 129.278 74.8174 128.551 71.1788C128.051 69.1788 124.175 68.7451 125.551 68.1788C129.196 66.6789 132.551 71.1788 133.551 74.6788Z" fill="#72421B"/>
<g filter="url(#filter27_d)">
<path d="M89.3103 82.9353C86.6998 84.2335 82.5027 85.7682 79.9996 86.2528C77.4964 86.4502 74.0971 88.0194 71.5261 88.8191C72.0639 88.3601 76.8287 86.2456 79.0706 85.5716C81.1038 85.2309 86.7393 83.7351 89.3103 82.9353Z" fill="#653D1D"/>
</g>
<g filter="url(#filter28_i)">
<path d="M65.0507 92.1788C66.2005 94.4785 67.3168 96.8021 67.5507 98.6788C68.0307 102.531 67.0437 102.97 66.0507 103.179C65.2014 103.358 65.5507 101.179 65.0507 97.6788C64.7062 96.1619 64.3325 94.5288 63.0507 92.1788C60.0506 86.6788 52.0506 84.1788 53.5506 84.6788C54.5565 84.3435 57.4623 84.8187 60.5507 87.1788C62.0681 88.3384 64.0507 90.1788 65.0507 92.1788Z" fill="#766767"/>
</g>
<path d="M65.1991 97.6576L65.1996 97.6575L65.1969 97.6456C64.8515 96.1242 64.4741 94.4751 63.1823 92.107C61.6623 89.3202 58.883 87.3031 56.6876 86.0486C55.604 85.4294 54.6577 84.9932 54.0659 84.7398C54.2283 84.7291 54.4147 84.7302 54.6233 84.7457C55.073 84.7791 55.6162 84.8784 56.2265 85.0617C57.447 85.4283 58.9294 86.1286 60.4596 87.298C61.9715 88.4533 63.932 90.2769 64.9165 92.2459C66.0698 94.5524 67.1718 96.8514 67.4018 98.6974C67.6412 100.618 67.5086 101.652 67.2191 102.227C66.9398 102.782 66.5033 102.93 66.0198 103.032C65.9451 103.048 65.9011 103.035 65.8686 103.013C65.8305 102.987 65.7873 102.934 65.7455 102.831C65.6607 102.621 65.61 102.278 65.5692 101.796C65.5471 101.535 65.5281 101.238 65.507 100.907C65.4514 100.035 65.381 98.9306 65.1991 97.6576Z" stroke="#5B4F4F" stroke-width="0.3"/>
<g filter="url(#filter29_i)">
<path d="M119.551 76.7761C120.626 79.039 121.461 81.2679 121.551 83.1788C121.735 87.1009 121.661 87.5224 120.532 87.8284C119.567 88.09 120.156 85.8147 119.917 82.2566C119.67 80.7261 119.402 79.0787 118.184 76.7761C115.334 71.387 106.349 70.3229 108.051 69.6788C109.205 69.2418 111.815 69.5308 115.051 71.6788C116.641 72.7342 118.616 74.8081 119.551 76.7761Z" fill="#766767"/>
</g>
<path d="M108.051 69.6788L108.051 69.6788L108.051 69.6788ZM108.051 69.6788L108.051 69.6789M108.051 69.6788L108.051 69.6789M108.051 69.6789L108.051 69.6789L108.051 69.6789ZM120.067 82.2465L120.067 82.2465L120.065 82.2327C119.818 80.6974 119.546 79.0306 118.317 76.706C116.865 73.9619 113.862 72.3316 111.469 71.3101C110.869 71.0539 110.305 70.8351 109.811 70.6464C109.728 70.6145 109.646 70.5835 109.567 70.5534C109.177 70.4046 108.84 70.2765 108.574 70.1635C108.414 70.0957 108.282 70.0347 108.182 69.9796C108.094 69.9313 108.038 69.8925 108.008 69.8637C108.026 69.8524 108.056 69.837 108.104 69.8191L108.104 69.8191C108.642 69.6153 109.55 69.5728 110.735 69.8553C111.917 70.1368 113.362 70.7381 114.968 71.8038C116.539 72.8465 118.494 74.9007 119.415 76.8405C120.489 79.1011 121.312 81.3068 121.401 83.1859C121.447 84.1666 121.477 84.9252 121.478 85.5173C121.48 86.111 121.452 86.5276 121.387 86.8281C121.323 87.1252 121.226 87.296 121.094 87.4119C120.959 87.5317 120.771 87.6082 120.493 87.6836C120.396 87.7098 120.344 87.6979 120.313 87.68C120.279 87.6605 120.239 87.6162 120.203 87.5173C120.129 87.3136 120.104 86.9687 120.102 86.4744C120.101 86.2083 120.107 85.9041 120.114 85.5659C120.131 84.6725 120.154 83.5413 120.067 82.2465Z" stroke="#5B4F4F" stroke-width="0.3"/>
<g filter="url(#filter30_i)">
<path d="M118.051 77.6788C119.126 79.9417 119.715 81.9861 119.805 83.897C119.99 87.8191 120.18 87.8729 119.051 88.1788C118.085 88.4405 118.79 88.2369 118.551 84.6788C118.304 83.1483 117.656 79.7969 116.438 77.4943C113.588 72.1052 104.849 70.8229 106.551 70.1788C107.705 69.7418 110.069 70.249 113.305 72.397C114.895 73.4524 117.116 75.7108 118.051 77.6788Z" fill="#766767"/>
</g>
<path d="M118.7 84.6687L118.701 84.6687L118.699 84.655C118.452 83.1244 117.801 79.7508 116.571 77.4242C115.121 74.6823 112.182 72.9972 109.85 71.921C109.266 71.6511 108.717 71.4187 108.238 71.2173C108.191 71.1976 108.145 71.1782 108.1 71.1592C107.679 70.9824 107.319 70.8316 107.041 70.7001C106.887 70.6273 106.761 70.5621 106.665 70.5034C106.573 70.4468 106.52 70.4031 106.495 70.3726C106.497 70.3709 106.5 70.3691 106.503 70.3672C106.524 70.3533 106.557 70.3369 106.604 70.3191L106.604 70.3191C107.136 70.1175 107.978 70.1255 109.104 70.4622C110.226 70.7976 111.613 71.4538 113.222 72.522C114.005 73.0416 114.949 73.8616 115.813 74.7975C116.678 75.7339 117.457 76.7779 117.915 77.7432C118.985 79.9943 119.566 82.0188 119.655 83.9041C119.678 84.3949 119.701 84.8252 119.722 85.2027C119.725 85.2489 119.727 85.2943 119.73 85.3388C119.747 85.6591 119.763 85.939 119.774 86.1847C119.8 86.7479 119.805 87.1189 119.772 87.3746C119.739 87.625 119.673 87.739 119.578 87.8147C119.468 87.9013 119.301 87.9556 119.011 88.0341C118.888 88.0675 118.802 88.0906 118.737 88.1016C118.71 88.1062 118.692 88.1076 118.681 88.1079C118.68 88.1057 118.68 88.1032 118.679 88.1004C118.672 88.0567 118.672 87.9858 118.678 87.8695C118.682 87.798 118.688 87.7145 118.695 87.6176C118.734 87.0937 118.802 86.18 118.7 84.6687ZM118.686 88.1257C118.686 88.1258 118.685 88.1255 118.685 88.1249L118.686 88.1257Z" stroke="#5B4F4F" stroke-width="0.3"/>
<g filter="url(#filter31_i)">
<path d="M67.0507 91.6119C68.2006 93.9116 69.3168 96.2352 69.5507 98.1119C70.5507 102.112 69.0437 102.47 68.0507 102.679C67.2014 102.858 67.5507 100.612 67.0507 97.1119C66.7063 95.5949 66.4655 94.6944 65.5507 92.1788C63.5507 86.6788 56.5506 84.6788 55.5507 84.1788C56.5565 83.8435 59.4623 83.8187 62.5507 86.1788C64.0507 87.6788 66.0507 89.6119 67.0507 91.6119Z" fill="#766767"/>
</g>
<path d="M69.4019 98.1304L69.403 98.1394L69.4052 98.1482C69.903 100.139 69.7631 101.177 69.4201 101.739C69.0814 102.293 68.52 102.427 68.0198 102.532C67.9465 102.547 67.9033 102.535 67.8707 102.512C67.832 102.485 67.7881 102.429 67.746 102.322C67.6608 102.105 67.6101 101.753 67.5692 101.262C67.5473 100.999 67.5285 100.7 67.5076 100.369C67.4519 99.4837 67.3817 98.368 67.1992 97.0907L67.1997 97.0906L67.197 97.0787C66.851 95.5548 66.6083 94.6483 65.6917 92.1275C64.6744 89.3301 62.3897 87.4322 60.2517 86.1745C59.1812 85.5448 58.1431 85.073 57.3113 84.7278C56.9218 84.5661 56.577 84.4319 56.296 84.3226C56.277 84.3152 56.2583 84.3079 56.2398 84.3007C56.1659 84.272 56.0972 84.2452 56.034 84.2203C57.2562 84.0302 59.7767 84.2511 62.4517 86.292C62.5352 86.3755 62.6202 86.4603 62.7064 86.5463C64.1737 88.0101 65.9862 89.8182 66.9166 91.6789C68.0698 93.9855 69.1718 96.2844 69.4019 98.1304Z" stroke="#5B4F4F" stroke-width="0.3"/>
<g filter="url(#filter32_i)">
<path d="M69.0507 91.1119C70.2006 93.4117 70.3168 95.2032 70.5507 97.0799C70.5507 101.58 71.0437 101.97 70.0507 102.179C69.2014 102.358 69.5507 100.112 69.0507 96.6119C68.7063 95.095 69.0355 93.906 67.5507 91.6788C65.5506 88.6788 62.5439 85.6789 60.5507 84.6788C60.2028 84.5043 56.7872 83.8717 57.0507 83.6789C57.8676 83.0808 60.9623 82.8187 64.0507 85.1788C65.5507 86.6788 68.0507 89.1119 69.0507 91.1119Z" fill="#766767"/>
</g>
<path d="M69.1992 96.5907L69.1997 96.5907L69.197 96.5787C69.1077 96.1854 69.0651 95.807 69.0215 95.4203C68.9027 94.3649 68.7769 93.2477 67.6755 91.5956C66.6695 90.0867 65.4114 88.5791 64.1541 87.3227C62.899 86.0685 61.6357 85.0554 60.6179 84.5447C60.5586 84.515 60.452 84.4824 60.329 84.4489C60.2004 84.4139 60.0376 84.3737 59.8547 84.3301C59.6678 84.2856 59.4548 84.2366 59.2338 84.1856C59.0267 84.1379 58.8125 84.0885 58.6059 84.0397C58.1734 83.9376 57.7649 83.8361 57.4818 83.7486C57.4194 83.7293 57.365 83.7113 57.3188 83.6947C57.5029 83.6062 57.7587 83.5278 58.0782 83.4772C58.5164 83.4078 59.0623 83.3926 59.6806 83.4684C60.9145 83.6197 62.4318 84.1328 63.9517 85.292C64.0354 85.3756 64.1221 85.4622 64.2114 85.5513C64.9229 86.261 65.7992 87.1351 66.6265 88.058C67.5621 89.1017 68.4259 90.1977 68.9166 91.179C69.9399 93.2256 70.1344 94.8603 70.3343 96.5398C70.356 96.7222 70.3778 96.9051 70.4007 97.0892C70.4008 98.2126 70.4316 99.0801 70.4623 99.7525C70.4712 99.9455 70.4799 100.122 70.4879 100.283C70.508 100.687 70.5234 100.996 70.5231 101.238C70.5226 101.583 70.4884 101.748 70.424 101.842C70.3663 101.926 70.2643 101.981 70.0198 102.032C69.9465 102.047 69.9033 102.035 69.8707 102.012C69.832 101.985 69.7881 101.929 69.746 101.822C69.6608 101.605 69.6101 101.253 69.5692 100.762C69.5473 100.499 69.5285 100.2 69.5076 99.869C69.4519 98.9838 69.3817 97.8681 69.1992 96.5907Z" stroke="#5B4F4F" stroke-width="0.3"/>
<g filter="url(#filter33_i)">
<path d="M120.801 75.4258C121.951 77.7255 123.067 80.0491 123.301 81.9258C123.781 85.7775 123.943 86.6788 121.943 87.1788C119.943 87.6789 122.443 87.1788 121.943 83.6788C121.599 82.1619 120.477 78.6903 119.551 76.1788C117.8 71.4319 108.551 68.6788 110.051 69.1788C111.056 68.8435 113.213 68.0657 116.301 70.4258C117.819 71.5853 119.801 73.4258 120.801 75.4258Z" fill="#766767"/>
</g>
<path d="M122.092 83.6576L122.092 83.6575L122.09 83.6456C121.743 82.1188 120.618 78.6397 119.691 76.1269C119.241 74.906 118.313 73.8237 117.214 72.8974C116.112 71.97 114.829 71.1907 113.651 70.5782C112.473 69.9653 111.397 69.5175 110.71 69.254C110.644 69.2288 110.582 69.2053 110.523 69.1834C110.999 69.0396 111.621 68.8986 112.387 68.9413C113.404 68.9981 114.687 69.381 116.21 70.5449C117.722 71.7003 119.682 73.5238 120.667 75.4928C121.82 77.7994 122.922 80.0983 123.152 81.9443C123.164 82.0345 123.175 82.1231 123.185 82.21C123.291 83.0526 123.377 83.7423 123.423 84.3133C123.474 84.9446 123.476 85.417 123.405 85.7806C123.336 86.1381 123.198 86.3846 122.971 86.5734C122.738 86.7669 122.399 86.9102 121.907 87.0333C121.836 87.0511 121.771 87.0676 121.711 87.0826C121.589 87.1133 121.491 87.138 121.412 87.1565C121.441 87.1135 121.473 87.064 121.508 87.0084C121.835 86.4853 122.348 85.45 122.092 83.6576Z" stroke="#5B4F4F" stroke-width="0.3"/>
<path d="M145.225 96.1348C143.802 96.9492 141.347 97.2911 139.449 96.3421C137.551 95.393 135.762 93.6451 134.462 91.4693C133.162 89.2935 132.453 86.8614 132.487 84.6893C132.52 82.5172 133.292 80.7763 134.64 79.8362C135.988 78.8962 137.804 78.831 139.704 79.6546C141.604 80.4781 143.438 82.1255 144.816 84.247C146.193 86.3685 147.007 88.7968 147.083 91.0165C147.16 93.2361 146.493 95.0722 145.225 96.1348L139.787 88.0967L142.925 92.7353L145.225 96.1348Z" fill="#BB7E52"/>
<path d="M54.5 101L136 79.2141L140.5 87.75L144.5 96.5L63.5 119.5L54.5 101Z" fill="#BB7E52"/>
<path d="M142.772 83.0998C144.044 89.4752 141.482 84.7421 137.25 86.1407C133.956 86.3393 133.439 86.901 131.25 87.5469C129.432 88.0832 127 87 124.5 88.5C119 89.5 117.25 90.0469 108.25 92.5469C118.75 87.5469 119.25 89.0514 125.25 87.0469C127.148 86.4127 126.209 86.5 129 86.5C130.709 86.9062 131.75 85.5469 135.25 84.5469C139.6 83.4039 140.544 80.9752 142.772 83.0998Z" fill="#71431E"/>
<path d="M137.573 79C139.779 79.2757 141 80.5 142.073 81.2C142.111 82.0182 140.783 83.0638 136.073 82.5C127.573 81.4824 122.095 85.1907 119 86C111.697 87.91 101.073 89 96.5733 91C88.9689 94.3797 83.1065 95.0966 76.0733 96.5C71.401 97.4323 64.5733 100 59.5733 102C53.582 102.861 55.6192 101.385 55.5 100.995C55.2041 100.027 78.3311 94.9936 99.5733 88.5C121.071 83 135.808 78.7793 137.573 79Z" fill="#72421B"/>
<g filter="url(#filter34_d)">
<path d="M102 100C98.3122 103.253 89.5 106.166 79.5 107.985C74 108.985 73.0259 110.466 69.9999 111.178C65.9999 112.119 67.7911 111.945 66.0841 112.285C64.2818 112.643 60.5447 110.158 60.5 110C60.4222 109.725 59.9233 106.469 64.9617 107.985C70 109.5 81.8998 105 85 105C88 105 97.3122 101.253 102 100Z" fill="#7B481F"/>
</g>
<g filter="url(#filter35_d)">
<path d="M80 101C78.9051 101.219 77 101 75 101.5C72.5 102.587 69.8078 102.987 68.201 103.087C65.3073 103.267 64.2599 105.019 62.6949 105.297C60.6263 105.664 61.5942 105.773 60.701 105.861C59.7579 105.954 59.3266 104.449 59.2751 104.267C59.1857 103.95 59.6658 102.661 61.4206 102.793C63.1755 102.924 66.3988 101.786 68.201 101.786C69.2512 101.786 72 101.5 74 100.703C77 100 78.8119 100.525 80 101Z" fill="#804D24"/>
</g>
<path d="M145 94.5C146.5 96.2141 144 96.5 139 98C135.212 98.9635 129.981 100.322 126 101.786C117.021 105.089 108 106.5 103 108C95.9999 110.5 72 117 64.5 119C62.48 119.283 65.3225 115.568 65.5 115C65.3938 114.432 71 115.5 73 115C76.5 114 78.2306 113.495 84.9999 111.786C92.7176 109.837 100.726 105.73 104.5 105.286C106.703 105.101 122 101.437 126.5 99.7859C135.246 96.577 140 96.5 145 94.5Z" fill="#72421B"/>
<ellipse cx="59.0596" cy="110.213" rx="10.4013" ry="6.55128" transform="rotate(57.5403 59.0596 110.213)" fill="#FAB06C"/>
<path d="M63.335 117.246C60.5 118.5 56.8941 116.264 54.5 112.5C52.1058 108.736 52.6458 104.191 54.67 102.904C56.6941 101.616 60.9408 103.894 63.335 107.658C65.7291 111.422 66.1699 115.992 63.335 117.246Z" fill="#ED8947"/>
<g filter="url(#filter36_d)">
<path d="M62.5 115.5C60.9724 116.472 57.8034 115.303 56.0206 112.5C54.2378 109.697 53.9724 105.972 55.5 105C57.0276 104.028 60.2172 105.697 62 108.5C63.7828 111.303 64.0275 114.528 62.5 115.5Z" fill="#C06A32"/>
</g>
<path d="M60.9479 113.565C60.0194 114.156 58.5101 113.6 57.3959 111.848C56.2817 110.097 56.5194 108.091 57.4479 107.5C58.3765 106.909 59.621 107.659 60.7352 109.411C61.8494 111.163 61.8765 112.975 60.9479 113.565Z" fill="#8E4E24"/>
<g filter="url(#filter37_d)">
<path d="M116.573 93.1751C112.748 93.3365 112.19 93.181 105.717 96.3632C99.2428 99.5453 95.958 98.8973 90.3466 100.48C90.0647 99.907 98.9025 98.8531 105.376 95.671C111.85 92.4888 116.292 92.6016 116.573 93.1751Z" fill="#DCA172"/>
</g>
<g filter="url(#filter38_d)">
<path d="M123.3 94.9698C120.838 98.5239 118.474 100.575 110.274 102.761C102.074 104.948 98.7379 106.077 92.08 107.257C96.4071 105.148 106.154 103.829 109.335 102.29C116.491 101.045 121.183 97.021 123.3 94.9698Z" fill="#704323"/>
</g>
<path d="M146.5 87.5C148.5 94 145.5 96.5 144 96.5C137.5 97 140.5 97.4999 142 93.5C142.5 91 140 90.5 130 92.2904C128.162 92.6957 126 93.5 123 93.5C126.5 91 133.5 90.5 137 89.5C140.5 87.5 142.228 87.6386 141.5 84C141 82 137.124 81.5663 138.5 81C142.145 79.5001 145.5 84 146.5 87.5Z" fill="#72421B"/>
<g filter="url(#filter39_d)">
<path d="M98.2597 92.7565C95.6492 94.0547 91.4521 95.5894 88.9489 96.074C86.4457 96.2714 83.0465 97.8406 80.4754 98.6403C81.0133 98.1813 85.778 96.0668 88.0199 95.3928C90.0531 95.0521 95.6886 93.5563 98.2597 92.7565Z" fill="#653D1D"/>
</g>
<g filter="url(#filter40_i)">
<path d="M78 105C79.1498 107.3 80.2661 109.623 80.5 111.5C80.98 115.352 79.9931 115.791 79 116C78.1507 116.179 78.5 114 78 110.5C77.6556 108.983 77.2818 107.35 76 105C73 99.5 65 97 66.5 97.5C67.5058 97.1647 70.4116 97.6399 73.5 100C75.0174 101.16 77 103 78 105Z" fill="#766767"/>
</g>
<path d="M78.1485 110.479L78.149 110.479L78.1463 110.467C77.8008 108.945 77.4234 107.296 76.1317 104.928C74.6116 102.141 71.8323 100.124 69.6369 98.8698C68.5534 98.2506 67.6071 97.8144 67.0152 97.561C67.1776 97.5503 67.364 97.5514 67.5727 97.5669C68.0223 97.6003 68.5655 97.6996 69.1759 97.8829C70.3963 98.2495 71.8787 98.9498 73.4089 100.119C74.9208 101.275 76.8813 103.098 77.8658 105.067C79.0191 107.374 80.1211 109.673 80.3511 111.519C80.5905 113.44 80.4579 114.474 80.1684 115.049C79.8892 115.603 79.4526 115.751 78.9691 115.853C78.8945 115.869 78.8505 115.857 78.8179 115.834C78.7799 115.809 78.7366 115.755 78.6948 115.652C78.6101 115.442 78.5594 115.099 78.5185 114.617C78.4964 114.356 78.4774 114.059 78.4563 113.728C78.4007 112.856 78.3303 111.752 78.1485 110.479Z" stroke="#5B4F4F" stroke-width="0.3"/>
<g filter="url(#filter41_i)">
<path d="M132.5 89.5973C133.575 91.8602 134.41 94.0891 134.5 96C134.685 99.9221 134.61 100.344 133.482 100.65C132.516 100.911 133.105 98.6359 132.866 95.0778C132.62 93.5473 132.351 91.8999 131.133 89.5973C128.283 84.2082 119.298 83.1441 121 82.5C122.155 82.0629 124.764 82.352 128 84.5C129.59 85.5554 131.565 87.6293 132.5 89.5973Z" fill="#766767"/>
</g>
<path d="M121 82.5L121 82.5L121 82.5ZM121 82.5L121 82.5001M121 82.5L121 82.5001M121 82.5001L121 82.5001L121 82.5001ZM133.016 95.0677L133.016 95.0677L133.014 95.0539C132.767 93.5186 132.495 91.8518 131.266 89.5272C129.814 86.7831 126.811 85.1528 124.419 84.1313C123.818 83.8751 123.254 83.6563 122.76 83.4676C122.677 83.4357 122.596 83.4047 122.517 83.3746C122.126 83.2258 121.79 83.0977 121.523 82.9847C121.363 82.9169 121.232 82.8559 121.131 82.8008C121.043 82.7525 120.988 82.7137 120.957 82.6849C120.976 82.6736 121.006 82.6582 121.053 82.6403L121.053 82.6403C121.591 82.4365 122.499 82.394 123.685 82.6765C124.866 82.958 126.312 83.5593 127.917 84.625C129.488 85.6677 131.443 87.7219 132.365 89.6617C133.438 91.9223 134.262 94.128 134.35 96.0071C134.396 96.9878 134.426 97.7464 134.428 98.3385C134.429 98.9322 134.401 99.3488 134.337 99.6493C134.273 99.9464 134.175 100.117 134.044 100.233C133.908 100.353 133.72 100.429 133.442 100.505C133.346 100.531 133.294 100.519 133.262 100.501C133.229 100.482 133.189 100.437 133.153 100.339C133.079 100.135 133.053 99.7899 133.052 99.2956C133.051 99.0295 133.057 98.7253 133.063 98.3871C133.081 97.4937 133.103 96.3625 133.016 95.0677Z" stroke="#5B4F4F" stroke-width="0.3"/>
<g filter="url(#filter42_i)">
<path d="M131 90.5C132.075 92.7629 132.664 94.8073 132.754 96.7182C132.939 100.64 133.129 100.694 132 101C131.035 101.262 131.739 101.058 131.5 97.5C131.254 95.9695 130.605 92.6181 129.388 90.3155C126.537 84.9264 117.798 83.6441 119.5 83C120.655 82.563 123.018 83.0702 126.254 85.2182C127.844 86.2736 130.065 88.532 131 90.5Z" fill="#766767"/>
</g>
<path d="M131.65 97.4899L131.65 97.4899L131.648 97.4762C131.402 95.9456 130.751 92.572 129.52 90.2454C128.07 87.5035 125.131 85.8184 122.8 84.7422C122.215 84.4723 121.667 84.2399 121.187 84.0385C121.14 84.0188 121.094 83.9994 121.049 83.9804C120.628 83.8036 120.269 83.6528 119.99 83.5213C119.836 83.4485 119.71 83.3833 119.615 83.3246C119.522 83.268 119.47 83.2243 119.444 83.1938C119.446 83.1921 119.449 83.1903 119.452 83.1884C119.473 83.1745 119.506 83.1581 119.553 83.1403L119.553 83.1403C120.086 82.9387 120.927 82.9467 122.054 83.2834C123.176 83.6188 124.562 84.275 126.171 85.3432C126.954 85.8628 127.898 86.6828 128.763 87.6187C129.628 88.5551 130.406 89.5991 130.865 90.5644C131.934 92.8155 132.516 94.84 132.604 96.7253C132.628 97.2161 132.651 97.6464 132.671 98.0239C132.674 98.0701 132.676 98.1155 132.679 98.16C132.696 98.4803 132.712 98.7602 132.723 99.0059C132.749 99.5691 132.754 99.9401 132.721 100.196C132.688 100.446 132.623 100.56 132.527 100.636C132.418 100.723 132.25 100.777 131.961 100.855C131.837 100.889 131.751 100.912 131.686 100.923C131.659 100.927 131.641 100.929 131.63 100.929C131.63 100.927 131.629 100.924 131.629 100.922C131.622 100.878 131.621 100.807 131.627 100.691C131.631 100.619 131.638 100.536 131.645 100.439C131.684 99.9148 131.751 99.0012 131.65 97.4899ZM131.635 100.947C131.635 100.947 131.635 100.947 131.635 100.946L131.635 100.947Z" stroke="#5B4F4F" stroke-width="0.3"/>
<g filter="url(#filter43_i)">
<path d="M80 104.433C81.1499 106.733 82.2662 109.056 82.5 110.933C83.5 114.933 81.9931 115.291 81 115.5C80.1507 115.679 80.5 113.433 80 109.933C79.6556 108.416 79.4148 107.516 78.5 105C76.5 99.5 69.5 97.5 68.5 97C69.5058 96.6647 72.4116 96.6399 75.5 99C77 100.5 79 102.433 80 104.433Z" fill="#766767"/>
</g>
<path d="M82.3512 110.952L82.3523 110.961L82.3545 110.969C82.8523 112.96 82.7124 113.998 82.3694 114.56C82.0307 115.115 81.4693 115.248 80.9691 115.353C80.8958 115.369 80.8526 115.356 80.82 115.333C80.7813 115.306 80.7375 115.25 80.6954 115.143C80.6101 114.926 80.5594 114.574 80.5185 114.084C80.4966 113.82 80.4778 113.521 80.4569 113.19C80.4012 112.305 80.331 111.189 80.1485 109.912L80.149 109.912L80.1463 109.9C79.8003 108.376 79.5577 107.469 78.641 104.949C77.6237 102.151 75.3391 100.253 73.201 98.9957C72.1305 98.366 71.0924 97.8942 70.2606 97.549C69.8711 97.3873 69.5263 97.2531 69.2453 97.1438C69.2263 97.1364 69.2076 97.1291 69.1892 97.1219C69.1152 97.0932 69.0466 97.0664 68.9833 97.0415C70.2055 96.8514 72.726 97.0723 75.401 99.1131C75.4846 99.1967 75.5695 99.2815 75.6557 99.3675C77.123 100.831 78.9355 102.639 79.8659 104.5C81.0191 106.807 82.1211 109.106 82.3512 110.952Z" stroke="#5B4F4F" stroke-width="0.3"/>
<g filter="url(#filter44_i)">
<path d="M82 103.933C83.1499 106.233 83.2661 108.024 83.5 109.901C83.5 114.401 83.9931 114.791 83 115C82.1507 115.179 82.5 112.933 82 109.433C81.6556 107.916 81.9848 106.727 80.5 104.5C78.4999 101.5 75.4933 98.5001 73.5 97.5C73.1521 97.3255 69.7365 96.6929 70 96.5C70.8169 95.902 73.9116 95.6399 77 98C78.5 99.5 81 101.933 82 103.933Z" fill="#766767"/>
</g>
<path d="M82.1485 109.412L82.149 109.412L82.1463 109.4C82.057 109.007 82.0144 108.628 81.9709 108.242C81.852 107.186 81.7262 106.069 80.6248 104.417C79.6188 102.908 78.3607 101.4 77.1035 100.144C75.8484 98.8897 74.585 97.8766 73.5672 97.3659C73.5079 97.3362 73.4013 97.3036 73.2783 97.2701C73.1498 97.2351 72.9869 97.1949 72.804 97.1513C72.6171 97.1068 72.4042 97.0578 72.1832 97.0068C71.976 96.9591 71.7618 96.9097 71.5552 96.8609C71.1228 96.7588 70.7142 96.6573 70.4311 96.5698C70.3687 96.5505 70.3143 96.5325 70.2681 96.5159C70.4522 96.4274 70.708 96.349 71.0275 96.2984C71.4658 96.229 72.0116 96.2138 72.6299 96.2896C73.8638 96.4409 75.3812 96.954 76.901 98.1132C76.9847 98.1968 77.0714 98.2834 77.1607 98.3724C77.8722 99.0822 78.7485 99.9563 79.5758 100.879C80.5115 101.923 81.3752 103.019 81.8659 104C82.8892 106.047 83.0837 107.681 83.2836 109.361C83.3053 109.543 83.3271 109.726 83.35 109.91C83.3502 111.034 83.381 111.901 83.4117 112.574C83.4205 112.767 83.4292 112.943 83.4372 113.104C83.4573 113.508 83.4727 113.817 83.4724 114.059C83.472 114.405 83.4377 114.569 83.3733 114.663C83.3156 114.747 83.2136 114.802 82.9691 114.853C82.8958 114.869 82.8526 114.856 82.82 114.833C82.7813 114.806 82.7375 114.75 82.6954 114.643C82.6101 114.426 82.5594 114.074 82.5185 113.584C82.4966 113.321 82.4778 113.022 82.4569 112.69C82.4012 111.805 82.331 110.689 82.1485 109.412Z" stroke="#5B4F4F" stroke-width="0.3"/>
<g filter="url(#filter45_i)">
<path d="M133.75 88.2469C134.9 90.5467 136.017 92.8703 136.25 94.7469C136.73 98.5987 136.893 99.5 134.893 100C132.893 100.5 135.393 100 134.893 96.5C134.548 94.9831 133.426 91.5115 132.5 89C130.75 84.2531 121.5 81.5 123 82C124.006 81.6647 126.162 80.8869 129.25 83.2469C130.768 84.4065 132.75 86.2469 133.75 88.2469Z" fill="#766767"/>
</g>
<path d="M135.041 96.4788L135.042 96.4787L135.039 96.4668C134.692 94.94 133.567 91.4609 132.641 88.9481C132.191 87.7272 131.263 86.6449 130.163 85.7186C129.062 84.7912 127.778 84.0119 126.6 83.3993C125.422 82.7865 124.346 82.3387 123.659 82.0752C123.593 82.05 123.531 82.0265 123.473 82.0046C123.948 81.8608 124.571 81.7198 125.336 81.7625C126.353 81.8193 127.636 82.2022 129.159 83.3661C130.671 84.5215 132.632 86.345 133.616 88.314C134.77 90.6206 135.872 92.9195 136.102 94.7655C136.113 94.8557 136.124 94.9443 136.135 95.0312C136.24 95.8738 136.326 96.5635 136.373 97.1345C136.424 97.7658 136.425 98.2382 136.354 98.6018C136.285 98.9593 136.147 99.2058 135.92 99.3946C135.687 99.5881 135.349 99.7314 134.856 99.8545C134.785 99.8723 134.72 99.8888 134.66 99.9038C134.539 99.9345 134.441 99.9592 134.362 99.9777C134.39 99.9347 134.423 99.8852 134.457 99.8295C134.784 99.3065 135.297 98.2712 135.041 96.4788Z" stroke="#5B4F4F" stroke-width="0.3"/>
</g>
<defs>
<filter id="filter0_d" x="-16.9581" y="22.7785" width="122.577" height="97.0116" filterUnits="userSpaceOnUse" color-interpolation-filters="sRGB">
<feFlood flood-opacity="0" result="BackgroundImageFix"/>
<feColorMatrix in="SourceAlpha" type="matrix" values="0 0 0 0 0 0 0 0 0 0 0 0 0 0 0 0 0 0 127 0"/>
<feOffset dy="4"/>
<feGaussianBlur stdDeviation="20"/>
<feColorMatrix type="matrix" values="0 0 0 0 0 0 0 0 0 0 0 0 0 0 0 0 0 0 0.25 0"/>
<feBlend mode="normal" in2="BackgroundImageFix" result="effect1_dropShadow"/>
<feBlend mode="normal" in="SourceGraphic" in2="effect1_dropShadow" result="shape"/>
</filter>
<filter id="filter1_d" x="-17.9493" y="23.8065" width="101" height="89.0376" filterUnits="userSpaceOnUse" color-interpolation-filters="sRGB">
<feFlood flood-opacity="0" result="BackgroundImageFix"/>
<feColorMatrix in="SourceAlpha" type="matrix" values="0 0 0 0 0 0 0 0 0 0 0 0 0 0 0 0 0 0 127 0"/>
<feOffset dy="4"/>
<feGaussianBlur stdDeviation="20"/>
<feColorMatrix type="matrix" values="0 0 0 0 0 0 0 0 0 0 0 0 0 0 0 0 0 0 0.25 0"/>
<feBlend mode="normal" in2="BackgroundImageFix" result="effect1_dropShadow"/>
<feBlend mode="normal" in="SourceGraphic" in2="effect1_dropShadow" result="shape"/>
</filter>
<filter id="filter2_d" x="-34.4751" y="19.2434" width="112.84" height="114.505" filterUnits="userSpaceOnUse" color-interpolation-filters="sRGB">
<feFlood flood-opacity="0" result="BackgroundImageFix"/>
<feColorMatrix in="SourceAlpha" type="matrix" values="0 0 0 0 0 0 0 0 0 0 0 0 0 0 0 0 0 0 127 0"/>
<feOffset dy="4"/>
<feGaussianBlur stdDeviation="25"/>
<feColorMatrix type="matrix" values="0 0 0 0 0 0 0 0 0 0 0 0 0 0 0 0 0 0 0.25 0"/>
<feBlend mode="normal" in2="BackgroundImageFix" result="effect1_dropShadow"/>
<feBlend mode="normal" in="SourceGraphic" in2="effect1_dropShadow" result="shape"/>
</filter>
<filter id="filter3_d" x="40.3574" y="47.7734" width="34.2668" height="24.3851" filterUnits="userSpaceOnUse" color-interpolation-filters="sRGB">
<feFlood flood-opacity="0" result="BackgroundImageFix"/>
<feColorMatrix in="SourceAlpha" type="matrix" values="0 0 0 0 0 0 0 0 0 0 0 0 0 0 0 0 0 0 127 0"/>
<feOffset dy="4"/>
<feGaussianBlur stdDeviation="2"/>
<feColorMatrix type="matrix" values="0 0 0 0 0 0 0 0 0 0 0 0 0 0 0 0 0 0 0.25 0"/>
<feBlend mode="normal" in2="BackgroundImageFix" result="effect1_dropShadow"/>
<feBlend mode="normal" in="SourceGraphic" in2="effect1_dropShadow" result="shape"/>
</filter>
<filter id="filter4_d" x="43.1307" y="57.9433" width="40.3693" height="14.4927" filterUnits="userSpaceOnUse" color-interpolation-filters="sRGB">
<feFlood flood-opacity="0" result="BackgroundImageFix"/>
<feColorMatrix in="SourceAlpha" type="matrix" values="0 0 0 0 0 0 0 0 0 0 0 0 0 0 0 0 0 0 127 0"/>
<feOffset dy="4"/>
<feGaussianBlur stdDeviation="2"/>
<feColorMatrix type="matrix" values="0 0 0 0 0 0 0 0 0 0 0 0 0 0 0 0 0 0 0.25 0"/>
<feBlend mode="normal" in2="BackgroundImageFix" result="effect1_dropShadow"/>
<feBlend mode="normal" in="SourceGraphic" in2="effect1_dropShadow" result="shape"/>
</filter>
<filter id="filter5_i" x="29.3651" y="56.4715" width="17.0512" height="26.3125" filterUnits="userSpaceOnUse" color-interpolation-filters="sRGB">
<feFlood flood-opacity="0" result="BackgroundImageFix"/>
<feBlend mode="normal" in="SourceGraphic" in2="BackgroundImageFix" result="shape"/>
<feColorMatrix in="SourceAlpha" type="matrix" values="0 0 0 0 0 0 0 0 0 0 0 0 0 0 0 0 0 0 127 0" result="hardAlpha"/>
<feOffset dy="4"/>
<feGaussianBlur stdDeviation="2"/>
<feComposite in2="hardAlpha" operator="arithmetic" k2="-1" k3="1"/>
<feColorMatrix type="matrix" values="0 0 0 0 0 0 0 0 0 0 0 0 0 0 0 0 0 0 0.25 0"/>
<feBlend mode="normal" in2="shape" result="effect1_innerShadow"/>
</filter>
<filter id="filter6_i" x="83.7964" y="41.4606" width="17.1211" height="26.0961" filterUnits="userSpaceOnUse" color-interpolation-filters="sRGB">
<feFlood flood-opacity="0" result="BackgroundImageFix"/>
<feBlend mode="normal" in="SourceGraphic" in2="BackgroundImageFix" result="shape"/>
<feColorMatrix in="SourceAlpha" type="matrix" values="0 0 0 0 0 0 0 0 0 0 0 0 0 0 0 0 0 0 127 0" result="hardAlpha"/>
<feOffset dy="4"/>
<feGaussianBlur stdDeviation="2"/>
<feComposite in2="hardAlpha" operator="arithmetic" k2="-1" k3="1"/>
<feColorMatrix type="matrix" values="0 0 0 0 0 0 0 0 0 0 0 0 0 0 0 0 0 0 0.25 0"/>
<feBlend mode="normal" in2="shape" result="effect1_innerShadow"/>
</filter>
<filter id="filter7_i" x="82.2864" y="42.0786" width="16.8912" height="25.9012" filterUnits="userSpaceOnUse" color-interpolation-filters="sRGB">
<feFlood flood-opacity="0" result="BackgroundImageFix"/>
<feBlend mode="normal" in="SourceGraphic" in2="BackgroundImageFix" result="shape"/>
<feColorMatrix in="SourceAlpha" type="matrix" values="0 0 0 0 0 0 0 0 0 0 0 0 0 0 0 0 0 0 127 0" result="hardAlpha"/>
<feOffset dy="4"/>
<feGaussianBlur stdDeviation="2"/>
<feComposite in2="hardAlpha" operator="arithmetic" k2="-1" k3="1"/>
<feColorMatrix type="matrix" values="0 0 0 0 0 0 0 0 0 0 0 0 0 0 0 0 0 0 0.25 0"/>
<feBlend mode="normal" in2="shape" result="effect1_innerShadow"/>
</filter>
<filter id="filter8_i" x="31.5507" y="56.0798" width="16.9297" height="26.1894" filterUnits="userSpaceOnUse" color-interpolation-filters="sRGB">
<feFlood flood-opacity="0" result="BackgroundImageFix"/>
<feBlend mode="normal" in="SourceGraphic" in2="BackgroundImageFix" result="shape"/>
<feColorMatrix in="SourceAlpha" type="matrix" values="0 0 0 0 0 0 0 0 0 0 0 0 0 0 0 0 0 0 127 0" result="hardAlpha"/>
<feOffset dy="4"/>
<feGaussianBlur stdDeviation="2"/>
<feComposite in2="hardAlpha" operator="arithmetic" k2="-1" k3="1"/>
<feColorMatrix type="matrix" values="0 0 0 0 0 0 0 0 0 0 0 0 0 0 0 0 0 0 0.25 0"/>
<feBlend mode="normal" in2="shape" result="effect1_innerShadow"/>
</filter>
<filter id="filter9_i" x="33.0251" y="55.3559" width="17.3717" height="26.5298" filterUnits="userSpaceOnUse" color-interpolation-filters="sRGB">
<feFlood flood-opacity="0" result="BackgroundImageFix"/>
<feBlend mode="normal" in="SourceGraphic" in2="BackgroundImageFix" result="shape"/>
<feColorMatrix in="SourceAlpha" type="matrix" values="0 0 0 0 0 0 0 0 0 0 0 0 0 0 0 0 0 0 127 0" result="hardAlpha"/>
<feOffset dy="4"/>
<feGaussianBlur stdDeviation="2"/>
<feComposite in2="hardAlpha" operator="arithmetic" k2="-1" k3="1"/>
<feColorMatrix type="matrix" values="0 0 0 0 0 0 0 0 0 0 0 0 0 0 0 0 0 0 0.25 0"/>
<feBlend mode="normal" in2="shape" result="effect1_innerShadow"/>
</filter>
<filter id="filter10_i" x="85.7651" y="40.9673" width="16.7936" height="25.7724" filterUnits="userSpaceOnUse" color-interpolation-filters="sRGB">
<feFlood flood-opacity="0" result="BackgroundImageFix"/>
<feBlend mode="normal" in="SourceGraphic" in2="BackgroundImageFix" result="shape"/>
<feColorMatrix in="SourceAlpha" type="matrix" values="0 0 0 0 0 0 0 0 0 0 0 0 0 0 0 0 0 0 127 0" result="hardAlpha"/>
<feOffset dy="4"/>
<feGaussianBlur stdDeviation="2"/>
<feComposite in2="hardAlpha" operator="arithmetic" k2="-1" k3="1"/>
<feColorMatrix type="matrix" values="0 0 0 0 0 0 0 0 0 0 0 0 0 0 0 0 0 0 0.25 0"/>
<feBlend mode="normal" in2="shape" result="effect1_innerShadow"/>
</filter>
<filter id="filter11_d" x="-4.95808" y="34.7785" width="122.577" height="97.0116" filterUnits="userSpaceOnUse" color-interpolation-filters="sRGB">
<feFlood flood-opacity="0" result="BackgroundImageFix"/>
<feColorMatrix in="SourceAlpha" type="matrix" values="0 0 0 0 0 0 0 0 0 0 0 0 0 0 0 0 0 0 127 0"/>
<feOffset dy="4"/>
<feGaussianBlur stdDeviation="20"/>
<feColorMatrix type="matrix" values="0 0 0 0 0 0 0 0 0 0 0 0 0 0 0 0 0 0 0.25 0"/>
<feBlend mode="normal" in2="BackgroundImageFix" result="effect1_dropShadow"/>
<feBlend mode="normal" in="SourceGraphic" in2="effect1_dropShadow" result="shape"/>
</filter>
<filter id="filter12_d" x="-5.94933" y="35.8065" width="101" height="89.0376" filterUnits="userSpaceOnUse" color-interpolation-filters="sRGB">
<feFlood flood-opacity="0" result="BackgroundImageFix"/>
<feColorMatrix in="SourceAlpha" type="matrix" values="0 0 0 0 0 0 0 0 0 0 0 0 0 0 0 0 0 0 127 0"/>
<feOffset dy="4"/>
<feGaussianBlur stdDeviation="20"/>
<feColorMatrix type="matrix" values="0 0 0 0 0 0 0 0 0 0 0 0 0 0 0 0 0 0 0.25 0"/>
<feBlend mode="normal" in2="BackgroundImageFix" result="effect1_dropShadow"/>
<feBlend mode="normal" in="SourceGraphic" in2="effect1_dropShadow" result="shape"/>
</filter>
<filter id="filter13_d" x="-22.4751" y="31.2434" width="112.84" height="114.505" filterUnits="userSpaceOnUse" color-interpolation-filters="sRGB">
<feFlood flood-opacity="0" result="BackgroundImageFix"/>
<feColorMatrix in="SourceAlpha" type="matrix" values="0 0 0 0 0 0 0 0 0 0 0 0 0 0 0 0 0 0 127 0"/>
<feOffset dy="4"/>
<feGaussianBlur stdDeviation="25"/>
<feColorMatrix type="matrix" values="0 0 0 0 0 0 0 0 0 0 0 0 0 0 0 0 0 0 0.25 0"/>
<feBlend mode="normal" in2="BackgroundImageFix" result="effect1_dropShadow"/>
<feBlend mode="normal" in="SourceGraphic" in2="effect1_dropShadow" result="shape"/>
</filter>
<filter id="filter14_d" x="61.3574" y="62.7733" width="34.2668" height="24.3851" filterUnits="userSpaceOnUse" color-interpolation-filters="sRGB">
<feFlood flood-opacity="0" result="BackgroundImageFix"/>
<feColorMatrix in="SourceAlpha" type="matrix" values="0 0 0 0 0 0 0 0 0 0 0 0 0 0 0 0 0 0 127 0"/>
<feOffset dy="4"/>
<feGaussianBlur stdDeviation="2"/>
<feColorMatrix type="matrix" values="0 0 0 0 0 0 0 0 0 0 0 0 0 0 0 0 0 0 0.25 0"/>
<feBlend mode="normal" in2="BackgroundImageFix" result="effect1_dropShadow"/>
<feBlend mode="normal" in="SourceGraphic" in2="effect1_dropShadow" result="shape"/>
</filter>
<filter id="filter15_d" x="62.1442" y="69.1486" width="41.2937" height="20.6635" filterUnits="userSpaceOnUse" color-interpolation-filters="sRGB">
<feFlood flood-opacity="0" result="BackgroundImageFix"/>
<feColorMatrix in="SourceAlpha" type="matrix" values="0 0 0 0 0 0 0 0 0 0 0 0 0 0 0 0 0 0 127 0"/>
<feOffset dy="4"/>
<feGaussianBlur stdDeviation="2"/>
<feColorMatrix type="matrix" values="0 0 0 0 0 0 0 0 0 0 0 0 0 0 0 0 0 0 0.25 0"/>
<feBlend mode="normal" in2="BackgroundImageFix" result="effect1_dropShadow"/>
<feBlend mode="normal" in="SourceGraphic" in2="effect1_dropShadow" result="shape"/>
</filter>
<filter id="filter16_d" x="51.1287" y="66.9353" width="26.579" height="13.8838" filterUnits="userSpaceOnUse" color-interpolation-filters="sRGB">
<feFlood flood-opacity="0" result="BackgroundImageFix"/>
<feColorMatrix in="SourceAlpha" type="matrix" values="0 0 0 0 0 0 0 0 0 0 0 0 0 0 0 0 0 0 127 0"/>
<feOffset dy="4"/>
<feGaussianBlur stdDeviation="2"/>
<feColorMatrix type="matrix" values="0 0 0 0 0 0 0 0 0 0 0 0 0 0 0 0 0 0 0.25 0"/>
<feBlend mode="normal" in2="BackgroundImageFix" result="effect1_dropShadow"/>
<feBlend mode="normal" in="SourceGraphic" in2="effect1_dropShadow" result="shape"/>
</filter>
<filter id="filter17_i" x="41.3651" y="68.4715" width="17.0512" height="26.3125" filterUnits="userSpaceOnUse" color-interpolation-filters="sRGB">
<feFlood flood-opacity="0" result="BackgroundImageFix"/>
<feBlend mode="normal" in="SourceGraphic" in2="BackgroundImageFix" result="shape"/>
<feColorMatrix in="SourceAlpha" type="matrix" values="0 0 0 0 0 0 0 0 0 0 0 0 0 0 0 0 0 0 127 0" result="hardAlpha"/>
<feOffset dy="4"/>
<feGaussianBlur stdDeviation="2"/>
<feComposite in2="hardAlpha" operator="arithmetic" k2="-1" k3="1"/>
<feColorMatrix type="matrix" values="0 0 0 0 0 0 0 0 0 0 0 0 0 0 0 0 0 0 0.25 0"/>
<feBlend mode="normal" in2="shape" result="effect1_innerShadow"/>
</filter>
<filter id="filter18_i" x="95.7964" y="53.4606" width="17.1211" height="26.0961" filterUnits="userSpaceOnUse" color-interpolation-filters="sRGB">
<feFlood flood-opacity="0" result="BackgroundImageFix"/>
<feBlend mode="normal" in="SourceGraphic" in2="BackgroundImageFix" result="shape"/>
<feColorMatrix in="SourceAlpha" type="matrix" values="0 0 0 0 0 0 0 0 0 0 0 0 0 0 0 0 0 0 127 0" result="hardAlpha"/>
<feOffset dy="4"/>
<feGaussianBlur stdDeviation="2"/>
<feComposite in2="hardAlpha" operator="arithmetic" k2="-1" k3="1"/>
<feColorMatrix type="matrix" values="0 0 0 0 0 0 0 0 0 0 0 0 0 0 0 0 0 0 0.25 0"/>
<feBlend mode="normal" in2="shape" result="effect1_innerShadow"/>
</filter>
<filter id="filter19_i" x="94.2864" y="54.0786" width="16.8912" height="25.9012" filterUnits="userSpaceOnUse" color-interpolation-filters="sRGB">
<feFlood flood-opacity="0" result="BackgroundImageFix"/>
<feBlend mode="normal" in="SourceGraphic" in2="BackgroundImageFix" result="shape"/>
<feColorMatrix in="SourceAlpha" type="matrix" values="0 0 0 0 0 0 0 0 0 0 0 0 0 0 0 0 0 0 127 0" result="hardAlpha"/>
<feOffset dy="4"/>
<feGaussianBlur stdDeviation="2"/>
<feComposite in2="hardAlpha" operator="arithmetic" k2="-1" k3="1"/>
<feColorMatrix type="matrix" values="0 0 0 0 0 0 0 0 0 0 0 0 0 0 0 0 0 0 0.25 0"/>
<feBlend mode="normal" in2="shape" result="effect1_innerShadow"/>
</filter>
<filter id="filter20_i" x="43.5507" y="68.0798" width="16.9297" height="26.1894" filterUnits="userSpaceOnUse" color-interpolation-filters="sRGB">
<feFlood flood-opacity="0" result="BackgroundImageFix"/>
<feBlend mode="normal" in="SourceGraphic" in2="BackgroundImageFix" result="shape"/>
<feColorMatrix in="SourceAlpha" type="matrix" values="0 0 0 0 0 0 0 0 0 0 0 0 0 0 0 0 0 0 127 0" result="hardAlpha"/>
<feOffset dy="4"/>
<feGaussianBlur stdDeviation="2"/>
<feComposite in2="hardAlpha" operator="arithmetic" k2="-1" k3="1"/>
<feColorMatrix type="matrix" values="0 0 0 0 0 0 0 0 0 0 0 0 0 0 0 0 0 0 0.25 0"/>
<feBlend mode="normal" in2="shape" result="effect1_innerShadow"/>
</filter>
<filter id="filter21_i" x="45.0251" y="67.3559" width="17.3717" height="26.5298" filterUnits="userSpaceOnUse" color-interpolation-filters="sRGB">
<feFlood flood-opacity="0" result="BackgroundImageFix"/>
<feBlend mode="normal" in="SourceGraphic" in2="BackgroundImageFix" result="shape"/>
<feColorMatrix in="SourceAlpha" type="matrix" values="0 0 0 0 0 0 0 0 0 0 0 0 0 0 0 0 0 0 127 0" result="hardAlpha"/>
<feOffset dy="4"/>
<feGaussianBlur stdDeviation="2"/>
<feComposite in2="hardAlpha" operator="arithmetic" k2="-1" k3="1"/>
<feColorMatrix type="matrix" values="0 0 0 0 0 0 0 0 0 0 0 0 0 0 0 0 0 0 0.25 0"/>
<feBlend mode="normal" in2="shape" result="effect1_innerShadow"/>
</filter>
<filter id="filter22_i" x="97.7651" y="52.9673" width="16.7936" height="25.7724" filterUnits="userSpaceOnUse" color-interpolation-filters="sRGB">
<feFlood flood-opacity="0" result="BackgroundImageFix"/>
<feBlend mode="normal" in="SourceGraphic" in2="BackgroundImageFix" result="shape"/>
<feColorMatrix in="SourceAlpha" type="matrix" values="0 0 0 0 0 0 0 0 0 0 0 0 0 0 0 0 0 0 127 0" result="hardAlpha"/>
<feOffset dy="4"/>
<feGaussianBlur stdDeviation="2"/>
<feComposite in2="hardAlpha" operator="arithmetic" k2="-1" k3="1"/>
<feColorMatrix type="matrix" values="0 0 0 0 0 0 0 0 0 0 0 0 0 0 0 0 0 0 0.25 0"/>
<feBlend mode="normal" in2="shape" result="effect1_innerShadow"/>
</filter>
<filter id="filter23_d" x="7.04192" y="47.7785" width="122.577" height="97.0116" filterUnits="userSpaceOnUse" color-interpolation-filters="sRGB">
<feFlood flood-opacity="0" result="BackgroundImageFix"/>
<feColorMatrix in="SourceAlpha" type="matrix" values="0 0 0 0 0 0 0 0 0 0 0 0 0 0 0 0 0 0 127 0"/>
<feOffset dy="4"/>
<feGaussianBlur stdDeviation="20"/>
<feColorMatrix type="matrix" values="0 0 0 0 0 0 0 0 0 0 0 0 0 0 0 0 0 0 0.25 0"/>
<feBlend mode="normal" in2="BackgroundImageFix" result="effect1_dropShadow"/>
<feBlend mode="normal" in="SourceGraphic" in2="effect1_dropShadow" result="shape"/>
</filter>
<filter id="filter24_d" x="6.05067" y="48.8065" width="101" height="89.0376" filterUnits="userSpaceOnUse" color-interpolation-filters="sRGB">
<feFlood flood-opacity="0" result="BackgroundImageFix"/>
<feColorMatrix in="SourceAlpha" type="matrix" values="0 0 0 0 0 0 0 0 0 0 0 0 0 0 0 0 0 0 127 0"/>
<feOffset dy="4"/>
<feGaussianBlur stdDeviation="20"/>
<feColorMatrix type="matrix" values="0 0 0 0 0 0 0 0 0 0 0 0 0 0 0 0 0 0 0.25 0"/>
<feBlend mode="normal" in2="BackgroundImageFix" result="effect1_dropShadow"/>
<feBlend mode="normal" in="SourceGraphic" in2="effect1_dropShadow" result="shape"/>
</filter>
<filter id="filter25_d" x="-10.4751" y="44.2434" width="112.84" height="114.505" filterUnits="userSpaceOnUse" color-interpolation-filters="sRGB">
<feFlood flood-opacity="0" result="BackgroundImageFix"/>
<feColorMatrix in="SourceAlpha" type="matrix" values="0 0 0 0 0 0 0 0 0 0 0 0 0 0 0 0 0 0 127 0"/>
<feOffset dy="4"/>
<feGaussianBlur stdDeviation="25"/>
<feColorMatrix type="matrix" values="0 0 0 0 0 0 0 0 0 0 0 0 0 0 0 0 0 0 0.25 0"/>
<feBlend mode="normal" in2="BackgroundImageFix" result="effect1_dropShadow"/>
<feBlend mode="normal" in="SourceGraphic" in2="effect1_dropShadow" result="shape"/>
</filter>
<filter id="filter26_d" x="76.1442" y="80.1486" width="41.2937" height="20.6635" filterUnits="userSpaceOnUse" color-interpolation-filters="sRGB">
<feFlood flood-opacity="0" result="BackgroundImageFix"/>
<feColorMatrix in="SourceAlpha" type="matrix" values="0 0 0 0 0 0 0 0 0 0 0 0 0 0 0 0 0 0 127 0"/>
<feOffset dy="4"/>
<feGaussianBlur stdDeviation="2"/>
<feColorMatrix type="matrix" values="0 0 0 0 0 0 0 0 0 0 0 0 0 0 0 0 0 0 0.25 0"/>
<feBlend mode="normal" in2="BackgroundImageFix" result="effect1_dropShadow"/>
<feBlend mode="normal" in="SourceGraphic" in2="effect1_dropShadow" result="shape"/>
</filter>
<filter id="filter27_d" x="67.1287" y="82.9353" width="26.579" height="13.8838" filterUnits="userSpaceOnUse" color-interpolation-filters="sRGB">
<feFlood flood-opacity="0" result="BackgroundImageFix"/>
<feColorMatrix in="SourceAlpha" type="matrix" values="0 0 0 0 0 0 0 0 0 0 0 0 0 0 0 0 0 0 127 0"/>
<feOffset dy="4"/>
<feGaussianBlur stdDeviation="2"/>
<feColorMatrix type="matrix" values="0 0 0 0 0 0 0 0 0 0 0 0 0 0 0 0 0 0 0.25 0"/>
<feBlend mode="normal" in2="BackgroundImageFix" result="effect1_dropShadow"/>
<feBlend mode="normal" in="SourceGraphic" in2="effect1_dropShadow" result="shape"/>
</filter>
<filter id="filter28_i" x="53.3651" y="81.4715" width="17.0512" height="26.3125" filterUnits="userSpaceOnUse" color-interpolation-filters="sRGB">
<feFlood flood-opacity="0" result="BackgroundImageFix"/>
<feBlend mode="normal" in="SourceGraphic" in2="BackgroundImageFix" result="shape"/>
<feColorMatrix in="SourceAlpha" type="matrix" values="0 0 0 0 0 0 0 0 0 0 0 0 0 0 0 0 0 0 127 0" result="hardAlpha"/>
<feOffset dy="4"/>
<feGaussianBlur stdDeviation="2"/>
<feComposite in2="hardAlpha" operator="arithmetic" k2="-1" k3="1"/>
<feColorMatrix type="matrix" values="0 0 0 0 0 0 0 0 0 0 0 0 0 0 0 0 0 0 0.25 0"/>
<feBlend mode="normal" in2="shape" result="effect1_innerShadow"/>
</filter>
<filter id="filter29_i" x="107.796" y="66.4606" width="17.1211" height="26.0961" filterUnits="userSpaceOnUse" color-interpolation-filters="sRGB">
<feFlood flood-opacity="0" result="BackgroundImageFix"/>
<feBlend mode="normal" in="SourceGraphic" in2="BackgroundImageFix" result="shape"/>
<feColorMatrix in="SourceAlpha" type="matrix" values="0 0 0 0 0 0 0 0 0 0 0 0 0 0 0 0 0 0 127 0" result="hardAlpha"/>
<feOffset dy="4"/>
<feGaussianBlur stdDeviation="2"/>
<feComposite in2="hardAlpha" operator="arithmetic" k2="-1" k3="1"/>
<feColorMatrix type="matrix" values="0 0 0 0 0 0 0 0 0 0 0 0 0 0 0 0 0 0 0.25 0"/>
<feBlend mode="normal" in2="shape" result="effect1_innerShadow"/>
</filter>
<filter id="filter30_i" x="106.286" y="67.0786" width="16.8912" height="25.9012" filterUnits="userSpaceOnUse" color-interpolation-filters="sRGB">
<feFlood flood-opacity="0" result="BackgroundImageFix"/>
<feBlend mode="normal" in="SourceGraphic" in2="BackgroundImageFix" result="shape"/>
<feColorMatrix in="SourceAlpha" type="matrix" values="0 0 0 0 0 0 0 0 0 0 0 0 0 0 0 0 0 0 127 0" result="hardAlpha"/>
<feOffset dy="4"/>
<feGaussianBlur stdDeviation="2"/>
<feComposite in2="hardAlpha" operator="arithmetic" k2="-1" k3="1"/>
<feColorMatrix type="matrix" values="0 0 0 0 0 0 0 0 0 0 0 0 0 0 0 0 0 0 0.25 0"/>
<feBlend mode="normal" in2="shape" result="effect1_innerShadow"/>
</filter>
<filter id="filter31_i" x="55.5507" y="81.0798" width="16.9297" height="26.1894" filterUnits="userSpaceOnUse" color-interpolation-filters="sRGB">
<feFlood flood-opacity="0" result="BackgroundImageFix"/>
<feBlend mode="normal" in="SourceGraphic" in2="BackgroundImageFix" result="shape"/>
<feColorMatrix in="SourceAlpha" type="matrix" values="0 0 0 0 0 0 0 0 0 0 0 0 0 0 0 0 0 0 127 0" result="hardAlpha"/>
<feOffset dy="4"/>
<feGaussianBlur stdDeviation="2"/>
<feComposite in2="hardAlpha" operator="arithmetic" k2="-1" k3="1"/>
<feColorMatrix type="matrix" values="0 0 0 0 0 0 0 0 0 0 0 0 0 0 0 0 0 0 0.25 0"/>
<feBlend mode="normal" in2="shape" result="effect1_innerShadow"/>
</filter>
<filter id="filter32_i" x="57.0251" y="80.3559" width="17.3717" height="26.5298" filterUnits="userSpaceOnUse" color-interpolation-filters="sRGB">
<feFlood flood-opacity="0" result="BackgroundImageFix"/>
<feBlend mode="normal" in="SourceGraphic" in2="BackgroundImageFix" result="shape"/>
<feColorMatrix in="SourceAlpha" type="matrix" values="0 0 0 0 0 0 0 0 0 0 0 0 0 0 0 0 0 0 127 0" result="hardAlpha"/>
<feOffset dy="4"/>
<feGaussianBlur stdDeviation="2"/>
<feComposite in2="hardAlpha" operator="arithmetic" k2="-1" k3="1"/>
<feColorMatrix type="matrix" values="0 0 0 0 0 0 0 0 0 0 0 0 0 0 0 0 0 0 0.25 0"/>
<feBlend mode="normal" in2="shape" result="effect1_innerShadow"/>
</filter>
<filter id="filter33_i" x="109.765" y="65.9673" width="16.7936" height="25.7724" filterUnits="userSpaceOnUse" color-interpolation-filters="sRGB">
<feFlood flood-opacity="0" result="BackgroundImageFix"/>
<feBlend mode="normal" in="SourceGraphic" in2="BackgroundImageFix" result="shape"/>
<feColorMatrix in="SourceAlpha" type="matrix" values="0 0 0 0 0 0 0 0 0 0 0 0 0 0 0 0 0 0 127 0" result="hardAlpha"/>
<feOffset dy="4"/>
<feGaussianBlur stdDeviation="2"/>
<feComposite in2="hardAlpha" operator="arithmetic" k2="-1" k3="1"/>
<feColorMatrix type="matrix" values="0 0 0 0 0 0 0 0 0 0 0 0 0 0 0 0 0 0 0.25 0"/>
<feBlend mode="normal" in2="shape" result="effect1_innerShadow"/>
</filter>
<filter id="filter34_d" x="19.9912" y="60.5997" width="122.577" height="97.0116" filterUnits="userSpaceOnUse" color-interpolation-filters="sRGB">
<feFlood flood-opacity="0" result="BackgroundImageFix"/>
<feColorMatrix in="SourceAlpha" type="matrix" values="0 0 0 0 0 0 0 0 0 0 0 0 0 0 0 0 0 0 127 0"/>
<feOffset dy="4"/>
<feGaussianBlur stdDeviation="20"/>
<feColorMatrix type="matrix" values="0 0 0 0 0 0 0 0 0 0 0 0 0 0 0 0 0 0 0.25 0"/>
<feBlend mode="normal" in2="BackgroundImageFix" result="effect1_dropShadow"/>
<feBlend mode="normal" in="SourceGraphic" in2="effect1_dropShadow" result="shape"/>
</filter>
<filter id="filter35_d" x="19" y="61.6277" width="101" height="89.0376" filterUnits="userSpaceOnUse" color-interpolation-filters="sRGB">
<feFlood flood-opacity="0" result="BackgroundImageFix"/>
<feColorMatrix in="SourceAlpha" type="matrix" values="0 0 0 0 0 0 0 0 0 0 0 0 0 0 0 0 0 0 127 0"/>
<feOffset dy="4"/>
<feGaussianBlur stdDeviation="20"/>
<feColorMatrix type="matrix" values="0 0 0 0 0 0 0 0 0 0 0 0 0 0 0 0 0 0 0.25 0"/>
<feBlend mode="normal" in2="BackgroundImageFix" result="effect1_dropShadow"/>
<feBlend mode="normal" in="SourceGraphic" in2="effect1_dropShadow" result="shape"/>
</filter>
<filter id="filter36_d" x="2.4742" y="57.0646" width="112.84" height="114.505" filterUnits="userSpaceOnUse" color-interpolation-filters="sRGB">
<feFlood flood-opacity="0" result="BackgroundImageFix"/>
<feColorMatrix in="SourceAlpha" type="matrix" values="0 0 0 0 0 0 0 0 0 0 0 0 0 0 0 0 0 0 127 0"/>
<feOffset dy="4"/>
<feGaussianBlur stdDeviation="25"/>
<feColorMatrix type="matrix" values="0 0 0 0 0 0 0 0 0 0 0 0 0 0 0 0 0 0 0.25 0"/>
<feBlend mode="normal" in2="BackgroundImageFix" result="effect1_dropShadow"/>
<feBlend mode="normal" in="SourceGraphic" in2="effect1_dropShadow" result="shape"/>
</filter>
<filter id="filter37_d" x="86.3067" y="88.5945" width="34.2668" height="24.3851" filterUnits="userSpaceOnUse" color-interpolation-filters="sRGB">
<feFlood flood-opacity="0" result="BackgroundImageFix"/>
<feColorMatrix in="SourceAlpha" type="matrix" values="0 0 0 0 0 0 0 0 0 0 0 0 0 0 0 0 0 0 127 0"/>
<feOffset dy="4"/>
<feGaussianBlur stdDeviation="2"/>
<feColorMatrix type="matrix" values="0 0 0 0 0 0 0 0 0 0 0 0 0 0 0 0 0 0 0.25 0"/>
<feBlend mode="normal" in2="BackgroundImageFix" result="effect1_dropShadow"/>
<feBlend mode="normal" in="SourceGraphic" in2="effect1_dropShadow" result="shape"/>
</filter>
<filter id="filter38_d" x="87.0935" y="94.9698" width="41.2937" height="20.6635" filterUnits="userSpaceOnUse" color-interpolation-filters="sRGB">
<feFlood flood-opacity="0" result="BackgroundImageFix"/>
<feColorMatrix in="SourceAlpha" type="matrix" values="0 0 0 0 0 0 0 0 0 0 0 0 0 0 0 0 0 0 127 0"/>
<feOffset dy="4"/>
<feGaussianBlur stdDeviation="2"/>
<feColorMatrix type="matrix" values="0 0 0 0 0 0 0 0 0 0 0 0 0 0 0 0 0 0 0.25 0"/>
<feBlend mode="normal" in2="BackgroundImageFix" result="effect1_dropShadow"/>
<feBlend mode="normal" in="SourceGraphic" in2="effect1_dropShadow" result="shape"/>
</filter>
<filter id="filter39_d" x="76.078" y="92.7565" width="26.579" height="13.8838" filterUnits="userSpaceOnUse" color-interpolation-filters="sRGB">
<feFlood flood-opacity="0" result="BackgroundImageFix"/>
<feColorMatrix in="SourceAlpha" type="matrix" values="0 0 0 0 0 0 0 0 0 0 0 0 0 0 0 0 0 0 127 0"/>
<feOffset dy="4"/>
<feGaussianBlur stdDeviation="2"/>
<feColorMatrix type="matrix" values="0 0 0 0 0 0 0 0 0 0 0 0 0 0 0 0 0 0 0.25 0"/>
<feBlend mode="normal" in2="BackgroundImageFix" result="effect1_dropShadow"/>
<feBlend mode="normal" in="SourceGraphic" in2="effect1_dropShadow" result="shape"/>
</filter>
<filter id="filter40_i" x="66.3145" y="94.2927" width="17.0512" height="26.3125" filterUnits="userSpaceOnUse" color-interpolation-filters="sRGB">
<feFlood flood-opacity="0" result="BackgroundImageFix"/>
<feBlend mode="normal" in="SourceGraphic" in2="BackgroundImageFix" result="shape"/>
<feColorMatrix in="SourceAlpha" type="matrix" values="0 0 0 0 0 0 0 0 0 0 0 0 0 0 0 0 0 0 127 0" result="hardAlpha"/>
<feOffset dy="4"/>
<feGaussianBlur stdDeviation="2"/>
<feComposite in2="hardAlpha" operator="arithmetic" k2="-1" k3="1"/>
<feColorMatrix type="matrix" values="0 0 0 0 0 0 0 0 0 0 0 0 0 0 0 0 0 0 0.25 0"/>
<feBlend mode="normal" in2="shape" result="effect1_innerShadow"/>
</filter>
<filter id="filter41_i" x="120.746" y="79.2818" width="17.1211" height="26.0961" filterUnits="userSpaceOnUse" color-interpolation-filters="sRGB">
<feFlood flood-opacity="0" result="BackgroundImageFix"/>
<feBlend mode="normal" in="SourceGraphic" in2="BackgroundImageFix" result="shape"/>
<feColorMatrix in="SourceAlpha" type="matrix" values="0 0 0 0 0 0 0 0 0 0 0 0 0 0 0 0 0 0 127 0" result="hardAlpha"/>
<feOffset dy="4"/>
<feGaussianBlur stdDeviation="2"/>
<feComposite in2="hardAlpha" operator="arithmetic" k2="-1" k3="1"/>
<feColorMatrix type="matrix" values="0 0 0 0 0 0 0 0 0 0 0 0 0 0 0 0 0 0 0.25 0"/>
<feBlend mode="normal" in2="shape" result="effect1_innerShadow"/>
</filter>
<filter id="filter42_i" x="119.236" y="79.8998" width="16.8912" height="25.9012" filterUnits="userSpaceOnUse" color-interpolation-filters="sRGB">
<feFlood flood-opacity="0" result="BackgroundImageFix"/>
<feBlend mode="normal" in="SourceGraphic" in2="BackgroundImageFix" result="shape"/>
<feColorMatrix in="SourceAlpha" type="matrix" values="0 0 0 0 0 0 0 0 0 0 0 0 0 0 0 0 0 0 127 0" result="hardAlpha"/>
<feOffset dy="4"/>
<feGaussianBlur stdDeviation="2"/>
<feComposite in2="hardAlpha" operator="arithmetic" k2="-1" k3="1"/>
<feColorMatrix type="matrix" values="0 0 0 0 0 0 0 0 0 0 0 0 0 0 0 0 0 0 0.25 0"/>
<feBlend mode="normal" in2="shape" result="effect1_innerShadow"/>
</filter>
<filter id="filter43_i" x="68.5" y="93.901" width="16.9297" height="26.1894" filterUnits="userSpaceOnUse" color-interpolation-filters="sRGB">
<feFlood flood-opacity="0" result="BackgroundImageFix"/>
<feBlend mode="normal" in="SourceGraphic" in2="BackgroundImageFix" result="shape"/>
<feColorMatrix in="SourceAlpha" type="matrix" values="0 0 0 0 0 0 0 0 0 0 0 0 0 0 0 0 0 0 127 0" result="hardAlpha"/>
<feOffset dy="4"/>
<feGaussianBlur stdDeviation="2"/>
<feComposite in2="hardAlpha" operator="arithmetic" k2="-1" k3="1"/>
<feColorMatrix type="matrix" values="0 0 0 0 0 0 0 0 0 0 0 0 0 0 0 0 0 0 0.25 0"/>
<feBlend mode="normal" in2="shape" result="effect1_innerShadow"/>
</filter>
<filter id="filter44_i" x="69.9744" y="93.1771" width="17.3717" height="26.5298" filterUnits="userSpaceOnUse" color-interpolation-filters="sRGB">
<feFlood flood-opacity="0" result="BackgroundImageFix"/>
<feBlend mode="normal" in="SourceGraphic" in2="BackgroundImageFix" result="shape"/>
<feColorMatrix in="SourceAlpha" type="matrix" values="0 0 0 0 0 0 0 0 0 0 0 0 0 0 0 0 0 0 127 0" result="hardAlpha"/>
<feOffset dy="4"/>
<feGaussianBlur stdDeviation="2"/>
<feComposite in2="hardAlpha" operator="arithmetic" k2="-1" k3="1"/>
<feColorMatrix type="matrix" values="0 0 0 0 0 0 0 0 0 0 0 0 0 0 0 0 0 0 0.25 0"/>
<feBlend mode="normal" in2="shape" result="effect1_innerShadow"/>
</filter>
<filter id="filter45_i" x="122.714" y="78.7885" width="16.7936" height="25.7724" filterUnits="userSpaceOnUse" color-interpolation-filters="sRGB">
<feFlood flood-opacity="0" result="BackgroundImageFix"/>
<feBlend mode="normal" in="SourceGraphic" in2="BackgroundImageFix" result="shape"/>
<feColorMatrix in="SourceAlpha" type="matrix" values="0 0 0 0 0 0 0 0 0 0 0 0 0 0 0 0 0 0 127 0" result="hardAlpha"/>
<feOffset dy="4"/>
<feGaussianBlur stdDeviation="2"/>
<feComposite in2="hardAlpha" operator="arithmetic" k2="-1" k3="1"/>
<feColorMatrix type="matrix" values="0 0 0 0 0 0 0 0 0 0 0 0 0 0 0 0 0 0 0.25 0"/>
<feBlend mode="normal" in2="shape" result="effect1_innerShadow"/>
</filter>
<clipPath id="clip0">
<rect width="162" height="162" fill="white"/>
</clipPath>
</defs>
</svg>
