<svg width="240" height="240" viewBox="0 0 240 240" fill="none" xmlns="http://www.w3.org/2000/svg">
<path d="M139.34 67.0323C141.833 66.5779 143.432 68.3586 141.3 70.7321C140.095 72.0734 112.364 86.0656 112.364 86.0656L110.404 82.3658C110.404 82.3658 137.574 67.3542 139.34 67.0323Z" fill="#594126"/>
<path d="M213 95.3558C216.5 139.856 150.125 141.861 94.896 141.861C39.6676 141.861 18 123.447 18 101.356C18 94.7282 16.8039 100.856 18 82.8558C56.5 68.3558 18 82.8558 56.5 68.3558C56.5 68.3558 93.2194 80.3558 137 80.3558C140 80.3558 197.5 82.8558 213 95.3558Z" fill="#664932"/>
<g filter="url(#filter0_i)">
<path d="M204.457 120.543C192 136.043 160.706 145.043 111 145.043C64 142.543 22 136.043 17.9566 104.543C17.9566 97.9151 55.7944 130.043 105.5 130.043C155.206 130.043 204.457 113.915 204.457 120.543Z" fill="#94694A"/>
</g>
<g filter="url(#filter1_i)">
<path d="M22 85.8081L57 72.0425C57 72.0425 58 82.0425 57 82.5425C55.4223 83.3313 32 91.0425 32 91.0425L22 85.8081Z" fill="#A76F48"/>
</g>
<g filter="url(#filter2_i)">
<path d="M32 91.0447L57.5 81.0425C57.5 81.0425 57.5 89.6678 57 90.0425C55.9139 90.8565 42 97.0425 42 97.0425L32 91.0447Z" fill="#906546"/>
</g>
<path d="M17 92.5425C74.5 121.043 122.839 133.543 212 107.543L206 120.043C121.742 139.043 75 135.043 18 104.043L17 92.5425Z" fill="#916546"/>
<g filter="url(#filter3_i)">
<path d="M41.9509 97.0425L56.9509 90.0425C56.9509 90.0425 56.1291 99.4583 53.9509 101.043C48.4509 105.043 46.9509 99.5425 46.9509 99.5425L41.9509 97.0425Z" fill="#7D5A41"/>
</g>
<path d="M57 72.0425C120.5 87.5425 159 85.5425 169 87.0425C184.487 89.3656 192.5 91.0425 213 98.5425L200 102.543C184 96.5425 172 96.0931 165 95.5425C120.5 92.0425 98.5 91.0425 57.5 81.5425L57 72.0425Z" fill="#9B6640"/>
<path d="M57.5 81.0425C121 95.0425 154 93.0425 174.5 95.5425C184.5 96.762 192.5 98.5425 200.5 102.043L182 107.043C172 105.543 167.553 104.063 149 103.543C95.5 102.043 98 99.5425 57 90.0425L57.5 81.0425Z" fill="#906546"/>
<path d="M214.5 96.0425L222.5 91.0425L219.5 102.543L217.5 109.043L214.5 116.043L208.5 124.543C199 130.543 193.5 132.043 181.5 134.543C195 129.543 197.5 126.543 205 121.543C211.5 111.043 212.592 108.61 214.5 96.0425Z" fill="#5E402A"/>
<path d="M124.5 96.5425L124.5 101.543L101.5 121.543L98 118.043L124.5 96.5425Z" fill="#957A5A"/>
<path d="M104 96.5425L124.5 96.5425L99.5 117.043L81.5 112.043L104 96.5425Z" fill="#B6946C"/>
<path d="M18 83.0425C77.6329 117.577 111 130.043 213 98.0425L212 107.543C118 133.543 94.0249 131.345 17 93.5425L18 83.0425Z" fill="#A76F48"/>
<path d="M208 89.0425L214.5 96.0425L213 108.543L205.467 122.038C205.467 122.038 192.967 131.538 180.967 134.538C192 129.043 192 129.043 200.5 121.043C206.001 110.577 206.092 101.61 208 89.0425Z" fill="#7A5337"/>
<path d="M208 89.0425L211.5 87.0425L222.5 91.0425L214.5 96.0425L208 89.0425Z" fill="#4E321E"/>
<path d="M73.467 102.543C70.3539 112.13 81.7173 112.13 81.3873 103.865H86.6675C90.2976 119.734 62.9066 116.758 67.5268 102.543H73.467Z" fill="#715C43"/>
<path d="M121.5 71.5425C122.347 79.6858 127 82.0425 129 77.5425L134.5 74.5425C138 88.0425 111.5 83.0425 116.5 71.5425L121.5 71.5425Z" fill="#715C43"/>
<path d="M87.7244 82.0745C89.296 81.8898 90.5261 82.2588 91.0879 83.8022C91.5019 84.9395 68.974 126.272 58.6982 145.027C57.4807 149.547 62 153.043 62 153.043L46.5 145.543C46.5 145.543 54.2784 146.966 56.0142 143.465C65.4917 124.349 86.5095 82.2173 87.7244 82.0745Z" fill="#60472A"/>
<path d="M46.5419 145.508L62.1193 152.846C63.2183 162.335 57.6136 165.016 49 173.043L38.7822 168.59C38.3458 157.601 38.6101 152.091 46.5419 145.508Z" fill="#60472A"/>
<path d="M51.6363 157.543C49.5 161.043 46.2469 166.666 46 166.543C46 165.508 49.0102 160.551 50.7423 157.095C52.4745 153.638 57.106 153.336 59.106 154.836C56.106 153.836 53.3685 154.086 51.6363 157.543Z" fill="#B48D61"/>
<path d="M50 153.543C47.8637 157.042 46.7469 160.666 46.5 160.543C46.5 159.508 47.5751 156.545 49.3072 153.089C51.0394 149.632 49 150.246 47.5 148.543C49 149.043 51.7322 150.086 50 153.543Z" fill="#B48D61"/>
<defs>
<filter id="filter0_i" x="17.9566" y="103.642" width="186.5" height="45.4005" filterUnits="userSpaceOnUse" color-interpolation-filters="sRGB">
<feFlood flood-opacity="0" result="BackgroundImageFix"/>
<feBlend mode="normal" in="SourceGraphic" in2="BackgroundImageFix" result="shape"/>
<feColorMatrix in="SourceAlpha" type="matrix" values="0 0 0 0 0 0 0 0 0 0 0 0 0 0 0 0 0 0 127 0" result="hardAlpha"/>
<feOffset dy="4"/>
<feGaussianBlur stdDeviation="7.5"/>
<feComposite in2="hardAlpha" operator="arithmetic" k2="-1" k3="1"/>
<feColorMatrix type="matrix" values="0 0 0 0 0 0 0 0 0 0 0 0 0 0 0 0 0 0 0.25 0"/>
<feBlend mode="normal" in2="shape" result="effect1_innerShadow"/>
</filter>
<filter id="filter1_i" x="22" y="72.0425" width="35.4445" height="23" filterUnits="userSpaceOnUse" color-interpolation-filters="sRGB">
<feFlood flood-opacity="0" result="BackgroundImageFix"/>
<feBlend mode="normal" in="SourceGraphic" in2="BackgroundImageFix" result="shape"/>
<feColorMatrix in="SourceAlpha" type="matrix" values="0 0 0 0 0 0 0 0 0 0 0 0 0 0 0 0 0 0 127 0" result="hardAlpha"/>
<feOffset dy="4"/>
<feGaussianBlur stdDeviation="10"/>
<feComposite in2="hardAlpha" operator="arithmetic" k2="-1" k3="1"/>
<feColorMatrix type="matrix" values="0 0 0 0 0 0 0 0 0 0 0 0 0 0 0 0 0 0 0.25 0"/>
<feBlend mode="normal" in2="shape" result="effect1_innerShadow"/>
</filter>
<filter id="filter2_i" x="32" y="81.0425" width="25.5" height="20" filterUnits="userSpaceOnUse" color-interpolation-filters="sRGB">
<feFlood flood-opacity="0" result="BackgroundImageFix"/>
<feBlend mode="normal" in="SourceGraphic" in2="BackgroundImageFix" result="shape"/>
<feColorMatrix in="SourceAlpha" type="matrix" values="0 0 0 0 0 0 0 0 0 0 0 0 0 0 0 0 0 0 127 0" result="hardAlpha"/>
<feOffset dy="4"/>
<feGaussianBlur stdDeviation="10"/>
<feComposite in2="hardAlpha" operator="arithmetic" k2="-1" k3="1"/>
<feColorMatrix type="matrix" values="0 0 0 0 0 0 0 0 0 0 0 0 0 0 0 0 0 0 0.25 0"/>
<feBlend mode="normal" in2="shape" result="effect1_innerShadow"/>
</filter>
<filter id="filter3_i" x="41.9509" y="90.0425" width="15" height="16.4578" filterUnits="userSpaceOnUse" color-interpolation-filters="sRGB">
<feFlood flood-opacity="0" result="BackgroundImageFix"/>
<feBlend mode="normal" in="SourceGraphic" in2="BackgroundImageFix" result="shape"/>
<feColorMatrix in="SourceAlpha" type="matrix" values="0 0 0 0 0 0 0 0 0 0 0 0 0 0 0 0 0 0 127 0" result="hardAlpha"/>
<feOffset dy="4"/>
<feGaussianBlur stdDeviation="10"/>
<feComposite in2="hardAlpha" operator="arithmetic" k2="-1" k3="1"/>
<feColorMatrix type="matrix" values="0 0 0 0 0 0 0 0 0 0 0 0 0 0 0 0 0 0 0.25 0"/>
<feBlend mode="normal" in2="shape" result="effect1_innerShadow"/>
</filter>
</defs>
</svg>
