<svg width="369" height="198" viewBox="0 0 369 198" fill="none" xmlns="http://www.w3.org/2000/svg">
<path d="M88.5498 31.44C84.4404 33.1573 81.2511 35.7333 78.9818 39.168C76.7738 42.6027 75.6698 46.7427 75.6698 51.588C75.6698 53.8573 75.8844 55.452 76.3138 56.372C76.7431 57.2307 76.9578 57.7213 76.9578 57.844C73.6458 57.844 71.1618 57.1693 69.5058 55.82C67.9111 54.4093 67.1138 52.1093 67.1138 48.92C67.1138 44.9947 68.7084 41.192 71.8978 37.512C75.1484 33.7707 79.2884 30.7653 84.3178 28.496C89.3471 26.1653 94.3764 25 99.4058 25C100.264 25 101.491 25.0613 103.086 25.184L97.1978 52.6H110.722L116.61 25.184H129.858L115.23 94H101.982L109.342 59.408H95.8178L88.4578 94H75.2098L88.5498 31.44ZM138.233 94.552C134.737 94.552 131.824 93.356 129.493 90.964C127.163 88.572 125.997 84.8307 125.997 79.74C125.997 75.2013 126.887 70.448 128.665 65.48C130.505 60.4507 133.204 56.2187 136.761 52.784C140.38 49.288 144.673 47.54 149.641 47.54C152.156 47.54 154.027 47.9693 155.253 48.828C156.48 49.6867 157.093 50.8213 157.093 52.232V52.876L158.105 48H171.353L164.729 79.28C164.484 80.2 164.361 81.1813 164.361 82.224C164.361 84.8613 165.619 86.18 168.133 86.18C169.851 86.18 171.323 85.3827 172.549 83.788C173.837 82.1933 174.849 80.108 175.585 77.532H179.449C177.18 84.156 174.359 88.664 170.985 91.056C167.673 93.3867 164.331 94.552 160.957 94.552C158.381 94.552 156.296 93.8467 154.701 92.436C153.168 90.964 152.248 88.848 151.941 86.088C150.163 88.6027 148.169 90.6573 145.961 92.252C143.815 93.7853 141.239 94.552 138.233 94.552ZM144.213 85.628C145.747 85.628 147.249 84.9227 148.721 83.512C150.255 82.04 151.297 80.0467 151.849 77.532L156.265 56.74C156.265 55.9427 155.959 55.176 155.345 54.44C154.732 53.6427 153.781 53.244 152.493 53.244C150.04 53.244 147.832 54.6853 145.869 57.568C143.907 60.3893 142.373 63.824 141.269 67.872C140.165 71.8587 139.613 75.3853 139.613 78.452C139.613 81.5187 140.043 83.4813 140.901 84.34C141.821 85.1987 142.925 85.628 144.213 85.628ZM184.727 94.552C181.783 94.552 179.391 93.632 177.551 91.792C175.772 89.952 174.883 87.192 174.883 83.512C174.883 81.9787 175.128 79.9853 175.619 77.532L185.463 31.44L199.079 29.6L188.499 79.28C188.254 80.2 188.131 81.1813 188.131 82.224C188.131 83.4507 188.407 84.34 188.959 84.892C189.572 85.3827 190.554 85.628 191.903 85.628C193.682 85.628 195.338 84.892 196.871 83.42C198.404 81.8867 199.508 79.924 200.183 77.532H204.047C201.778 84.156 198.864 88.664 195.307 91.056C191.75 93.3867 188.223 94.552 184.727 94.552ZM213.302 94.552C208.764 94.552 205.237 93.3867 202.722 91.056C200.208 88.664 198.95 84.9533 198.95 79.924C198.95 75.692 199.778 71.0307 201.434 65.94C203.09 60.8493 205.789 56.464 209.53 52.784C213.272 49.0427 218.025 47.172 223.79 47.172C230.537 47.172 233.91 50.116 233.91 56.004C233.91 59.4387 232.929 62.5973 230.966 65.48C229.004 68.3627 226.397 70.6933 223.146 72.472C219.896 74.1893 216.43 75.1707 212.75 75.416C212.628 77.256 212.566 78.4827 212.566 79.096C212.566 82.1013 213.088 84.156 214.13 85.26C215.173 86.3027 216.86 86.824 219.19 86.824C222.502 86.824 225.324 86.0573 227.654 84.524C230.046 82.9907 232.653 80.66 235.474 77.532H238.602C231.794 88.8787 223.361 94.552 213.302 94.552ZM213.486 71C215.756 70.8773 217.902 70.08 219.926 68.608C222.012 67.136 223.668 65.2653 224.894 62.996C226.182 60.7267 226.826 58.3347 226.826 55.82C226.826 53.3053 226.06 52.048 224.526 52.048C222.318 52.048 220.141 53.98 217.994 57.844C215.909 61.708 214.406 66.0933 213.486 71ZM241.711 48H254.959L253.763 53.704C255.848 51.864 257.719 50.4533 259.375 49.472C261.092 48.4907 262.932 48 264.895 48C266.858 48 268.391 48.6747 269.495 50.024C270.66 51.3733 271.243 52.9987 271.243 54.9C271.243 56.6787 270.66 58.2427 269.495 59.592C268.33 60.9413 266.704 61.616 264.619 61.616C263.27 61.616 262.35 61.3093 261.859 60.696C261.43 60.0213 261.092 59.0707 260.847 57.844C260.663 57.0467 260.479 56.464 260.295 56.096C260.111 55.728 259.774 55.544 259.283 55.544C257.995 55.544 256.891 55.82 255.971 56.372C255.112 56.8627 253.978 57.752 252.567 59.04L245.207 94H231.959L241.711 48ZM281.085 94.552C277.589 94.552 274.676 93.356 272.345 90.964C270.014 88.572 268.849 84.8307 268.849 79.74C268.849 75.2013 269.738 70.448 271.517 65.48C273.357 60.4507 276.056 56.2187 279.613 52.784C283.232 49.288 287.525 47.54 292.493 47.54C295.008 47.54 296.878 47.9693 298.105 48.828C299.332 49.6867 299.945 50.8213 299.945 52.232V52.876L300.957 48H314.205L307.581 79.28C307.336 80.2 307.213 81.1813 307.213 82.224C307.213 83.4507 307.489 84.34 308.041 84.892C308.654 85.3827 309.636 85.628 310.985 85.628C311.844 85.628 312.518 85.5053 313.009 85.26C311.66 88.6947 310.372 91.1173 309.145 92.528C307.918 93.8773 306.14 94.552 303.809 94.552C301.294 94.552 299.24 93.816 297.645 92.344C296.112 90.8107 295.161 88.6947 294.793 85.996C291.052 91.7 286.482 94.552 281.085 94.552ZM287.065 85.628C288.598 85.628 290.101 84.9227 291.573 83.512C293.106 82.04 294.149 80.0467 294.701 77.532L299.117 56.74C299.117 55.9427 298.81 55.176 298.197 54.44C297.584 53.6427 296.633 53.244 295.345 53.244C292.892 53.244 290.684 54.6853 288.721 57.568C286.758 60.3893 285.225 63.824 284.121 67.872C283.017 71.8587 282.465 75.3853 282.465 78.452C282.465 81.5187 282.894 83.4813 283.753 84.34C284.673 85.1987 285.777 85.628 287.065 85.628Z" fill="#0F0803"/>
<path d="M115.567 136C114.247 136 113.179 135.628 112.363 134.884C111.523 134.164 111.103 133.192 111.103 131.968C111.103 130.96 111.391 130.132 111.967 129.484C112.543 128.836 113.251 128.32 114.091 127.936C114.931 127.552 116.011 127.144 117.331 126.712L121.327 107.776C121.975 104.8 123.055 102.772 124.567 101.692C126.079 100.588 127.807 100.036 129.751 100.036C131.551 100.036 133.075 100.336 134.323 100.936C135.571 101.536 136.195 102.616 136.195 104.176C136.195 105.184 135.919 105.928 135.367 106.408C134.839 106.864 134.167 107.092 133.351 107.092C132.727 107.092 132.211 106.948 131.803 106.66C131.395 106.348 131.191 105.844 131.191 105.148C131.191 104.692 131.299 104.284 131.515 103.924C131.755 103.564 132.055 103.384 132.415 103.384C132.583 103.384 132.679 103.396 132.703 103.42C132.679 102.94 132.487 102.58 132.127 102.34C131.791 102.1 131.323 101.98 130.723 101.98C129.667 101.98 128.815 102.364 128.167 103.132C127.543 103.9 127.123 104.872 126.907 106.048L126.295 109H129.175L128.887 110.44H126.007L121.903 129.88C121.423 132.136 120.595 133.72 119.419 134.632C118.243 135.544 116.959 136 115.567 136ZM131.731 127.216C130.579 127.216 129.643 126.856 128.923 126.136C128.227 125.416 127.879 124.336 127.879 122.896C127.879 122.296 127.975 121.516 128.167 120.556L130.615 109H135.799L133.207 121.24C133.111 121.6 133.063 121.984 133.063 122.392C133.063 122.872 133.171 123.22 133.387 123.436C133.627 123.628 134.011 123.724 134.539 123.724C135.235 123.724 135.883 123.436 136.483 122.86C137.083 122.26 137.515 121.492 137.779 120.556H139.291C138.403 123.148 137.263 124.912 135.871 125.848C134.479 126.76 133.099 127.216 131.731 127.216ZM114.559 132.796C114.967 132.796 115.375 132.568 115.783 132.112C116.167 131.656 116.455 130.948 116.647 129.988L117.079 127.9C115.855 128.284 114.883 128.764 114.163 129.34C113.443 129.94 113.083 130.612 113.083 131.356C113.083 131.884 113.251 132.256 113.587 132.472C113.923 132.688 114.247 132.796 114.559 132.796ZM150.781 127.216C149.317 127.216 148.237 126.832 147.541 126.064C146.869 125.272 146.533 124.3 146.533 123.148C146.533 122.644 146.593 122.08 146.713 121.456C146.833 120.808 146.953 120.184 147.073 119.584C147.217 118.984 147.313 118.6 147.361 118.432C147.553 117.592 147.733 116.764 147.901 115.948C148.069 115.132 148.153 114.472 148.153 113.968C148.153 112.744 147.721 112.132 146.857 112.132C146.233 112.132 145.681 112.444 145.201 113.068C144.721 113.668 144.337 114.46 144.049 115.444L141.601 127H136.417L140.233 109H145.417L145.021 110.872C146.221 109.528 147.625 108.856 149.233 108.856C150.457 108.856 151.429 109.192 152.149 109.864C152.869 110.536 153.229 111.556 153.229 112.924C153.229 113.62 153.145 114.4 152.977 115.264C152.809 116.104 152.569 117.136 152.257 118.36C152.065 119.104 151.885 119.836 151.717 120.556C151.573 121.252 151.501 121.804 151.501 122.212C151.501 122.692 151.609 123.064 151.825 123.328C152.041 123.592 152.413 123.724 152.941 123.724C153.661 123.724 154.237 123.472 154.669 122.968C155.101 122.44 155.533 121.636 155.965 120.556H157.477C156.589 123.196 155.557 124.972 154.381 125.884C153.229 126.772 152.029 127.216 150.781 127.216ZM160.281 127.216C158.913 127.216 157.773 126.748 156.861 125.812C155.949 124.876 155.493 123.412 155.493 121.42C155.493 119.644 155.841 117.784 156.537 115.84C157.257 113.872 158.313 112.216 159.705 110.872C161.121 109.504 162.801 108.82 164.745 108.82C165.729 108.82 166.461 108.988 166.941 109.324C167.421 109.66 167.661 110.104 167.661 110.656V110.8L169.425 102.52L174.753 101.8L170.613 121.24C170.517 121.6 170.469 121.948 170.469 122.284C170.469 123.244 170.961 123.724 171.945 123.724C172.377 123.724 172.761 123.652 173.097 123.508C173.001 124.708 172.569 125.632 171.801 126.28C171.057 126.904 170.169 127.216 169.137 127.216C168.177 127.216 167.361 126.976 166.689 126.496C166.041 125.992 165.609 125.236 165.393 124.228C163.953 126.22 162.249 127.216 160.281 127.216ZM162.621 123.724C163.149 123.724 163.677 123.496 164.205 123.04C164.757 122.584 165.165 121.948 165.429 121.132L165.573 120.556L167.337 112.312C167.121 111.472 166.629 111.052 165.861 111.052C164.901 111.052 164.037 111.616 163.269 112.744C162.501 113.848 161.901 115.192 161.469 116.776C161.037 118.336 160.821 119.716 160.821 120.916C160.821 122.116 160.989 122.884 161.325 123.22C161.685 123.556 162.117 123.724 162.621 123.724ZM186.503 136C185.351 136 184.391 135.7 183.623 135.1C182.855 134.5 182.471 133.636 182.471 132.508C182.471 131.14 183.023 130.036 184.127 129.196C185.231 128.38 186.635 127.696 188.339 127.144L188.771 125.2C188.075 125.968 187.367 126.496 186.647 126.784C185.927 127.072 185.195 127.216 184.451 127.216C183.299 127.216 182.363 126.856 181.643 126.136C180.947 125.416 180.599 124.336 180.599 122.896C180.599 122.296 180.695 121.516 180.887 120.556L183.335 109H188.519L185.927 121.24C185.855 121.528 185.819 121.828 185.819 122.14C185.819 123.196 186.179 123.724 186.899 123.724C187.523 123.724 188.075 123.46 188.555 122.932C189.035 122.38 189.419 121.66 189.707 120.772L192.227 109H197.411L193.847 125.704C194.999 125.32 195.923 124.744 196.619 123.976C197.315 123.208 197.903 122.068 198.383 120.556H199.895C199.247 122.692 198.371 124.264 197.267 125.272C196.163 126.256 194.915 126.928 193.523 127.288L192.983 129.88C192.503 132.208 191.675 133.804 190.499 134.668C189.323 135.556 187.991 136 186.503 136ZM185.675 133.192C186.083 133.192 186.479 132.916 186.863 132.364C187.247 131.812 187.547 131.02 187.763 129.988L187.979 128.944C185.627 129.808 184.451 130.828 184.451 132.004C184.451 132.316 184.559 132.592 184.775 132.832C184.991 133.072 185.291 133.192 185.675 133.192ZM203.651 127.144C201.875 127.144 200.471 126.688 199.439 125.776C198.407 124.864 197.891 123.424 197.891 121.456C197.891 119.824 198.227 118.012 198.899 116.02C199.571 114.028 200.651 112.312 202.139 110.872C203.627 109.408 205.499 108.676 207.755 108.676C210.827 108.676 212.363 110.596 212.363 114.436V114.472C212.435 114.496 212.567 114.508 212.759 114.508C213.551 114.508 214.463 114.304 215.495 113.896C216.527 113.464 217.463 112.948 218.303 112.348L218.627 113.32C217.931 114.064 217.019 114.7 215.891 115.228C214.787 115.732 213.575 116.092 212.255 116.308C212.063 118.492 211.571 120.4 210.779 122.032C209.987 123.664 208.967 124.924 207.719 125.812C206.471 126.7 205.115 127.144 203.651 127.144ZM205.091 123.904C205.667 123.904 206.243 123.58 206.819 122.932C207.395 122.26 207.899 121.36 208.331 120.232C208.763 119.08 209.075 117.808 209.267 116.416C208.619 116.272 208.295 115.768 208.295 114.904C208.295 113.92 208.667 113.272 209.411 112.96C209.363 112.168 209.243 111.628 209.051 111.34C208.859 111.028 208.523 110.872 208.043 110.872C207.251 110.872 206.483 111.448 205.739 112.6C204.995 113.752 204.395 115.132 203.939 116.74C203.483 118.348 203.255 119.764 203.255 120.988C203.255 122.14 203.387 122.92 203.651 123.328C203.915 123.712 204.395 123.904 205.091 123.904ZM217.779 127.216C216.627 127.216 215.691 126.856 214.971 126.136C214.275 125.416 213.927 124.336 213.927 122.896C213.927 122.296 214.023 121.516 214.215 120.556L216.663 109H221.847L219.255 121.24C219.183 121.6 219.147 121.936 219.147 122.248C219.147 123.232 219.507 123.724 220.227 123.724C220.899 123.724 221.475 123.448 221.955 122.896C222.435 122.32 222.819 121.54 223.107 120.556L225.555 109H230.739L228.147 121.24C228.051 121.6 228.003 121.984 228.003 122.392C228.003 122.872 228.111 123.22 228.327 123.436C228.567 123.628 228.951 123.724 229.479 123.724C230.151 123.724 230.727 123.436 231.207 122.86C231.711 122.284 232.107 121.516 232.395 120.556H233.907C233.019 123.148 231.915 124.912 230.595 125.848C229.299 126.76 227.991 127.216 226.671 127.216C225.639 127.216 224.811 126.928 224.187 126.352C223.587 125.776 223.227 124.924 223.107 123.796C222.291 125.116 221.427 126.016 220.515 126.496C219.627 126.976 218.715 127.216 217.779 127.216ZM234.839 109H240.023L239.555 111.232C240.371 110.512 241.103 109.96 241.751 109.576C242.423 109.192 243.143 109 243.911 109C244.679 109 245.279 109.264 245.711 109.792C246.167 110.32 246.395 110.956 246.395 111.7C246.395 112.396 246.167 113.008 245.711 113.536C245.255 114.064 244.619 114.328 243.803 114.328C243.275 114.328 242.915 114.208 242.723 113.968C242.555 113.704 242.423 113.332 242.327 112.852C242.255 112.54 242.183 112.312 242.111 112.168C242.039 112.024 241.907 111.952 241.715 111.952C241.211 111.952 240.779 112.06 240.419 112.276C240.083 112.468 239.639 112.816 239.087 113.32L236.207 127H231.023L234.839 109ZM258.518 127.216C256.886 127.216 255.638 126.82 254.774 126.028C253.91 125.212 253.478 124.072 253.478 122.608C253.478 121.888 253.562 121.204 253.73 120.556L257.582 102.52L262.91 101.8L261.182 109.9C261.854 109.492 262.406 109.228 262.838 109.108C263.27 108.964 263.702 108.892 264.134 108.892C266.966 108.892 268.382 110.944 268.382 115.048C268.382 116.704 268.058 118.48 267.41 120.376C266.786 122.248 265.73 123.856 264.242 125.2C262.778 126.544 260.87 127.216 258.518 127.216ZM260.534 123.724C261.278 123.724 261.974 123.268 262.622 122.356C263.27 121.42 263.786 120.268 264.17 118.9C264.554 117.508 264.746 116.176 264.746 114.904C264.746 113.944 264.578 113.128 264.242 112.456C263.906 111.784 263.438 111.448 262.838 111.448C262.478 111.448 262.07 111.508 261.614 111.628C261.182 111.724 260.882 111.88 260.714 112.096L258.734 121.24C258.662 121.528 258.626 121.804 258.626 122.068C258.626 123.172 259.262 123.724 260.534 123.724ZM274.983 127.144C273.207 127.144 271.803 126.688 270.771 125.776C269.739 124.864 269.223 123.424 269.223 121.456C269.223 119.824 269.559 118.012 270.231 116.02C270.903 114.028 271.983 112.312 273.471 110.872C274.959 109.408 276.831 108.676 279.087 108.676C282.159 108.676 283.695 110.596 283.695 114.436V114.472C283.767 114.496 283.899 114.508 284.091 114.508C284.883 114.508 285.795 114.304 286.827 113.896C287.859 113.464 288.795 112.948 289.635 112.348L289.959 113.32C289.263 114.064 288.351 114.7 287.223 115.228C286.119 115.732 284.907 116.092 283.587 116.308C283.395 118.492 282.903 120.4 282.111 122.032C281.319 123.664 280.299 124.924 279.051 125.812C277.803 126.7 276.447 127.144 274.983 127.144ZM276.423 123.904C276.999 123.904 277.575 123.58 278.151 122.932C278.727 122.26 279.231 121.36 279.663 120.232C280.095 119.08 280.407 117.808 280.599 116.416C279.951 116.272 279.627 115.768 279.627 114.904C279.627 113.92 279.999 113.272 280.743 112.96C280.695 112.168 280.575 111.628 280.383 111.34C280.191 111.028 279.855 110.872 279.375 110.872C278.583 110.872 277.815 111.448 277.071 112.6C276.327 113.752 275.727 115.132 275.271 116.74C274.815 118.348 274.587 119.764 274.587 120.988C274.587 122.14 274.719 122.92 274.983 123.328C275.247 123.712 275.727 123.904 276.423 123.904ZM289.867 127.216C288.499 127.216 287.359 126.748 286.447 125.812C285.535 124.876 285.079 123.412 285.079 121.42C285.079 119.644 285.427 117.784 286.123 115.84C286.843 113.872 287.899 112.216 289.291 110.872C290.707 109.504 292.387 108.82 294.331 108.82C295.315 108.82 296.047 108.988 296.527 109.324C297.007 109.66 297.247 110.104 297.247 110.656V110.908L297.643 109H302.827L300.235 121.24C300.139 121.6 300.091 121.984 300.091 122.392C300.091 123.424 300.583 123.94 301.567 123.94C302.239 123.94 302.815 123.628 303.295 123.004C303.799 122.38 304.195 121.564 304.483 120.556H305.995C305.107 123.148 304.003 124.912 302.683 125.848C301.387 126.76 300.079 127.216 298.759 127.216C297.751 127.216 296.935 126.94 296.311 126.388C295.711 125.812 295.351 124.984 295.231 123.904C294.535 124.888 293.755 125.692 292.891 126.316C292.051 126.916 291.043 127.216 289.867 127.216ZM292.207 123.724C292.807 123.724 293.395 123.448 293.971 122.896C294.571 122.32 294.979 121.54 295.195 120.556L296.923 112.42C296.923 112.108 296.803 111.808 296.563 111.52C296.323 111.208 295.951 111.052 295.447 111.052C294.487 111.052 293.623 111.616 292.855 112.744C292.087 113.848 291.487 115.192 291.055 116.776C290.623 118.336 290.407 119.716 290.407 120.916C290.407 122.116 290.575 122.884 290.911 123.22C291.271 123.556 291.703 123.724 292.207 123.724ZM307.88 127.216C306.656 127.216 305.744 126.844 305.144 126.1C304.568 125.356 304.28 124.372 304.28 123.148C304.28 122.524 304.352 121.888 304.496 121.24L306.8 110.44H305.612L305.9 109H307.088L308.168 104.032L313.496 103.312C313.28 104.224 313.16 104.764 313.136 104.932C312.968 105.604 312.68 106.96 312.272 109H314.432L314.144 110.44H311.984L309.68 121.24C309.56 121.768 309.5 122.188 309.5 122.5C309.5 123.364 309.92 123.796 310.76 123.796C311.192 123.796 311.504 123.76 311.696 123.688C311.216 125.08 310.652 126.016 310.004 126.496C309.356 126.976 308.648 127.216 307.88 127.216Z" fill="#0F0803"/>
<g clip-path="url(#clip0)">
<path d="M62.8567 58.0682C62.8567 58.0682 55.7301 60.7688 51.3391 67.2631C49.5176 69.9509 44.8869 84.9866 42.7395 92.9528C42.7395 92.9528 45.5609 95.0406 52.467 96.8911C59.373 98.7415 62.8451 98.3529 62.8451 98.3529C64.9686 90.3802 68.461 75.0524 68.2426 71.8051C67.6782 63.9703 62.8567 58.0682 62.8567 58.0682Z" fill="#FF8A3B"/>
<path d="M41.813 94.3568C41.9436 94.443 44.9433 96.6298 52.0166 98.5251C59.0899 100.42 62.7899 100.042 62.9374 100.017C63.5295 99.958 64.0288 99.5283 64.1825 98.9548C66.1458 91.5795 69.8781 75.5476 69.6147 71.9425C69.1352 65.1293 65.6548 59.7659 64.3733 58.001L78.464 5.36607L78.703 5.4301C79.4677 5.635 80.2706 5.17143 80.4755 4.40674C80.6804 3.64206 80.2168 2.83912 79.4521 2.63423L76.1783 1.75702C75.796 1.65457 75.4079 1.71705 75.0897 1.90073C74.7716 2.08441 74.5234 2.38929 74.421 2.77163C74.2161 3.53631 74.6796 4.33925 75.4443 4.54414L75.6833 4.60817L61.5774 57.2519C60.9971 57.5062 60.1137 57.9354 59.0532 58.5476C56.4475 60.0521 52.7966 62.6851 50.0675 66.7049C48.0456 69.7104 43.2531 85.4455 41.2658 92.8143C41.1122 93.3878 41.321 93.9944 41.813 94.3568ZM52.4679 68.3085C54.8865 64.7306 58.2391 62.3506 60.5722 61.0036L53.849 86.0948C53.6441 86.8595 54.1077 87.6624 54.8724 87.8673C55.637 88.0722 56.44 87.6086 56.6449 86.8439L63.3529 61.7615C64.6999 64.0945 66.4197 67.8081 66.7189 72.1399C66.9133 74.8556 63.8953 88.5562 61.6532 97.1629C60.2253 97.1389 57.2344 96.9266 52.7658 95.7292C48.2733 94.5254 45.5856 93.229 44.3522 92.5271C46.7051 83.9373 50.9417 70.5632 52.4679 68.3085Z" fill="black"/>
</g>
<g clip-path="url(#clip1)">
<path d="M44.1864 52.1663C44.1864 52.1663 44.5697 60.6361 39.8721 67.984C37.9297 71.0295 24.6134 82.3877 17.4232 88.0929C17.4232 88.0929 14.0492 86.1121 9.11235 79.8933C4.17552 73.6744 3.04411 69.9373 3.04411 69.9373C10.2514 64.2537 24.3679 53.9293 27.781 52.7209C36.0323 49.8434 44.1864 52.1663 44.1864 52.1663Z" fill="#FF6835"/>
<path d="M95.8224 12.9701C95.8698 12.5642 95.4841 12.3428 95.211 11.9975C94.6646 11.3067 93.9207 10.9652 93.2299 11.5116L18.3718 70.7265C17.681 71.2729 17.5615 72.2974 18.1079 72.9882C18.6543 73.6789 19.6788 73.7984 20.3695 73.252L95.2061 14.0542C95.573 13.7639 95.775 13.376 95.8224 12.9701Z" fill="#FF8A3B"/>
<path d="M46.2146 55.7731C46.3724 54.42 46.4214 53.3285 46.4253 52.6236L51.2172 48.833C51.5626 48.5598 51.7646 48.1719 51.812 47.766C51.8593 47.3601 51.7521 46.9361 51.4789 46.5907C50.9325 45.9 49.908 45.7805 49.2173 46.3268L44.4253 50.1174C42.077 49.5887 35.0644 48.3982 27.8746 50.9098C24.0785 52.2107 9.34853 63.0904 2.68089 68.3472C2.16284 68.757 1.94634 69.4371 2.14479 70.0872C2.20407 70.2508 3.42891 74.1948 8.48301 80.5841C13.5371 86.9734 17.0909 89.0927 17.2388 89.1687C17.8064 89.5092 18.5374 89.4574 19.0555 89.0476C25.7061 83.7692 39.6847 71.9397 41.8439 68.5473C44.766 63.99 45.8266 59.0979 46.2146 55.7731ZM11.0085 78.5864C7.79846 74.5283 6.26079 71.5863 5.62613 70.1407C13.4481 64.0586 26.0923 54.934 28.9541 53.9159C33.489 52.329 38.0618 52.4315 41.0386 52.7788L18.3933 70.7095C17.7026 71.2559 17.583 72.2803 18.1294 72.9711C18.6758 73.6618 19.7003 73.7813 20.391 73.235L43.0341 55.3236C42.6868 58.3005 41.7554 62.757 39.1454 66.8218C37.5153 69.3746 25.7225 79.5978 18.0053 85.7901C16.7276 84.8181 14.2185 82.6444 11.0085 78.5864Z" fill="black"/>
<path d="M91.8073 12.286L91.978 12.5019L59.3 38.3336C58.6093 38.88 58.4897 39.9045 59.0361 40.5952C59.5825 41.2859 60.607 41.4055 61.2977 40.8591L93.9564 15.0251L94.1272 15.241C94.6736 15.9317 95.6981 16.0513 96.3888 15.5049C96.7342 15.2317 96.9362 14.8438 96.9835 14.4378C97.0309 14.0319 96.9236 13.6079 96.6504 13.2626L94.3112 10.3054C93.7648 9.61464 92.7403 9.49511 92.0496 10.0415C91.3611 10.5686 91.2438 11.5737 91.8073 12.286Z" fill="black"/>
</g>
<defs>
<clipPath id="clip0">
<rect x="117.916" y="68.416" width="79" height="79" transform="rotate(150 117.916 68.416)" fill="white"/>
</clipPath>
<clipPath id="clip1">
<rect y="87.2944" width="87.8866" height="87.8866" transform="rotate(-83.345 0 87.2944)" fill="white"/>
</clipPath>
</defs>
</svg>
