<svg width="435" height="170" viewBox="0 0 435 170" fill="none" xmlns="http://www.w3.org/2000/svg">
<g clip-path="url(#clip0)">
<path d="M204.79 71.0218C204.79 71.0218 210.446 65.9814 212.213 58.3919C212.948 55.2492 211.902 39.6455 211.064 31.4871C211.064 31.4871 207.702 30.552 200.634 31.2892C193.565 32.0264 190.48 33.6215 190.48 33.6215C191.343 41.7773 193.55 57.2477 194.907 60.1844C198.216 67.2569 204.79 71.0218 204.79 71.0218Z" fill="#FF8A3B"/>
<path d="M211.425 29.8545C211.273 29.8209 207.711 28.8572 200.471 29.6123C193.231 30.3673 189.931 32.0343 189.803 32.1095C189.274 32.3748 188.964 32.9512 189.025 33.5382C189.824 41.0825 192.058 57.2917 193.584 60.5447C196.452 66.6989 201.589 70.4405 203.406 71.6233L209.037 125.493L208.792 125.519C208.009 125.6 207.429 126.316 207.51 127.099C207.592 127.882 208.308 128.462 209.091 128.38L212.441 128.031C212.833 127.99 213.171 127.794 213.401 127.511C213.631 127.227 213.753 126.856 213.712 126.464C213.631 125.682 212.915 125.101 212.132 125.183L211.887 125.208L206.268 71.3248C206.716 70.8825 207.384 70.17 208.15 69.2246C210.034 66.9018 212.488 63.1597 213.592 58.458C214.401 54.9492 213.256 38.6387 212.481 31.0918C212.42 30.5048 212.01 30.0159 211.425 29.8545ZM210.794 57.8226C209.82 62.0038 207.554 65.405 205.867 67.4847L203.189 41.8027C203.107 41.02 202.391 40.4394 201.609 40.521C200.826 40.6027 200.245 41.3184 200.327 42.1011L203.017 67.7697C200.937 66.0828 198.02 63.2469 196.202 59.332C195.057 56.8801 192.988 43.0891 192.01 34.3024C193.344 33.8171 196.196 32.951 200.769 32.474C205.368 31.9944 208.324 32.2425 209.718 32.4555C210.587 41.2659 211.409 55.1871 210.794 57.8226Z" fill="black"/>
</g>
<path d="M145.402 77.9141C144.743 78.3932 143.576 79.112 141.898 80.0703C140.281 80.9688 138.544 81.957 136.688 83.0352C134.831 84.1133 133.064 85.1615 131.387 86.1797C129.71 87.138 128.542 87.8568 127.883 88.3359C126.565 89.3542 125.667 90.5221 125.188 91.8398C124.708 93.1576 124.469 94.5951 124.469 96.1523C124.469 97.6497 124.618 99.237 124.918 100.914C125.217 102.531 125.427 104.178 125.547 105.855C125.547 106.694 125.277 107.473 124.738 108.191C124.199 108.91 123.51 109.27 122.672 109.27C122.312 109.27 121.923 109.18 121.504 109C121.085 108.76 120.875 108.431 120.875 108.012L118.809 50.4219C118.809 50.0625 118.928 49.5833 119.168 48.9844C119.467 48.3854 119.707 48.056 119.887 47.9961C120.066 47.9961 120.306 48.026 120.605 48.0859C120.965 48.1458 121.324 48.2656 121.684 48.4453C122.043 48.5651 122.372 48.7148 122.672 48.8945C123.031 49.0143 123.271 49.1341 123.391 49.2539C123.63 51.6497 123.78 54.4049 123.84 57.5195C123.9 60.6341 123.96 63.7786 124.02 66.9531C124.139 70.1276 124.289 73.2122 124.469 76.207C124.708 79.1419 125.098 81.6276 125.637 83.6641C128.212 82.5859 130.638 81.5677 132.914 80.6094C135.19 79.651 137.167 78.543 138.844 77.2852C140.521 76.0273 141.839 74.5 142.797 72.7031C143.755 70.8464 144.204 68.5404 144.145 65.7852C144.145 64.2878 144.115 62.9701 144.055 61.832C143.995 60.694 143.875 59.5859 143.695 58.5078C143.516 57.3698 143.246 56.1719 142.887 54.9141C142.587 53.5964 142.198 52.099 141.719 50.4219C141.599 49.3438 141.779 48.6549 142.258 48.3555C142.737 48.056 143.306 47.9062 143.965 47.9062C144.743 47.9062 145.342 48.0859 145.762 48.4453C146.181 48.8047 146.51 49.2839 146.75 49.8828C147.049 50.4818 147.229 51.1406 147.289 51.8594C147.349 52.5182 147.409 53.1471 147.469 53.7461C147.589 54.7044 147.738 56.1419 147.918 58.0586C148.098 59.9753 148.277 62.1615 148.457 64.6172C148.697 67.013 148.936 69.5586 149.176 72.2539C149.475 74.9492 149.745 77.4948 149.984 79.8906C150.224 82.2865 150.404 84.4427 150.523 86.3594C150.703 88.276 150.853 89.7135 150.973 90.6719C151.152 92.9479 151.392 95.194 151.691 97.4102C151.991 99.6263 152.141 101.902 152.141 104.238V105.676C152.141 106.155 152.081 106.634 151.961 107.113C151.901 107.533 151.691 107.922 151.332 108.281C151.033 108.581 150.523 108.82 149.805 109C148.727 108.221 148.098 107.353 147.918 106.395C147.738 105.436 147.589 104.388 147.469 103.25C147.409 102.591 147.349 101.603 147.289 100.285C147.229 98.9076 147.109 97.4102 146.93 95.793C146.81 94.1159 146.66 92.3789 146.48 90.582C146.361 88.7253 146.211 86.9883 146.031 85.3711C145.911 83.694 145.792 82.1966 145.672 80.8789C145.552 79.5612 145.462 78.5729 145.402 77.9141ZM183.047 106.664C182.747 105.107 182.478 103.25 182.238 101.094C182.059 98.8776 181.849 96.6615 181.609 94.4453C181.37 92.1693 181.07 90.043 180.711 88.0664C180.411 86.0898 179.932 84.4727 179.273 83.2148C176.219 89.444 173.523 94.3555 171.188 97.9492C168.852 101.483 166.785 104.029 164.988 105.586C163.251 107.083 161.784 107.802 160.586 107.742C159.388 107.682 158.4 107.143 157.621 106.125C156.842 105.107 156.273 103.819 155.914 102.262C155.615 100.645 155.405 99.1471 155.285 97.7695C155.285 96.4518 155.585 94.5951 156.184 92.1992C156.783 89.8034 157.591 87.1979 158.609 84.3828C159.628 81.5078 160.826 78.6029 162.203 75.668C163.641 72.7331 165.168 70.0677 166.785 67.6719C168.402 65.276 170.079 63.2995 171.816 61.7422C173.553 60.1849 175.29 59.4062 177.027 59.4062C179.603 58.987 181.49 59.556 182.688 61.1133C183.945 62.6107 184.185 65.1562 183.406 68.75C183.406 72.7031 183.556 76.0872 183.855 78.9023C184.215 81.7174 184.574 84.4128 184.934 86.9883C185.353 89.5638 185.712 92.2591 186.012 95.0742C186.371 97.8893 186.551 101.273 186.551 105.227C186.551 105.945 186.461 106.574 186.281 107.113C186.161 107.592 185.443 107.832 184.125 107.832C183.945 107.832 183.706 107.682 183.406 107.383C183.167 107.083 183.047 106.844 183.047 106.664ZM178.195 66.5039C177.536 65.5456 176.638 65.4557 175.5 66.2344C174.362 67.013 173.164 68.3008 171.906 70.0977C170.648 71.8945 169.361 74.0508 168.043 76.5664C166.725 79.082 165.497 81.6276 164.359 84.2031C163.221 86.7786 162.233 89.2344 161.395 91.5703C160.556 93.8464 159.987 95.7331 159.688 97.2305C159.688 99.3867 160.017 100.615 160.676 100.914C161.335 101.154 162.143 100.794 163.102 99.8359C164.06 98.8776 165.138 97.5 166.336 95.7031C167.594 93.9062 168.792 91.9896 169.93 89.9531C171.128 87.9167 172.236 85.9401 173.254 84.0234C174.332 82.1068 175.171 80.5495 175.77 79.3516C176.309 78.0938 176.728 76.9258 177.027 75.8477C177.327 74.7695 177.566 73.7513 177.746 72.793C177.986 71.7747 178.105 70.7565 178.105 69.7383C178.165 68.7201 178.195 67.6419 178.195 66.5039Z" fill="#0F0803"/>
<path d="M231.109 88.5938C230.81 88.6536 230.361 88.7435 229.762 88.8633C229.163 88.9831 228.534 89.013 227.875 88.9531C227.216 88.8932 226.647 88.7135 226.168 88.4141C225.629 88.1146 225.359 87.6055 225.359 86.8867C225.359 86.4674 225.449 86.168 225.629 85.9883C225.809 85.8086 226.108 85.5391 226.527 85.1797C227.845 84.1016 228.953 82.724 229.852 81.0469C230.81 79.3099 231.678 77.4831 232.457 75.5664C233.236 73.5898 234.044 71.6432 234.883 69.7266C235.781 67.75 236.799 65.9831 237.938 64.4258C239.076 62.8685 240.483 61.6107 242.16 60.6523C243.837 59.694 245.904 59.2448 248.359 59.3047C249.378 59.3047 250.516 59.5443 251.773 60.0234C253.031 60.5026 254.199 61.1615 255.277 62C256.355 62.7786 257.254 63.737 257.973 64.875C258.691 66.013 259.051 67.2708 259.051 68.6484C259.35 69.1276 259.051 69.8164 258.152 70.7148C257.314 71.6133 256.146 72.6016 254.648 73.6797C253.151 74.6979 251.444 75.776 249.527 76.9141C247.671 77.9922 245.874 79.0104 244.137 79.9688C242.4 80.9271 240.872 81.7656 239.555 82.4844C238.237 83.2031 237.368 83.7422 236.949 84.1016C236.65 84.7005 236.41 85.3893 236.23 86.168C236.051 86.9466 235.901 87.6953 235.781 88.4141C235.721 89.0729 235.661 89.7018 235.602 90.3008C235.602 90.8398 235.602 91.2591 235.602 91.5586C235.602 92.6966 235.542 93.9544 235.422 95.332C235.362 96.7096 235.422 98.0273 235.602 99.2852C235.841 100.483 236.35 101.501 237.129 102.34C237.908 103.118 239.225 103.508 241.082 103.508C243.059 103.508 244.915 103.029 246.652 102.07C248.389 101.052 250.007 99.8242 251.504 98.3867C253.001 96.9492 254.349 95.3919 255.547 93.7148C256.805 92.0378 257.913 90.4805 258.871 89.043C259.889 87.5456 260.788 86.3177 261.566 85.3594C262.345 84.401 263.004 83.9219 263.543 83.9219C264.142 83.9219 264.771 84.0417 265.43 84.2812C266.148 84.4609 266.508 84.9401 266.508 85.7188C266.508 86.7969 266.059 88.0846 265.16 89.582C264.322 91.0794 263.184 92.6667 261.746 94.3438C260.368 96.0208 258.751 97.6979 256.895 99.375C255.098 100.992 253.271 102.46 251.414 103.777C249.557 105.035 247.73 106.083 245.934 106.922C244.137 107.701 242.549 108.09 241.172 108.09C238.477 108.09 236.44 107.431 235.062 106.113C233.685 104.796 232.697 103.148 232.098 101.172C231.559 99.1953 231.259 97.099 231.199 94.8828C231.199 92.6068 231.169 90.5104 231.109 88.5938ZM247.641 64.3359C246.622 64.3359 245.544 64.8451 244.406 65.8633C243.268 66.8216 242.19 68.0195 241.172 69.457C240.214 70.8346 239.405 72.2721 238.746 73.7695C238.147 75.207 237.848 76.4049 237.848 77.3633C238.746 77.3633 240.034 77.0339 241.711 76.375C243.448 75.6562 245.155 74.7878 246.832 73.7695C248.509 72.7513 249.977 71.6732 251.234 70.5352C252.492 69.3971 253.121 68.319 253.121 67.3008C253.121 66.7617 252.911 66.3125 252.492 65.9531C252.073 65.5938 251.564 65.2943 250.965 65.0547C250.426 64.8151 249.857 64.6354 249.258 64.5156C248.659 64.3958 248.12 64.3359 247.641 64.3359ZM271 64.6953V63.9766C271 63.3776 271.21 62.9583 271.629 62.7188C272.108 62.4792 272.647 62.3594 273.246 62.3594C273.725 62.3594 274.174 62.4193 274.594 62.5391C275.013 62.599 275.342 62.9284 275.582 63.5273C275.762 64.4258 275.941 65.6836 276.121 67.3008C276.301 68.8581 276.51 70.5951 276.75 72.5117C276.99 74.4284 277.229 76.4648 277.469 78.6211C277.768 80.7174 278.038 82.724 278.277 84.6406C278.577 86.4974 278.876 88.1745 279.176 89.6719C279.475 91.1693 279.805 92.3073 280.164 93.0859C279.984 87.3359 280.164 82.3646 280.703 78.1719C281.242 73.9193 282.26 70.4753 283.758 67.8398C285.315 65.1445 287.411 63.2878 290.047 62.2695C292.742 61.1914 296.096 60.9518 300.109 61.5508C301.966 61.5508 302.895 62.5391 302.895 64.5156C302.895 65.2943 302.385 65.8333 301.367 66.1328C300.349 66.3724 299.211 66.5521 297.953 66.6719C296.695 66.7318 295.467 66.8216 294.27 66.9414C293.072 67.0612 292.203 67.3607 291.664 67.8398C289.508 69.0378 287.98 70.8945 287.082 73.4102C286.243 75.9258 285.645 78.8906 285.285 82.3047C284.926 85.7188 284.656 89.4622 284.477 93.5352C284.357 97.5482 283.967 101.681 283.309 105.934C283.309 106.533 283.069 106.982 282.59 107.281C282.111 107.581 281.512 107.73 280.793 107.73C280.134 107.73 279.475 107.581 278.816 107.281C278.217 106.982 277.738 106.533 277.379 105.934L271 64.6953ZM332.992 105.664C332.693 104.107 332.423 102.25 332.184 100.094C332.004 97.8776 331.794 95.6615 331.555 93.4453C331.315 91.1693 331.016 89.043 330.656 87.0664C330.357 85.0898 329.878 83.4727 329.219 82.2148C326.164 88.444 323.469 93.3555 321.133 96.9492C318.797 100.483 316.73 103.029 314.934 104.586C313.197 106.083 311.729 106.802 310.531 106.742C309.333 106.682 308.345 106.143 307.566 105.125C306.788 104.107 306.219 102.819 305.859 101.262C305.56 99.6445 305.35 98.1471 305.23 96.7695C305.23 95.4518 305.53 93.5951 306.129 91.1992C306.728 88.8034 307.536 86.1979 308.555 83.3828C309.573 80.5078 310.771 77.6029 312.148 74.668C313.586 71.7331 315.113 69.0677 316.73 66.6719C318.348 64.276 320.025 62.2995 321.762 60.7422C323.499 59.1849 325.236 58.4062 326.973 58.4062C329.548 57.987 331.435 58.556 332.633 60.1133C333.891 61.6107 334.13 64.1562 333.352 67.75C333.352 71.7031 333.501 75.0872 333.801 77.9023C334.16 80.7174 334.52 83.4128 334.879 85.9883C335.298 88.5638 335.658 91.2591 335.957 94.0742C336.316 96.8893 336.496 100.273 336.496 104.227C336.496 104.945 336.406 105.574 336.227 106.113C336.107 106.592 335.388 106.832 334.07 106.832C333.891 106.832 333.651 106.682 333.352 106.383C333.112 106.083 332.992 105.844 332.992 105.664ZM328.141 65.5039C327.482 64.5456 326.583 64.4557 325.445 65.2344C324.307 66.013 323.109 67.3008 321.852 69.0977C320.594 70.8945 319.306 73.0508 317.988 75.5664C316.671 78.082 315.443 80.6276 314.305 83.2031C313.167 85.7786 312.178 88.2344 311.34 90.5703C310.501 92.8464 309.932 94.7331 309.633 96.2305C309.633 98.3867 309.962 99.6146 310.621 99.9141C311.28 100.154 312.089 99.7943 313.047 98.8359C314.005 97.8776 315.083 96.5 316.281 94.7031C317.539 92.9062 318.737 90.9896 319.875 88.9531C321.073 86.9167 322.181 84.9401 323.199 83.0234C324.277 81.1068 325.116 79.5495 325.715 78.3516C326.254 77.0938 326.673 75.9258 326.973 74.8477C327.272 73.7695 327.512 72.7513 327.691 71.793C327.931 70.7747 328.051 69.7565 328.051 68.7383C328.111 67.7201 328.141 66.6419 328.141 65.5039Z" fill="#0F0803"/>
<path d="M153.334 143.027C153.24 143.027 153.1 143.074 152.912 143.168C152.725 143.238 152.525 143.332 152.314 143.449C152.127 143.543 151.939 143.637 151.752 143.73C151.564 143.824 151.4 143.871 151.26 143.871C151.025 143.871 150.814 143.824 150.627 143.73C150.463 143.637 150.381 143.449 150.381 143.168C150.381 142.934 150.486 142.711 150.697 142.5C150.932 142.289 151.201 142.078 151.506 141.867C151.811 141.656 152.115 141.457 152.42 141.27C152.725 141.082 152.947 140.895 153.088 140.707C153.041 140.332 153.006 139.629 152.982 138.598C152.959 137.566 152.959 136.395 152.982 135.082C153.029 133.746 153.111 132.375 153.229 130.969C153.369 129.562 153.568 128.309 153.826 127.207C154.107 126.082 154.471 125.203 154.916 124.57C155.361 123.938 155.936 123.738 156.639 123.973C157.131 123.973 157.576 124.125 157.975 124.43C158.373 124.711 158.713 125.074 158.994 125.52C159.275 125.941 159.486 126.41 159.627 126.926C159.791 127.441 159.873 127.91 159.873 128.332C159.873 128.566 159.814 128.824 159.697 129.105C159.604 129.363 159.416 129.492 159.135 129.492H159.029C159.006 129.492 158.982 129.48 158.959 129.457C158.396 128.027 157.916 127.125 157.518 126.75C157.143 126.352 156.814 126.34 156.533 126.715C156.275 127.09 156.053 127.758 155.865 128.719C155.701 129.68 155.561 130.793 155.443 132.059C155.326 133.301 155.221 134.625 155.127 136.031C155.033 137.414 154.939 138.703 154.846 139.898C155.314 139.781 155.701 139.664 156.006 139.547C156.334 139.43 156.627 139.312 156.885 139.195C157.143 139.055 157.377 138.926 157.588 138.809C157.799 138.668 158.033 138.551 158.291 138.457C158.783 138.223 159.322 138 159.908 137.789C160.518 137.555 161.104 137.438 161.666 137.438C161.666 138.117 161.537 138.68 161.279 139.125C161.045 139.57 160.729 139.934 160.33 140.215C159.955 140.496 159.521 140.707 159.029 140.848C158.537 140.965 158.033 141.07 157.518 141.164C157.025 141.258 156.557 141.352 156.111 141.445C155.666 141.539 155.279 141.656 154.951 141.797C155.021 143.32 155.115 144.656 155.232 145.805C155.373 146.953 155.49 147.973 155.584 148.863C155.701 149.754 155.783 150.574 155.83 151.324C155.9 152.051 155.9 152.777 155.83 153.504C155.83 153.668 155.83 153.902 155.83 154.207C155.854 154.488 155.842 154.77 155.795 155.051C155.771 155.332 155.689 155.578 155.549 155.789C155.408 155.977 155.186 156.07 154.881 156.07C154.6 156.07 154.389 156.012 154.248 155.895C154.107 155.754 154.014 155.484 153.967 155.086C153.826 153.188 153.709 151.582 153.615 150.27C153.545 148.934 153.486 147.82 153.439 146.93C153.393 146.016 153.369 145.301 153.369 144.785V143.168C153.369 143.074 153.357 143.027 153.334 143.027ZM163.564 155.297C163.564 153.773 163.529 152.168 163.459 150.48C163.412 148.793 163.354 147.094 163.283 145.383C163.236 143.648 163.225 141.949 163.248 140.285C163.271 138.621 163.377 137.062 163.564 135.609C163.611 135.586 163.717 135.574 163.881 135.574C164.068 135.551 164.197 135.539 164.268 135.539C164.596 135.539 164.854 135.598 165.041 135.715C165.252 135.809 165.357 136.031 165.357 136.383C165.357 137.766 165.346 139.277 165.322 140.918C165.322 142.535 165.311 144.188 165.287 145.875C165.287 147.539 165.287 149.191 165.287 150.832C165.287 152.473 165.311 153.961 165.357 155.297C165.381 155.695 165.299 155.953 165.111 156.07C164.947 156.211 164.736 156.281 164.479 156.281C164.197 156.281 163.963 156.211 163.775 156.07C163.588 155.953 163.518 155.695 163.564 155.297ZM162.791 130.125C162.791 129.844 162.885 129.656 163.072 129.562C163.26 129.469 163.471 129.422 163.705 129.422C164.174 129.422 164.467 129.574 164.584 129.879C164.701 130.184 164.76 130.535 164.76 130.934C164.619 131.191 164.443 131.379 164.232 131.496C164.021 131.59 163.799 131.613 163.564 131.566C163.354 131.496 163.166 131.344 163.002 131.109C162.861 130.875 162.791 130.547 162.791 130.125ZM169.26 155.543C169.002 152.379 168.768 149.215 168.557 146.051C168.369 142.863 168.158 139.559 167.924 136.137C167.924 135.574 168.229 135.293 168.838 135.293H169.119C169.189 135.293 169.271 135.387 169.365 135.574C169.459 135.762 169.553 136.113 169.646 136.629C169.764 137.121 169.881 137.883 169.998 138.914C170.139 139.922 170.303 141.246 170.49 142.887C170.678 144.527 170.889 146.578 171.123 149.039C171.615 147.445 172.002 145.898 172.283 144.398C172.564 142.898 172.928 141.539 173.373 140.32C173.818 139.078 174.439 137.988 175.236 137.051C176.057 136.113 177.229 135.422 178.752 134.977C179.596 135.117 180.275 135.633 180.791 136.523C181.307 137.391 181.717 138.469 182.021 139.758C182.326 141.047 182.537 142.453 182.654 143.977C182.771 145.477 182.842 146.918 182.865 148.301C182.889 149.684 182.9 150.926 182.9 152.027C182.9 153.105 182.924 153.879 182.971 154.348C182.9 154.535 182.795 154.699 182.654 154.84C182.514 154.98 182.35 155.086 182.162 155.156C181.998 155.203 181.834 155.215 181.67 155.191C181.506 155.145 181.354 155.016 181.213 154.805C181.213 154.547 181.189 154.02 181.143 153.223C181.096 152.426 181.037 151.5 180.967 150.445C180.896 149.367 180.814 148.23 180.721 147.035C180.65 145.816 180.58 144.68 180.51 143.625C180.463 142.547 180.416 141.609 180.369 140.812C180.322 140.016 180.287 139.488 180.264 139.23C179.771 138.363 179.279 137.871 178.787 137.754C178.318 137.637 177.838 137.789 177.346 138.211C176.877 138.633 176.42 139.277 175.975 140.145C175.529 141.012 175.107 141.996 174.709 143.098C174.311 144.176 173.936 145.312 173.584 146.508C173.232 147.703 172.928 148.863 172.67 149.988C172.412 151.09 172.189 152.098 172.002 153.012C171.838 153.902 171.732 154.594 171.686 155.086C171.615 155.25 171.463 155.414 171.229 155.578C171.018 155.719 170.783 155.824 170.525 155.895C170.291 155.965 170.045 155.988 169.787 155.965C169.553 155.918 169.377 155.777 169.26 155.543ZM192.885 149.566C192.65 150.105 192.346 150.727 191.971 151.43C191.619 152.133 191.197 152.801 190.705 153.434C190.236 154.066 189.686 154.605 189.053 155.051C188.42 155.496 187.717 155.719 186.943 155.719C186.592 155.719 186.311 155.684 186.1 155.613C185.912 155.52 185.736 155.391 185.572 155.227C185.432 155.062 185.291 154.863 185.15 154.629C185.033 154.395 184.881 154.137 184.693 153.855C184.623 152.707 184.576 151.477 184.553 150.164C184.553 148.828 184.623 147.504 184.764 146.191C184.904 144.855 185.139 143.602 185.467 142.43C185.818 141.258 186.299 140.262 186.908 139.441C187.541 138.621 188.326 138.035 189.264 137.684C190.201 137.332 191.338 137.309 192.674 137.613C192.744 136.957 192.756 136.078 192.709 134.977C192.662 133.875 192.592 132.715 192.498 131.496C192.404 130.277 192.311 129.105 192.217 127.98C192.123 126.832 192.064 125.895 192.041 125.168C192.041 124.957 192.135 124.805 192.322 124.711C192.533 124.594 192.756 124.523 192.99 124.5C193.225 124.477 193.447 124.477 193.658 124.5C193.893 124.523 194.045 124.559 194.115 124.605C194.068 127.488 194.057 130.324 194.08 133.113C194.104 135.879 194.127 138.645 194.15 141.41C194.197 144.152 194.244 146.883 194.291 149.602C194.338 152.32 194.361 155.039 194.361 157.758C194.361 158.016 194.338 158.285 194.291 158.566C194.268 158.871 194.068 159.023 193.693 159.023C193.553 159.023 193.412 158.977 193.271 158.883C193.131 158.812 193.037 158.695 192.99 158.531L192.885 149.566ZM191.373 139.371C190.646 139.324 189.967 139.617 189.334 140.25C188.725 140.859 188.186 141.656 187.717 142.641C187.271 143.625 186.908 144.715 186.627 145.91C186.346 147.082 186.17 148.219 186.1 149.32C186.053 150.398 186.123 151.359 186.311 152.203C186.521 153.047 186.885 153.621 187.4 153.926C187.916 153.926 188.396 153.727 188.842 153.328C189.287 152.906 189.697 152.379 190.072 151.746C190.447 151.113 190.775 150.41 191.057 149.637C191.338 148.84 191.572 148.078 191.76 147.352C191.971 146.625 192.123 145.969 192.217 145.383C192.334 144.773 192.393 144.316 192.393 144.012C192.393 143.777 192.404 143.402 192.428 142.887C192.451 142.371 192.439 141.855 192.393 141.34C192.346 140.824 192.24 140.367 192.076 139.969C191.936 139.57 191.701 139.371 191.373 139.371ZM221.818 155.859L212.748 141.34C212.725 141.316 212.701 141.234 212.678 141.094C212.654 140.93 212.643 140.801 212.643 140.707C212.643 140.402 212.689 140.145 212.783 139.934C212.9 139.699 213.182 139.582 213.627 139.582C213.721 139.582 213.885 139.641 214.119 139.758C214.354 139.852 214.494 139.945 214.541 140.039C215.057 140.859 215.584 141.773 216.123 142.781C216.686 143.789 217.26 144.797 217.846 145.805C218.455 146.812 219.088 147.785 219.744 148.723C220.4 149.637 221.092 150.422 221.818 151.078L222.662 137.297C222.686 137.297 222.744 137.297 222.838 137.297C222.955 137.273 223.037 137.262 223.084 137.262C223.295 137.262 223.506 137.297 223.717 137.367C223.928 137.414 224.08 137.566 224.174 137.824C224.197 138.668 224.197 139.711 224.174 140.953C224.174 142.195 224.15 143.473 224.104 144.785C224.08 146.098 224.045 147.363 223.998 148.582C223.975 149.777 223.951 150.738 223.928 151.465C223.904 151.934 223.857 152.637 223.787 153.574C223.74 154.512 223.67 155.566 223.576 156.738C223.506 157.934 223.412 159.188 223.295 160.5C223.201 161.812 223.107 163.055 223.014 164.227C222.92 165.398 222.838 166.453 222.768 167.391C222.697 168.352 222.639 169.043 222.592 169.465H220.764L221.818 155.859ZM225.826 151.184C225.662 150.105 225.58 149.062 225.58 148.055C225.58 147.023 225.639 145.98 225.756 144.926C225.896 143.871 226.084 142.781 226.318 141.656C226.576 140.508 226.869 139.277 227.197 137.965C227.197 137.707 227.268 137.473 227.408 137.262C227.549 137.027 227.736 136.84 227.971 136.699C228.205 136.535 228.451 136.406 228.709 136.312C228.967 136.219 229.213 136.172 229.447 136.172C229.963 136.172 230.432 136.336 230.854 136.664C231.275 136.992 231.65 137.391 231.979 137.859C232.33 138.328 232.623 138.832 232.857 139.371C233.115 139.887 233.326 140.332 233.49 140.707C233.678 141.527 233.807 142.465 233.877 143.52C233.971 144.551 233.982 145.605 233.912 146.684C233.842 147.762 233.678 148.828 233.42 149.883C233.162 150.914 232.799 151.863 232.33 152.73C231.861 153.598 231.252 154.324 230.502 154.91C229.775 155.496 228.908 155.859 227.9 156C227.361 156 226.951 155.824 226.67 155.473C226.389 155.098 226.178 154.652 226.037 154.137C225.92 153.598 225.85 153.059 225.826 152.52C225.826 151.98 225.826 151.535 225.826 151.184ZM227.619 151.078C227.619 151.312 227.619 151.535 227.619 151.746C227.643 151.957 227.666 152.168 227.689 152.379C227.736 152.566 227.783 152.777 227.83 153.012C227.9 153.223 227.982 153.469 228.076 153.75H228.287C228.85 153.75 229.33 153.562 229.729 153.188C230.127 152.812 230.467 152.332 230.748 151.746C231.029 151.137 231.264 150.469 231.451 149.742C231.639 148.992 231.779 148.266 231.873 147.562C231.99 146.836 232.061 146.168 232.084 145.559C232.131 144.926 232.154 144.422 232.154 144.047V143.344C232.154 143.039 232.143 142.699 232.119 142.324C232.096 141.926 232.049 141.527 231.979 141.129C231.932 140.707 231.85 140.332 231.732 140.004C231.615 139.652 231.463 139.371 231.275 139.16C231.088 138.949 230.842 138.844 230.537 138.844C230.021 138.68 229.576 138.715 229.201 138.949C228.85 139.184 228.557 139.582 228.322 140.145C228.111 140.684 227.947 141.352 227.83 142.148C227.713 142.945 227.643 143.824 227.619 144.785C227.596 145.746 227.584 146.766 227.584 147.844C227.607 148.922 227.619 150 227.619 151.078ZM244.389 151.922C244.295 152.203 244.061 152.59 243.686 153.082C243.334 153.551 242.912 154.031 242.42 154.523C241.928 154.992 241.412 155.414 240.873 155.789C240.357 156.141 239.9 156.316 239.502 156.316C238.752 156.316 238.131 155.965 237.639 155.262C237.17 154.559 236.807 153.656 236.549 152.555C236.291 151.453 236.115 150.234 236.021 148.898C235.928 147.539 235.869 146.215 235.846 144.926C235.822 143.637 235.811 142.465 235.811 141.41C235.811 140.355 235.775 139.559 235.705 139.02C235.799 138.785 235.916 138.645 236.057 138.598C236.221 138.551 236.408 138.527 236.619 138.527C236.807 138.527 236.971 138.551 237.111 138.598C237.275 138.645 237.416 138.785 237.533 139.02C237.533 139.277 237.533 139.711 237.533 140.32C237.557 140.93 237.592 141.621 237.639 142.395C237.686 143.145 237.732 143.941 237.779 144.785C237.826 145.605 237.861 146.391 237.885 147.141C237.932 147.891 237.967 148.57 237.99 149.18C238.037 149.766 238.072 150.199 238.096 150.48C238.119 150.645 238.143 150.914 238.166 151.289C238.213 151.664 238.271 152.062 238.342 152.484C238.436 152.883 238.541 153.246 238.658 153.574C238.799 153.902 238.975 154.078 239.186 154.102C239.537 154.102 239.889 153.949 240.24 153.645C240.615 153.34 240.979 152.953 241.33 152.484C241.682 152.016 242.01 151.5 242.314 150.938C242.619 150.375 242.889 149.836 243.123 149.32C243.381 148.781 243.568 148.301 243.686 147.879C243.826 147.457 243.908 147.152 243.932 146.965C243.979 146.566 244.025 146.004 244.072 145.277C244.119 144.527 244.154 143.73 244.178 142.887C244.201 142.043 244.213 141.246 244.213 140.496C244.236 139.746 244.248 139.172 244.248 138.773L246.182 138.879C246.205 140.777 246.193 142.5 246.146 144.047C246.1 145.57 246.088 147.012 246.111 148.371C246.135 149.707 246.24 151.008 246.428 152.273C246.615 153.539 246.955 154.852 247.447 156.211C247.377 156.281 247.236 156.375 247.025 156.492C246.814 156.633 246.662 156.703 246.568 156.703C245.982 156.703 245.584 156.504 245.373 156.105C245.186 155.73 245.057 155.285 244.986 154.77C244.939 154.23 244.893 153.703 244.846 153.188C244.822 152.648 244.67 152.227 244.389 151.922ZM249.416 139.055V138.773C249.416 138.539 249.498 138.375 249.662 138.281C249.85 138.188 250.061 138.141 250.295 138.141C250.482 138.141 250.658 138.164 250.822 138.211C250.986 138.234 251.115 138.363 251.209 138.598C251.279 138.949 251.35 139.441 251.42 140.074C251.49 140.684 251.572 141.363 251.666 142.113C251.76 142.863 251.854 143.66 251.947 144.504C252.064 145.324 252.17 146.109 252.264 146.859C252.381 147.586 252.498 148.242 252.615 148.828C252.732 149.414 252.861 149.859 253.002 150.164C252.932 147.914 253.002 145.969 253.213 144.328C253.424 142.664 253.822 141.316 254.408 140.285C255.018 139.23 255.838 138.504 256.869 138.105C257.924 137.684 259.236 137.59 260.807 137.824C261.533 137.824 261.896 138.211 261.896 138.984C261.896 139.289 261.697 139.5 261.299 139.617C260.9 139.711 260.455 139.781 259.963 139.828C259.471 139.852 258.99 139.887 258.521 139.934C258.053 139.98 257.713 140.098 257.502 140.285C256.658 140.754 256.061 141.48 255.709 142.465C255.381 143.449 255.146 144.609 255.006 145.945C254.865 147.281 254.76 148.746 254.689 150.34C254.643 151.91 254.49 153.527 254.232 155.191C254.232 155.426 254.139 155.602 253.951 155.719C253.764 155.836 253.529 155.895 253.248 155.895C252.99 155.895 252.732 155.836 252.475 155.719C252.24 155.602 252.053 155.426 251.912 155.191L249.416 139.055ZM280.459 155.754C280.342 153.902 280.295 151.934 280.318 149.848C280.365 147.762 280.424 145.512 280.494 143.098C280.564 140.684 280.623 138.07 280.67 135.258C280.74 132.422 280.752 129.328 280.705 125.977C280.963 125.977 281.232 125.965 281.514 125.941C281.795 125.895 282.041 125.883 282.252 125.906C282.486 125.93 282.674 126 282.814 126.117C282.979 126.234 283.061 126.445 283.061 126.75C283.061 127.617 283.025 128.625 282.955 129.773C282.908 130.898 282.838 132.141 282.744 133.5C282.65 134.836 282.568 136.277 282.498 137.824C282.451 139.371 282.428 141 282.428 142.711C283.248 141.633 284.01 140.754 284.713 140.074C285.416 139.395 286.084 138.855 286.717 138.457C287.35 138.035 287.971 137.777 288.58 137.684C289.189 137.566 289.787 137.531 290.373 137.578C291.053 137.578 291.604 137.766 292.025 138.141C292.471 138.516 292.811 138.984 293.045 139.547C293.279 140.109 293.443 140.742 293.537 141.445C293.631 142.125 293.678 142.793 293.678 143.449C293.678 143.918 293.643 144.422 293.572 144.961C293.525 145.477 293.396 146.051 293.186 146.684C292.975 147.316 292.646 147.973 292.201 148.652C291.779 149.309 291.182 150.012 290.408 150.762C289.635 151.512 288.65 152.285 287.455 153.082C286.283 153.879 284.854 154.699 283.166 155.543C282.604 155.707 282.146 155.812 281.795 155.859C281.467 155.883 281.197 155.895 280.986 155.895C280.799 155.871 280.658 155.848 280.564 155.824C280.494 155.801 280.459 155.777 280.459 155.754ZM281.971 153.645C282.088 153.574 282.404 153.422 282.92 153.188C283.436 152.93 284.045 152.602 284.748 152.203C285.451 151.805 286.213 151.324 287.033 150.762C287.854 150.199 288.604 149.543 289.283 148.793C289.986 148.043 290.584 147.199 291.076 146.262C291.568 145.324 291.861 144.293 291.955 143.168C291.955 142.84 291.908 142.488 291.814 142.113C291.721 141.738 291.568 141.387 291.357 141.059C291.17 140.73 290.924 140.461 290.619 140.25C290.314 140.016 289.951 139.898 289.529 139.898C288.662 139.898 287.842 140.133 287.068 140.602C286.318 141.07 285.627 141.656 284.994 142.359C284.361 143.062 283.799 143.824 283.307 144.645C282.814 145.441 282.416 146.18 282.111 146.859L281.971 153.645ZM295.787 151.184C295.623 150.105 295.541 149.062 295.541 148.055C295.541 147.023 295.6 145.98 295.717 144.926C295.857 143.871 296.045 142.781 296.279 141.656C296.537 140.508 296.83 139.277 297.158 137.965C297.158 137.707 297.229 137.473 297.369 137.262C297.51 137.027 297.697 136.84 297.932 136.699C298.166 136.535 298.412 136.406 298.67 136.312C298.928 136.219 299.174 136.172 299.408 136.172C299.924 136.172 300.393 136.336 300.814 136.664C301.236 136.992 301.611 137.391 301.939 137.859C302.291 138.328 302.584 138.832 302.818 139.371C303.076 139.887 303.287 140.332 303.451 140.707C303.639 141.527 303.768 142.465 303.838 143.52C303.932 144.551 303.943 145.605 303.873 146.684C303.803 147.762 303.639 148.828 303.381 149.883C303.123 150.914 302.76 151.863 302.291 152.73C301.822 153.598 301.213 154.324 300.463 154.91C299.736 155.496 298.869 155.859 297.861 156C297.322 156 296.912 155.824 296.631 155.473C296.35 155.098 296.139 154.652 295.998 154.137C295.881 153.598 295.811 153.059 295.787 152.52C295.787 151.98 295.787 151.535 295.787 151.184ZM297.58 151.078C297.58 151.312 297.58 151.535 297.58 151.746C297.604 151.957 297.627 152.168 297.65 152.379C297.697 152.566 297.744 152.777 297.791 153.012C297.861 153.223 297.943 153.469 298.037 153.75H298.248C298.811 153.75 299.291 153.562 299.689 153.188C300.088 152.812 300.428 152.332 300.709 151.746C300.99 151.137 301.225 150.469 301.412 149.742C301.6 148.992 301.74 148.266 301.834 147.562C301.951 146.836 302.021 146.168 302.045 145.559C302.092 144.926 302.115 144.422 302.115 144.047V143.344C302.115 143.039 302.104 142.699 302.08 142.324C302.057 141.926 302.01 141.527 301.939 141.129C301.893 140.707 301.811 140.332 301.693 140.004C301.576 139.652 301.424 139.371 301.236 139.16C301.049 138.949 300.803 138.844 300.498 138.844C299.982 138.68 299.537 138.715 299.162 138.949C298.811 139.184 298.518 139.582 298.283 140.145C298.072 140.684 297.908 141.352 297.791 142.148C297.674 142.945 297.604 143.824 297.58 144.785C297.557 145.746 297.545 146.766 297.545 147.844C297.568 148.922 297.58 150 297.58 151.078ZM315.404 155.086C315.287 154.477 315.182 153.75 315.088 152.906C315.018 152.039 314.936 151.172 314.842 150.305C314.748 149.414 314.631 148.582 314.49 147.809C314.373 147.035 314.186 146.402 313.928 145.91C312.732 148.348 311.678 150.27 310.764 151.676C309.85 153.059 309.041 154.055 308.338 154.664C307.658 155.25 307.084 155.531 306.615 155.508C306.146 155.484 305.76 155.273 305.455 154.875C305.15 154.477 304.928 153.973 304.787 153.363C304.67 152.73 304.588 152.145 304.541 151.605C304.541 151.09 304.658 150.363 304.893 149.426C305.127 148.488 305.443 147.469 305.842 146.367C306.24 145.242 306.709 144.105 307.248 142.957C307.811 141.809 308.408 140.766 309.041 139.828C309.674 138.891 310.33 138.117 311.01 137.508C311.689 136.898 312.369 136.594 313.049 136.594C314.057 136.43 314.795 136.652 315.264 137.262C315.756 137.848 315.85 138.844 315.545 140.25C315.545 141.797 315.604 143.121 315.721 144.223C315.861 145.324 316.002 146.379 316.143 147.387C316.307 148.395 316.447 149.449 316.564 150.551C316.705 151.652 316.775 152.977 316.775 154.523C316.775 154.805 316.74 155.051 316.67 155.262C316.623 155.449 316.342 155.543 315.826 155.543C315.756 155.543 315.662 155.484 315.545 155.367C315.451 155.25 315.404 155.156 315.404 155.086ZM313.506 139.371C313.248 138.996 312.896 138.961 312.451 139.266C312.006 139.57 311.537 140.074 311.045 140.777C310.553 141.48 310.049 142.324 309.533 143.309C309.018 144.293 308.537 145.289 308.092 146.297C307.646 147.305 307.26 148.266 306.932 149.18C306.604 150.07 306.381 150.809 306.264 151.395C306.264 152.238 306.393 152.719 306.65 152.836C306.908 152.93 307.225 152.789 307.6 152.414C307.975 152.039 308.396 151.5 308.865 150.797C309.357 150.094 309.826 149.344 310.271 148.547C310.74 147.75 311.174 146.977 311.572 146.227C311.994 145.477 312.322 144.867 312.557 144.398C312.768 143.906 312.932 143.449 313.049 143.027C313.166 142.605 313.26 142.207 313.33 141.832C313.424 141.434 313.471 141.035 313.471 140.637C313.494 140.238 313.506 139.816 313.506 139.371ZM319.553 140.988C319.318 141.105 319.096 141.234 318.885 141.375C318.697 141.492 318.51 141.609 318.322 141.727C318.135 141.82 317.947 141.891 317.76 141.938C317.572 141.984 317.373 141.984 317.162 141.938C317.021 141.938 316.904 141.855 316.811 141.691C316.717 141.504 316.646 141.305 316.6 141.094C316.529 140.859 316.482 140.637 316.459 140.426C316.436 140.191 316.436 140.016 316.459 139.898L319.834 137.965L320.045 128.965C320.092 128.66 320.279 128.543 320.607 128.613C320.936 128.66 321.275 128.73 321.627 128.824C321.674 128.824 321.744 128.848 321.838 128.895C321.955 128.918 322.037 128.941 322.084 128.965C322.037 129.598 321.979 130.289 321.908 131.039C321.861 131.766 321.814 132.504 321.768 133.254C321.721 133.98 321.686 134.695 321.662 135.398C321.662 136.102 321.697 136.734 321.768 137.297L327.041 135.82C327.135 135.797 327.205 135.867 327.252 136.031C327.322 136.172 327.381 136.348 327.428 136.559C327.498 136.77 327.545 136.98 327.568 137.191C327.592 137.402 327.604 137.508 327.604 137.508L321.627 140.039C321.627 140.25 321.639 140.754 321.662 141.551C321.709 142.348 321.756 143.297 321.803 144.398C321.85 145.477 321.896 146.648 321.943 147.914C321.99 149.156 322.037 150.316 322.084 151.395C322.131 152.473 322.166 153.422 322.189 154.242C322.213 155.039 322.225 155.543 322.225 155.754C322.178 156.457 321.967 156.809 321.592 156.809C321.24 156.809 320.854 156.633 320.432 156.281L319.553 140.988Z" fill="#0F0803"/>
<defs>
<clipPath id="clip0">
<rect x="150" y="80.9888" width="78.5288" height="78.5288" transform="rotate(-50.9541 150 80.9888)" fill="white"/>
</clipPath>
</defs>
</svg>
